<?xml version="1.0" encoding="utf-8"?>
<!-- Generator: Adobe Illustrator 23.0.3, SVG Export Plug-In . SVG Version: 6.00 Build 0)  -->
<svg version="1.1" id="Layer_1" xmlns="http://www.w3.org/2000/svg" xmlns:xlink="http://www.w3.org/1999/xlink" x="0px" y="0px"
	 viewBox="0 0 722 682" style="enable-background:new 0 0 722 682;" xml:space="preserve">
<style type="text/css">
	.st0{fill:#FFFF00;}
	.st1{fill:none;stroke:#FFFF66;stroke-width:14.3;stroke-linecap:round;stroke-linejoin:round;stroke-opacity:0.6;}
	.st2{fill:#424242;fill-opacity:9.803922e-02;}
	.st3{fill:#444444;fill-opacity:9.803922e-02;}
	.st4{fill:#FFFFFF;}
	.st5{fill:#FF0000;fill-opacity:0.498;}
	.st6{fill:#FF0000;}
	.st7{fill:#CB0000;}
	.st8{fill:none;stroke:#000000;stroke-width:1.85;stroke-linecap:round;stroke-linejoin:round;}
	.st9{fill:none;stroke:#000000;stroke-width:0.1;stroke-linecap:round;stroke-linejoin:round;}
	.st10{fill:none;stroke:#CCCCCC;stroke-width:3.5;stroke-linecap:round;stroke-linejoin:round;stroke-opacity:0.498;}
	.st11{fill:none;stroke:#000000;stroke-linecap:round;stroke-linejoin:round;}
	.st12{fill:none;stroke:#665D61;stroke-width:3.45;stroke-linecap:round;stroke-linejoin:round;}
	.st13{fill:#0033CC;}
	.st14{fill:#E6CC80;}
	.st15{fill:url(#SVGID_1_);}
	.st16{fill:url(#SVGID_2_);}
	.st17{fill:url(#SVGID_3_);}
	.st18{fill:url(#SVGID_4_);}
	.st19{fill:url(#SVGID_5_);}
	.st20{fill:url(#SVGID_6_);}
	.st21{fill:none;stroke:#000000;stroke-width:1.3;stroke-linecap:round;stroke-linejoin:round;}
	.st22{fill:#000099;}
	.st23{fill:#CCCCCC;fill-opacity:0.8;}
	.st24{fill:none;stroke:#CCCCCC;stroke-width:1.3;stroke-linecap:round;stroke-linejoin:round;}
	.st25{fill:#424242;}
	.st26{fill-opacity:0.8;}
	.st27{fill:none;stroke:#CCCCCC;stroke-linecap:round;stroke-linejoin:round;}
	.st28{fill:#FFFFFF;fill-opacity:9.803922e-02;}
	.st29{fill:url(#SVGID_7_);}
</style>
<g id="sunlight" transform="matrix( 1.5, 0, 0, 1.5, 862.45,113.7) ">
	<g transform="matrix( 1, 0, 0, 1, 0,0) ">
		<g>
			<g id="Sun_0_Layer0_0_FILL">
				<path class="st0" d="M-132.6-40.7c-11.3-11.2-24.8-16.8-40.7-16.8s-29.4,5.6-40.7,16.8c-11.3,11.2-16.8,24.8-16.8,40.7
					s5.6,29.4,16.8,40.7c11.2,11.3,24.8,16.8,40.7,16.8s29.4-5.6,40.7-16.8s16.8-24.8,16.8-40.7S-121.4-29.4-132.6-40.7z"/>
			</g>
		</g>
		<g>
			<path id="Sun_0_Layer0_0_1_STROKES" class="st1" d="M-115.8,0c0,15.9-5.6,29.4-16.8,40.7s-24.8,16.8-40.7,16.8
				s-29.4-5.6-40.7-16.8c-11.3-11.2-16.8-24.8-16.8-40.7s5.6-29.4,16.8-40.7c11.2-11.3,24.8-16.8,40.7-16.8s29.4,5.6,40.7,16.8
				S-115.8-15.9-115.8,0z"/>
		</g>
	</g>
</g>
<g id="sunlightopenumbrella" transform="matrix( 1.5, 0, 0, 1.5, 621.2,346.9) ">
	<g transform="matrix( 1, 0, 0, 1, 160.85,-155.45) ">
		<g transform="matrix( 1, 0, 0, 1, 0,0) ">
			<g>
				<g>
					<path class="st0" d="M-132.6-40.7c-11.3-11.2-24.8-16.8-40.7-16.8s-29.4,5.6-40.7,16.8c-11.3,11.2-16.8,24.8-16.8,40.7
						s5.6,29.4,16.8,40.7c11.2,11.3,24.8,16.8,40.7,16.8s29.4-5.6,40.7-16.8s16.8-24.8,16.8-40.7S-121.4-29.4-132.6-40.7z"/>
				</g>
			</g>
			<g>
				<path class="st1" d="M-115.8,0c0,15.9-5.6,29.4-16.8,40.7s-24.8,16.8-40.7,16.8s-29.4-5.6-40.7-16.8
					c-11.3-11.2-16.8-24.8-16.8-40.7s5.6-29.4,16.8-40.7c11.2-11.3,24.8-16.8,40.7-16.8s29.4,5.6,40.7,16.8S-115.8-15.9-115.8,0z"/>
			</g>
		</g>
	</g>
	<g transform="matrix( 1, 0, 0, 1, -14.1,37.9) ">
		<g transform="matrix( 1, 0, 0, 1, 0,0) ">
			<g>
				<g id="UmbrellaAssets_OpenUmbrellaShadow_0_Layer0_0_FILL">
					<path class="st2" d="M-86.5-137.3c-2.1,0.9-3.6,1.6-4.7,2c-1.9,0.8-3.5,1.3-4.8,1.6c-1.3,0.2-3.2,0.4-5.8,0.4
						c0,0.7,0,1.3-0.1,2l-15.9-0.2c0-0.7-0.1-1.4-0.2-2c-0.9,0-1.5-0.1-2-0.1c-1.6-0.1-3.1-0.4-4.3-0.9c-2.6-0.9-4.9-2.5-6.9-4.9
						c-0.2-0.3-0.4-0.5-0.6-0.8c-0.7-0.1-1.3-0.3-1.8-0.4c-1.4-0.3-2.6-0.8-3.6-1.4c-0.9-0.5-2.2-1.6-3.8-3.2
						c-0.7-0.7-1.4-1.3-2.1-1.8l-4.2,0.2c-1.2,0.5-2.7,0.9-4.4,1.3c-3.8,0.8-6.2,1.5-7.2,1.9c-0.8,0.4-1.9,1-3.4,1.8
						c-1.6,0.9-2.7,1.6-3.3,1.9c-2.3,1.2-5.1,1.9-8.4,2.2c-2,0.2-5,0.3-8.8,0.3l-22.9-0.2c-5-0.1-8.8-0.2-11.2-0.6
						c-5.6-0.8-9-2.8-10.2-5.9l-23.1,0.8c-1.4,0.8-2.8,1.7-4.4,2.7c-2.3,1.5-3.6,2.3-4,2.5c-0.7,0.4-1.7,0.8-3.1,1.4
						c-3.9,4.6-11.6,11.9-23.2,21.7l-3.5,6.5c-0.1,0.5-0.1,1.1-0.2,1.7c-1.4,7.2-4.2,13.7-8.5,19.5c-0.8,1-1.9,2.5-3.5,4.5
						c-1.3,1.8-2.3,3.4-2.9,4.9c-1,2.4-1.8,6.5-2.2,12.4c-0.4,5.5-1.4,9.5-2.9,12.1c-1.1,1.9-3.1,4-5.8,6.2c-3.7,3.1-5.9,5-6.6,5.7
						c-1.8,1.9-3.5,4.2-5.1,7c-1,1.8-2.2,4.5-3.7,8l-22.6,51.7c-1.4,3.2-2.4,5.6-3.1,7.4c-1,2.8-1.6,5.3-1.9,7.7
						c-0.2,1.3-0.3,3.7-0.3,7.2c-0.1,3.1-0.3,5.5-0.6,7.2c-0.6,3.2-2.1,6.5-4.3,10c-1.5,2.2-3.8,5.1-6.9,8.7
						c-2.3,2.6-1.3,7.2,3.2,13.8l-11,33.8c129.1,52.6,249.7,66.9,361.8,43c6.1,4.6,10.1,1.6,12-9s2.7-16.6,2.4-18.1
						c-0.3-1.7-0.9-4.2-1.8-7.6c-0.9-3.4-1.5-5.9-1.8-7.6c-1-6.4,0-11.4,2.8-15c0.4-0.6,1.1-1.3,2.1-2.2c0.9-1,1.6-1.7,2-2.2
						c1.5-1.8,2.6-4.1,3.4-6.9c0.5-1.7,1-4.3,1.5-7.8l2.3-17.1c0.6-4.5,0.8-7.8,0.7-9.8c-0.2-2.3-0.4-4.1-0.4-5.2
						c-0.1-2,0-3.7,0.4-5.1c0.2-0.6,0.7-1.6,1.4-3.1c0.6-1.3,1-2.3,1.1-3.1c0.3-1.3,0.2-2.9-0.1-4.8c-0.5-2.1-0.9-3.7-1.1-4.8
						c-0.5-3.1-0.2-7.3,1.1-12.4c1-4.2,1.8-7.5,2.2-9.8c-0.3-0.6-0.6-1.2-0.8-1.6l-2.2-3c-0.7-1.2-1.2-2.2-1.6-3
						C9.1,2.4,8.8-0.1,9.3-3c0.4-2.7,1.5-5.1,3.1-7.4c0.5-0.6,1.2-1.5,2.1-2.7c0.9-1.1,1.5-2,1.9-2.9c0.6-1.2,0.9-3.2,1.1-5.9
						c0.2-3.4,0.5-6.3,0.8-8.5c-0.1-2-0.1-4.1,0.2-6.2c0.4-2.5,1.1-5.2,2.1-8.1c0.5-1.6,1.5-4.3,3-7.9c1.1-2.6,1.8-4.7,2.2-6.2
						c0.7-2.3,1-4.5,1-6.5c0-1.2-0.1-2.8-0.4-4.8c-0.4-2.5-0.6-4.1-0.7-4.8c-0.2-2.6,0-5.2,0.7-7.6c0.5-1.9,1.3-3.6,2.4-5l-4.6-10.9
						c-2.5-3.6-4.4-6.2-5.7-8c-2.2-2.9-4.3-5.4-6.3-7.5c-1.7-1.8-3.4-3.4-5.1-4.8c-2-1.7-3.8-2.8-5.3-3.2c-0.9-0.3-2.4-0.4-4.3-0.4
						l-20.8-0.2c-4.3,0-7.7-0.2-10-0.3c-3.7-0.3-6.9-1-9.8-1.9v-0.4c-0.8-0.2-1.5-0.3-2.2-0.5c-4.1-1-8.4-3.1-12.8-6.1
						c-2.7-1.9-6.5-4.9-11.2-9c-3.8,0.4-6.8,0.8-8.8,1.1C-81.1-139-84-138.2-86.5-137.3z"/>
				</g>
			</g>
		</g>
	</g>
	<g transform="matrix( 1, 0, 0, 1, -30,184.45) ">
		<g transform="matrix( 1, 0, 0, 1, 0,0) ">
			<g>
				<g id="UmbrellaAssets_AdditionalShadowOpenUmbrella_0_Layer0_0_FILL">
					<path class="st3" d="M-352.3-35.8c-0.9,0.1-1.7,0.2-2.3,0.4c-0.5,0.2-1.1,0.5-1.8,0.8c0.1,0,0.1,0,0.2,0
						c-0.4,0-0.7,0.1-1.1,0.2c-1.1,0.4-2.1,1-2.9,2c-0.8,1-1.3,2.1-1.4,3.2c-0.1,0.6,0,1.3,0.1,2.1c0.2,0,0.3,0,0.5-0.1v0.2
						c0.3,0.1,0.6,0.1,0.9,0.2c0.2,0,0.5,0.1,0.8,0.2c1.1,0.6,2.2,1.3,3.3,2c1.2,0.8,2.4,1.6,3.6,2.3c0.9,0.5,1.8,1.1,2.6,1.8
						c2.5,1,4.9,2.1,7.3,3.1c2.1,0.9,4.2,2.1,6.2,3.3c0.4,0.3,0.7,0.5,1.1,0.8c1.6,0.7,3.1,1.6,4.5,2.5c1.1,0.7,2.2,1.4,3.2,2
						c0.9,0.5,1.8,0.9,2.8,1.2c0.2,0.1,0.4,0.2,0.7,0.3c0.2,0.1,0.3,0.2,0.5,0.2c0.2,0.1,0.3,0.1,0.5,0.2c0.2,0.1,0.5,0.2,0.8,0.2
						c0.2,0.1,0.5,0.2,0.8,0.3c0.4,0.2,0.8,0.5,1.2,0.7c0.1,0,0.3,0.1,0.4,0.1c0.3,0.1,0.6,0.1,0.9,0.2c0.2,0,0.5,0.1,0.8,0.2
						c0.4,0.2,0.8,0.4,1.2,0.6c2.7,0.6,5.3,1.2,8,2c3.1,0.8,6.3,1.5,9.5,2c3,0.5,5.9,1.3,8.8,2.4c0.2,0.1,0.4,0.2,0.6,0.3
						c0.1,0.1,0.3,0.2,0.4,0.2c0.1,0.1,0.2,0.1,0.2,0.1c0.2,0.1,0.5,0.2,0.8,0.2c0.4,0.2,0.7,0.5,1.1,0.8c0.3,0.2,0.7,0.5,1,0.7
						c0.5,0.3,1,0.7,1.5,1.1c0.1,0.1,0.3,0.3,0.4,0.4c0.4,0.1,0.8,0.2,1.2,0.2c0.2,0.1,0.5,0.2,0.8,0.2c0.2,0.1,0.3,0.2,0.5,0.2
						c0.2,0,0.3,0.1,0.5,0.2c0.5,0.2,1,0.4,1.4,0.7c0.4,0.2,0.8,0.4,1.2,0.7c0.1,0.1,0.3,0.1,0.4,0.2c4.2,0.1,8.4,0.5,12.5,1.1
						c1.4,0.2,2.8,0.5,4.1,0.9c0.7,0.1,1.4,0.2,2.1,0.3c0.5,0.1,1.1,0.2,1.6,0.2c0.7,0.1,1.3,0.2,2,0.4c4.4,0.1,8.7,0.2,13.1,0.3
						c0.3,0,0.5,0.1,0.8,0.2c0.4,0.2,0.8,0.5,1.2,0.8c0.3,0.2,0.6,0.4,0.8,0.8c0.2,0.2,0.4,0.4,0.6,0.7c0.1,0.2,0.3,0.3,0.5,0.5
						c0.2,0,0.5,0.1,0.7,0.1c3.1-0.2,6.2,0.1,9.3,1c0.2,0.1,0.5,0.1,0.8,0.2c0.3,0.2,0.6,0.4,0.9,0.6c9.6,1.4,19.5,2.6,29.8,3.8
						c19.6,2.3,38.3,4.1,56,5.4h102.2c14.6-1.5,25-3.8,31.2-6.9c0.5,0.2,1.1,0.5,1.7,0.7c1.9,0.7,4.3,1.3,7.3,1.7
						c4.2,0.6,7.1,0.1,8.9-1.4c1.3-1.1,1.9-2.7,1.8-4.7c-0.1-2-0.9-3.4-2.4-4.4C7.8,9.6,6,9.1,3.3,8.8C0.7,8.6-1.2,8.1-2.3,7.3
						c-0.4-0.3-1-0.8-1.6-1.5C-4.6,5-5.1,4.5-5.3,4.2C-6.7,2.9-8.9,2-12,1.4c-4.1-0.8-6.5-1.4-7.3-1.8c-0.9-0.4-2-1-3.4-1.8
						c-1.8-1.1-2.8-1.8-3.2-2c-0.6-0.3-1.6-0.8-3-1.4c-1.3-0.6-2.3-1.1-2.9-1.4l-4.7-2.8c-4.9-2.9-10.2-4.6-15.8-5.2
						c-0.2,0-0.4-0.1-0.7-0.1c-1.1-1-2-1.8-2.6-2.3c-34.5-9.3-76.8-17.2-126.8-23.1c-33.8-4-64.6-6.4-92.5-7.1
						c-2.1,0.4-4.9,0.6-8.2,0.8c-6.3,0.2-12.8,0.3-19.5,0.2c-2.2,0-3.9,0.1-5,0.4c-1,0.2-2,0.5-3,1c-0.1,0-1,0.5-2.7,1.5
						c-5.1,2.8-10.8,4.9-17.1,6.4c-6.4,1.4-12.8,2-19.4,1.8C-351.2-35.7-352-35.8-352.3-35.8 M-351.2-33.2c0.1,0,0.1,0.1,0.1,0.1
						c0.9,0.7,1.7,1.6,2.2,2.6c0.4,0.7,0.7,1.6,0.9,2.8l0.4,1.4c-0.2-0.5-0.4-1-0.6-1.5c-0.5-1.4-0.9-2.2-1-2.5
						c-0.4-0.9-0.9-1.7-1.4-2.2C-350.8-32.8-351-33-351.2-33.2z"/>
				</g>
			</g>
		</g>
	</g>
</g>
<g id="openumbrella" transform="matrix( 1.5, 0, 0, 1.5, 665.65,328.95) ">
	<g transform="matrix( 1, 0, 0, 1, 0,0) ">
		<g>
			<g id="COpenUmbrella_0_Layer0_0_FILL">
				<path class="st4" d="M-180.1,130.1l0.1-0.5l9.7-134.2l-4.3,37.5l-11.5,112.5l4.6,0.4L-180.1,130.1 M-166.7,148.9
					c1.7-0.1,2.7-0.6,3-1.5c-3.3-0.1-7.4-0.1-12.2-0.2c-2.8,0-5.7,0.1-8.6,0.2c0-0.1-0.1-0.2-0.1-0.3c-4.1,0.1-7.8,0.3-11,0.7
					l-0.1,0.1l4.6-0.4c1.3-0.1,2.3,0,2.8,0.2s0.8,0.5,1.1,0.9c0.3,0.4,0.4,0.8,0.4,1.3l11.8-0.6
					C-171.2,149.1-168.4,148.9-166.7,148.9 M-165.8-88.2c-0.1,0.1-0.1,0.2-0.2,0.4c0,0.2-0.2,0.6-0.5,1.3l-0.5,4.8v0.6l-0.2,1.4
					l-1.8,18v0.1v0.1L-188.7,145c-0.2,0-0.5-0.1-0.8-0.1c-1.7-0.1-2.9-0.1-3.8,0.2c-0.9,0.3-1.5,0.7-1.9,1.2
					c1.6-0.5,3.4-0.8,5.4-0.9c0.9-0.1,2.1-0.1,3.4,0c-0.5-0.2-1-0.3-1.6-0.4l1.6,0.2l11.7-112.3l11.2-120.1c-0.1,0-0.3-0.1-0.4-0.1
					s-0.1,0-0.2,0.1c-0.1-0.2-0.3-0.4-0.6-0.4v-0.1c0-0.1-0.1-0.2-0.2-0.3c0,0-0.1,0-0.1-0.1v-0.1c-0.1-0.4-0.3-0.5-0.5-0.5
					C-165.6-88.5-165.7-88.4-165.8-88.2 M-168.6-57.7c0,0.2,0,0.3,0,0.5h-0.1C-168.7-57.3-168.7-57.5-168.6-57.7 M-162.7-86.9
					L-162.7-86.9c-0.2,0-0.4-0.1-0.5-0.2c-0.1,0-0.2-0.1-0.3-0.1l-11.2,120.1l4.4-37.5l-9.7,134.2l17.6-185.1l0,0v-0.1l0,0
					c-0.1,0-0.3,0-0.5,0c0-0.3,0-0.6,0-0.8c0-0.1,0-0.1,0-0.2c0.1,0.1,0.3,0.1,0.5,0c0.1-0.1,0.1-0.1,0.1-0.2l0.1-0.1V-57l2.4-26.2
					c0-0.3,0-0.7-0.1-1c-0.1-0.9-0.2-1.5-0.5-2C-161.1-86.5-161.9-86.7-162.7-86.9L-162.7-86.9z"/>
				<path class="st5" d="M-287-82.9c-1.9-0.5-3.7-0.8-5.4-0.7c-1.3,0.1-2.8,0.4-4.4,0.9c-0.8,0.3-2.2,0.8-4.3,1.6l-2.5,1
					C-297.5-82.1-292-83-287-82.9 M-76-47.5c-0.4,0.2-0.7,0.3-1,0.5h0.1c0.1-0.1,0.2-0.2,0.3-0.2c0.3-0.2,0.8-0.4,1.6-0.5l0.8-0.1
					c0.7-0.5,1.5-1,2.3-1.5C-73.3-48.8-74.7-48.2-76-47.5 M-48.7-55.8c0-0.1,0-0.1,0-0.2c-3.4,0.8-6.4,1.5-8.9,2.1
					c1.2-0.2,2.7-0.4,4.7-0.6c0.4-0.1,0.8-0.1,1.2-0.2c0.2-0.1,0.4-0.2,0.6-0.3C-50.4-55.3-49.6-55.6-48.7-55.8 M-46.1-56
					c0.4-0.1,0.8-0.2,1.1-0.4c2.8-0.8,5.4-1.1,7.9-0.9c-1.4-0.1-3-0.1-4.8,0.1c-1.3,0.2-3.2,0.5-5.8,1.1c-0.4,0.1-0.7,0.2-1.1,0.2
					c0,0,0,0.1,0,0.2c0.4-0.1,0.8-0.2,1.2-0.2C-47.1-56-46.6-56-46.1-56 M-147.1-60.4c1.3-0.3,2.1-0.6,2.6-0.8
					c0.4-0.2,1.1-0.4,1.9-0.8C-144.1-61.4-145.6-60.9-147.1-60.4 M-138.5-63c0,0,0.1,0,0.2,0h0.1c0.2-0.1,0.5-0.2,0.7-0.2
					C-137.9-63.2-138.3-63.1-138.5-63 M-154.9-57.3c0.1,0,0.2-0.1,0.4-0.1c1-0.5,1.7-0.8,2.2-0.9l1.6-0.6l1-0.5
					C-151.5-58.8-153.2-58.1-154.9-57.3 M-162.8-86.8L-162.8-86.8L-162.8-86.8c-0.1-0.2-0.3-0.2-0.4-0.3
					C-163.1-87-162.9-86.9-162.8-86.8z"/>
				<path d="M-271.8-77.3c-0.6-0.4-1.1-0.8-1.6-1.1l-3.8-2.7c-0.1,0-0.1-0.1-0.2-0.1c-2.2-1.5-3.9-2.6-5.2-3.2
					c-1.4-0.7-2.8-1.2-4.2-1.5c-0.1,1-0.1,2-0.1,3c1.6,0.5,3.4,1.2,5.2,2.1c2.3,1.2,5,3.1,8.2,5.5c4.8,3.7,7.4,5.7,7.9,6.1
					c6.7,4.8,12.8,7,18.3,6.7c1.4-0.1,3-0.4,4.8-0.9c1-0.3,2.5-0.8,4.7-1.5l24.8-8.5c3.1-1.1,5.5-1.4,7.2-1.1
					c0.8,0.2,1.9,0.6,3.2,1.4c0-1.1,0.1-2.1,0.2-3.2c-0.7-0.3-1.3-0.6-1.8-0.7c-1.5-0.3-3.2-0.3-5.2,0.1c-0.9,0.2-2.1,0.5-3.6,1
					c-1.3,0.7-4.3,1.9-9,3.6c-4.7,1.7-9.6,3.3-14.8,4.7h-0.1c-2.8,1-5.1,1.7-6.7,2c-2.5,0.6-4.8,0.7-6.8,0.5c-2-0.3-4.2-1-6.5-2.2
					c-0.2-0.1-0.8-0.6-1.7-1.3c-0.3,0-0.5,0-0.8-0.1c-0.2-0.1-0.5-0.1-0.8-0.2c-0.7-0.4-1.3-0.9-1.9-1.5l-0.1-0.1
					c-0.2-0.2-0.5-0.3-0.8-0.5l-8.9-6.1L-271.8-77.3 M-286.3-104.6c-0.6,0.3-2,1.1-4.3,2.4c-0.4,0.2-3.4,1.8-9,4.8
					c-3.6,1.9-6.4,3.7-8.4,5.5c-0.7,0.6-3.9,4.2-9.6,10.9c-3.4,3.9-6.7,6.4-9.9,7.6c-0.4,0.2-0.9,0.3-1.3,0.4
					c0.2,0.1,0.5,0.1,0.8,0.2c-0.4,0.2-0.7,0.3-1,0.5c-0.9,0.5-1.6,1-2.2,1.5c-0.1,0.1-0.3,0.3-0.4,0.4c0.1,0,0.3,0,0.4,0
					c1.8,0,3.8-0.3,5.9-1c1.4-0.4,3.4-1.1,6.1-2.2l15.8-6.4c0,0,0,0,0.1,0l2.5-1c2.1-0.8,3.6-1.3,4.3-1.6c1.6-0.5,3.1-0.8,4.4-0.9
					c1.7-0.1,3.5,0.1,5.4,0.7c0-1,0-2,0.1-3c-0.6-0.1-1.3-0.2-1.9-0.3c-1.6-0.1-3.4,0.1-5.3,0.6c-1.3,0.3-3,0.9-5.2,1.8l-21.2,8
					c1.5-1.3,3.4-3.5,5.8-6.4c5.5-6.8,12-12.1,19.7-16c4.3-2.3,8.2-3.4,11.7-3.5c0.6,0,1.3,0,2,0.1c1.4-1.4,2.9-2.2,4.6-2.2
					c-0.2-0.1-0.4-0.2-0.6-0.3c-0.6-0.3-1.1-0.5-1.4-0.7c-1.1-0.5-2.1-0.7-3-0.8C-283.1-105.7-284.6-105.3-286.3-104.6
					 M-190.9-107.3h-0.1c-1.6-0.2-3.7,0.2-6.3,1.1c-8.3,3.2-14.6,5.6-18.8,7.1c-7.4,2.7-13.8,4.3-19.3,4.8
					c-8.1,0.8-16.8-0.3-26.2-3.3c-4.9-1.5-9.6-3.5-14.2-5.8c-0.3-0.1-0.6-0.3-0.8-0.4c-1.7,0-3.2,0.7-4.6,2.2
					c1.7,0.2,3.5,0.6,5.5,1.2c0.9,0.3,3.3,1.2,7.2,2.7c14,5.5,26.4,7.2,37.4,5.2c2.8-0.5,7.2-1.8,13.1-3.9l27.1-9.4
					C-190.9-106.4-190.9-106.9-190.9-107.3 M-163.7,147.4c4.9,0.1,8.1,0.1,9.5,0.1c1.1-0.1,1.8-0.3,2.2-0.8c-9,0.1-18-0.1-27-0.8
					c-2.9-0.2-5.3-0.3-7.2-0.3c-1.3,0-2.5,0-3.4,0c-2,0.1-3.8,0.4-5.4,0.9c-1.7,0.4-3.2,1-4.5,1.8c1.2-0.2,2.6-0.4,4-0.6
					c3.2-0.4,6.9-0.6,11-0.7c2.4,0,4.9,0,7.6,0.1c0.3,0,0.7,0,1.1,0C-171.1,147.2-167,147.3-163.7,147.4 M-56.4-78.2
					c0-0.7,0-1.3,0-2c-1.6,0.2-4.1,0.6-7.4,1.1c-3.3,0.5-6.1,0.8-8.4,0.9c2.7,0,5.3,0.5,7.8,1.3C-62.1-77.2-59.4-77.7-56.4-78.2
					 M-48.9-58c0.1,0.7,0.1,1.4,0.2,2.1c0.4-0.1,0.7-0.1,1.1-0.2c2.6-0.6,4.5-0.9,5.8-1.1c1.7-0.2,3.3-0.2,4.8-0.1
					c0.3,0,0.7,0.1,1.1,0.1c2,0.4,4.1,1.2,6.3,2.5c1.4,0.8,3.2,2.1,5.6,3.9c1.8,2.6,3.9,4.7,6.4,6.5c0.6,0.4,1.1,0.6,1.6,0.6
					c0.3-0.6,0.7-1.2,1.1-1.8c0-0.2-0.1-0.5-0.2-0.7c-0.2-0.3-0.6-0.7-1-1c0-0.2,0.1-0.4,0.1-0.7c0-0.8-0.2-1.6-0.6-2.3
					c-0.3-0.6-0.8-1.2-1.5-1.8c-0.8-0.7-1.4-1.2-1.8-1.5c-2.3-2-5-6-8.1-11.9c-2.9-5.7-5.8-9.5-8.4-11.4c-4.2-3.1-10.2-4.3-17.9-3.6
					c-0.3,0-1,0.1-1.9,0.2c0,0.6,0,1.3,0,2c6.2-0.7,11.3,0,15.1,2c4.1,2.1,8.2,7,12.4,14.6c1.4,2.5,2.7,4.7,4,6.6
					c-0.9-0.6-1.9-1.2-3-2c-2.6-1.7-4.8-2.8-6.6-3.1c-1.3-0.2-2.8-0.3-4.4-0.1c-1.1,0.1-2.5,0.4-4.4,0.8
					C-45.2-58.9-47.1-58.5-48.9-58 M-169.3-59.2c-0.4-0.2-0.8-0.3-1.2-0.5c0-0.1,0-0.2,0-0.3l-29.3-15.2c-1-0.5-1.8-0.8-2.5-1.2
					c-0.1,1-0.2,2.1-0.2,3.2l29.8,15.2c0.1,0.1,0.2,0.2,0.3,0.2c0.1,0.1,0.3,0.1,0.6,0.1c0.1,0.2,0.2,0.4,0.5,0.5l1,0.4
					c0.2,0.1,0.3,0.1,0.5,0.1c0.1,0,0.2-0.1,0.3-0.2c0.1-0.1,0.1-0.3,0-0.4l-0.1-0.2v-0.1c0-0.3,0-0.7,0.1-1.2L-169.3-59.2
					 M-168.6-57.2c0-0.2,0-0.3,0-0.5C-168.7-57.5-168.7-57.3-168.6-57.2C-168.7-57.2-168.7-57.2-168.6-57.2 M-137.9-90.3
					c-1.9-0.5-3.8-0.7-5.9-0.7l-14.6,4.4l-25.9-17.6c-2.6-1.8-4.8-2.9-6.6-3.2c0,0.5,0,0.9,0,1.3c2,2.4,4.5,4.8,7.6,7.2
					c1.2,0.9,2.8,2,4.8,3.2c1.2,0.8,2.5,1.6,3.9,2.5c3.2,2,5.7,3.4,7.5,4.3c0.3,0.1,0.5,0.2,0.8,0.3c0.2,0.1,0.3,0.2,0.5,0.2
					c0.1-0.2,0.2-0.4,0.3-0.4c0.3,0,0.5,0.1,0.5,0.5v0.1l0.1,0.1c0.1,0.1,0.2,0.2,0.2,0.3c0.4,0.2,0.8,0.3,1.2,0.5
					c0.1,0,0.2,0.1,0.3,0.1c0.2,0.1,0.3,0.1,0.5,0.2c0.8,0.2,1.5,0.4,2.3,0.6c0.3,0.1,0.6,0.1,0.9,0.2c0.2,0,0.3,0.1,0.4,0.1
					c4,0.6,8.6,0.2,13.8-1.4C-144.8-87.6-142.4-88.6-137.9-90.3 M-118.2-67.9c0.1,1.2,0.2,2.5,0.2,3.8l17.1,8.1
					c5.9,2.8,10.3,5.2,13.3,7.2c1.6,1.1,2.5,1.7,2.8,1.8c1.1,0.6,2.1,1,3.1,1c0.9,0.1,1.8-0.1,2.9-0.4c0.4-0.1,1-0.4,1.8-0.7
					c0.3-0.2,0.6-0.3,1-0.5c1.3-0.6,2.7-1.2,4.2-1.8c3.2-1.8,7-3.2,11.6-4.1c0.3-0.1,1.2-0.2,2.6-0.4c2.5-0.6,5.5-1.3,8.9-2.1
					c0-0.7-0.1-1.5-0.2-2.1c-5.9,1.4-10.5,2.5-13.8,3.5c-6.3,1.8-11.9,3.8-16.8,6c0,0.1-0.1,0.1-0.1,0.1c-0.1,0.2-0.3,0.3-0.6,0.5
					c-0.6,0.3-1.1,0.3-1.4,0.2c-0.1,0-0.2-0.1-0.4-0.3l-1.4-1.5c-2.7-2.3-6.4-4.5-11-6.6c-1.1-0.5-2.2-0.9-3.3-1.4
					c-0.2-0.1-0.5-0.2-0.7-0.2c-1.2-0.3-2-0.6-2.6-0.9c-0.6-0.4-1-0.6-1.4-0.8c-0.8-0.3-1.5-0.6-2.1-0.9c-0.2-0.1-0.5-0.2-0.7-0.3
					c-0.7-0.2-1.5-0.6-2.4-1.1c-0.7-0.2-1.3-0.4-1.8-0.5c-0.5-0.2-0.9-0.4-1.2-0.6c-0.3-0.2-0.6-0.5-1.1-0.8h-0.1l-1.6-0.8
					c-0.2-0.1-0.3-0.2-0.3-0.2l-0.1-0.2l-0.9-0.4c-0.2-0.1-0.3-0.3-0.3-0.4c-0.2-0.3-0.3-0.3-0.3-0.4
					C-116.7-67-117.6-67.6-118.2-67.9 M-118.2-67.9C-118.3-67.9-118.3-67.9-118.2-67.9c-1-0.3-2.3-0.5-4-0.4
					c-4.4,0.2-9.2,1-14.5,2.4c-3.2,0.9-7.9,2.5-14.1,4.7c-1.2,0.4-2.2,0.8-3.1,1.2c-0.2,0-0.4,0-0.5,0c-0.9,0.1-1.5,0.3-2,0.5
					c-0.1,0-0.2,0-0.3,0c-0.1,0-0.2,0.1-0.4,0.2l0,0c-0.1,0-0.1,0.1-0.1,0.1l-0.1,0.1c-0.8,0.4-1.4,0.7-1.8,0.9
					c-0.8,0.4-1.6,0.7-2.4,0.8l-0.1,0.1c-0.1,0.1-0.2,0.1-0.3,0.1v0.1c0,0.1,0,0.1-0.1,0.1c0,0.1-0.1,0.2-0.1,0.2
					c-0.2,0.1-0.4,0.1-0.5,0c0,0.1,0,0.1,0,0.2c0,0.2,0,0.5,0,0.8c0.2,0,0.4,0,0.5,0h0.1c0,0,0,0-0.1,0v0.1l0,0
					c0.1,0.2,0.3,0.3,0.7,0.3c0.5,0,1.1-0.1,1.9-0.4c0.1-0.1,0.2-0.1,0.4-0.2h0.1c0,0.1-0.1,0.2-0.1,0.2l1.2-0.5
					c1.1-0.5,2.2-1,3.4-1.4c1.7-0.7,3.5-1.4,5.2-2.1h0.1h0.1c0.1-0.1,0.3-0.1,0.4-0.2c0.1,0,0.2,0,0.3,0c0.4-0.2,0.8-0.3,1.4-0.5
					c0.1,0,0.3-0.1,0.4-0.2c1.5-0.5,3-1,4.5-1.5c0.2-0.1,0.5-0.2,0.7-0.3c0.4-0.2,1.3-0.4,2.7-0.8c0.2-0.1,0.4-0.1,0.6,0
					c0.3-0.1,0.6-0.2,0.9-0.2c3-0.8,6-1.5,9.1-2.1c2.7-0.5,4.8-0.6,6.1-0.3c1,0.2,2.4,0.7,4.4,1.6C-118-65.4-118.1-66.7-118.2-67.9
					 M-106.6-93.7c-1.6-1.2-3.1-2.1-4.6-2.7c-0.7-0.3-1.5-0.6-2.1-0.8c-2.3-0.6-5-0.7-8-0.2c-1.8,0.3-4.5,1-8,2l-14.5,4.4
					c2,0,4,0.2,5.9,0.7c1.7-0.7,3.7-1.5,6-2.4c2.9-1.1,5.4-1.9,7.5-2.3c2.8-0.5,5.4-0.6,7.8-0.1c2.9,0.6,6,2.2,9.2,4.7
					c1.9,1.4,4.7,3.6,8.3,6.6c3.8,2.7,8,4.8,12.6,6.1c4.6,1.4,9.2,1.9,13.9,1.6c2-0.1,4.7-0.4,8-0.8c-2.4-0.8-5-1.3-7.8-1.3h-0.3
					c-0.2,0-0.4,0-0.6,0c-4.8,0-9.7-1.1-14.5-3.1c-4.5-1.8-8.8-4.4-12.9-7.7C-103.2-91.1-105.2-92.7-106.6-93.7z"/>
				<path class="st6" d="M-243.1-138.6c-0.3,0.1-0.5,0.2-0.8,0.2c-18.3,6.4-35.2,15.7-50.5,27.9c-14.2,11.3-25.3,23.6-33.2,37
					c3.2-1.2,6.5-3.7,9.9-7.6c5.8-6.7,9-10.3,9.6-10.9c2-1.8,4.8-3.6,8.4-5.5c5.6-2.9,8.6-4.5,9-4.8c2.3-1.3,3.7-2.1,4.3-2.4
					c1.7-0.8,3.2-1.2,4.7-1c0.9,0.1,1.9,0.3,3,0.8c0.3,0.1,0.8,0.3,1.4,0.7c0.2,0.1,0.4,0.2,0.6,0.3c13.9-8.8,26.7-17.4,38.5-26
					c14.1-10.3,29.4-16.6,45.8-18.8C-210.4-147.4-227.3-144.1-243.1-138.6 M-137.5-144.1c5,2.5,9.6,6.2,13.7,11.2
					c8.4,10.1,12.6,22.3,12.6,36.5c1.5,0.6,3,1.5,4.6,2.7c1.4,1,3.4,2.6,6.1,4.8c4.1,3.3,8.4,5.8,12.9,7.7c4.9,2,9.8,3,14.5,3.1
					c0.2,0,0.4,0,0.6,0h0.3c2.3,0,5.1-0.3,8.4-0.9c3.4-0.5,5.8-0.9,7.4-1.1c-0.1-9.6-5-18.9-14.9-28.2
					C-90-125.8-112.1-137.8-137.5-144.1 M-154.2-147.9c-4.3-0.5-8.7-0.8-13.2-0.9c-3.2-0.1-6.4-0.2-9.7-0.2
					c-5.2,0-10.2,0.2-15.2,0.5c-16.4,2.2-31.7,8.4-45.8,18.8c-11.7,8.6-24.6,17.2-38.5,26c0.2,0.1,0.5,0.3,0.8,0.4
					c4.6,2.3,9.3,4.3,14.2,5.8c9.3,3,18,4.1,26.2,3.3c5.5-0.5,11.9-2.1,19.3-4.8c4.2-1.5,10.5-3.9,18.8-7.1c2.7-0.9,4.8-1.3,6.3-1.1
					h0.1c0.2-11,3.8-20.5,10.7-28.3C-173-143.9-164.3-147.9-154.2-147.9 M-137.5-144.1c-2.4-1.2-4.8-2.1-7.3-2.8
					c-2.9-0.7-6-1.1-9.1-1.1c-0.1,0-0.2,0-0.2,0c-10.1,0-18.8,4.1-26,12.2c-6.9,7.9-10.5,17.3-10.7,28.3c1.8,0.3,4,1.3,6.6,3.2
					l25.9,17.6l14.5-4.3l14.5-4.4c3.5-1,6.1-1.7,8-2c3-0.5,5.6-0.4,8,0.2c0.7,0.2,1.4,0.4,2.1,0.8c0-14.2-4.2-26.3-12.6-36.5
					C-127.9-137.8-132.5-141.6-137.5-144.1 M-144.8-146.8c2.5,0.6,4.9,1.6,7.3,2.8c25.4,6.3,47.5,18.2,66.2,35.8
					C-61.4-99-56.5-89.6-56.4-80c0.9-0.1,1.5-0.2,1.9-0.2c7.7-0.7,13.7,0.4,17.9,3.6c2.7,2,5.5,5.8,8.4,11.4
					c3.1,5.9,5.8,9.9,8.1,11.9c0.4,0.4,1,0.9,1.8,1.5c0.7,0.6,1.2,1.2,1.5,1.8c0.4,0.7,0.6,1.5,0.6,2.3c0,0.3-0.1,0.5-0.1,0.7
					c0.4,0.3,0.7,0.7,1,1c0.1,0.2,0.2,0.5,0.2,0.7c0-0.1,0.1-0.1,0.1-0.2c-6.4-24.4-21.4-46-45-64.8
					C-84.3-129.9-112.6-142.1-144.8-146.8z"/>
				<path class="st7" d="M-164.7-87.7C-164.7-87.6-164.7-87.6-164.7-87.7c0.3,0.1,0.5,0.2,0.6,0.5c0,0,0.1-0.1,0.2-0.1
					c0.2,0,0.3,0,0.4,0.1C-163.9-87.3-164.3-87.5-164.7-87.7 M-166.3-88.4c-0.3-0.1-0.5-0.2-0.8-0.3c-1.8-0.9-4.3-2.3-7.5-4.3
					c-1.5-0.9-2.8-1.7-3.9-2.5c-2-1.3-3.6-2.4-4.8-3.2c-3.1-2.3-5.6-4.7-7.6-7.2l-27.1,9.4c-5.9,2.1-10.3,3.4-13.1,3.9
					c-11,2.1-23.4,0.3-37.4-5.2c-3.9-1.5-6.3-2.4-7.2-2.7c-2-0.6-3.8-1-5.5-1.2c-0.7-0.1-1.4-0.1-2-0.1c-3.4,0-7.3,1.2-11.7,3.5
					c-7.7,3.9-14.2,9.2-19.7,16c-2.3,3-4.2,5.1-5.8,6.4l21.2-8c2.1-0.8,3.9-1.4,5.2-1.8c1.9-0.5,3.7-0.7,5.3-0.6
					c0.6,0.1,1.3,0.2,1.9,0.3c1.3,0.3,2.7,0.8,4.2,1.5c1.3,0.6,3.1,1.7,5.2,3.2c0.4,0.2,0.9,0.3,1.3,0.5c0.6,0.6,1.6,1.4,2.8,2.2
					c0.5,0.3,1,0.7,1.6,1.1l0.3,0.2l6.7,4.4c0.3,0.3,0.7,0.5,1.1,0.7c0.7,0.4,1.4,0.9,1.9,1.5l0.1,0.1c0.6,0.6,1.2,1.1,1.9,1.5
					c0.3,0.1,0.5,0.1,0.8,0.2c0.2,0.1,0.5,0.1,0.8,0.1c0.9,0.8,1.4,1.2,1.7,1.3c2.3,1.2,4.5,1.9,6.5,2.2c2,0.3,4.3,0.1,6.8-0.5
					c1.6-0.4,3.8-1,6.7-2h0.1c5.2-1.4,10.1-3,14.8-4.7s7.7-2.9,9-3.6c1.5-0.5,2.7-0.9,3.6-1c1.9-0.4,3.7-0.4,5.2-0.1
					c0.4,0.1,1,0.3,1.8,0.7c0.7,0.3,1.5,0.7,2.5,1.2l28.9,15.3c0,0.1,0,0.2,0,0.3c0.4,0.2,0.8,0.4,1.2,0.5l0.5-2.2v-0.1v-0.1
					c0-0.5,0-0.8,0-0.9v-2.1c0.1-2.5,0.3-4.3,0.4-5.6c0.2-1.6,0.5-3.3,0.8-5.2l0.5-4.2l0.2-1.4v-0.6v-0.9c0-1.7,0.1-3,0.4-3.8
					c0-0.1,0-0.1,0.1-0.2c0.3-0.7,0.5-1.2,0.5-1.3c0.1-0.2,0.1-0.3,0.2-0.4C-166-88.2-166.1-88.3-166.3-88.4 M-99-83.8
					c-3.7-3-6.4-5.2-8.3-6.6c-3.3-2.5-6.4-4.1-9.2-4.7c-2.3-0.5-4.9-0.4-7.8,0.1c-2.1,0.4-4.6,1.2-7.5,2.3c-2.3,0.9-4.3,1.7-6,2.4
					c-4.5,1.7-6.9,2.7-7.4,2.8c-5.2,1.6-9.8,2.1-13.8,1.4c-0.1,0-0.3-0.1-0.4-0.1c-0.3,0-0.6-0.1-0.9-0.2c0.3,0.5,0.4,1.1,0.5,2
					c0,0.3,0,0.7,0.1,1c0.5,6.6,0.1,13-1.2,19.2c0,0.1,0.1,0.3,0.1,0.5c0,0.4-0.1,1.3-0.5,2.7c-0.2,0.9-0.3,1.8-0.3,2.8
					c0,0.3,0,0.6-0.1,0.8c0.9-0.1,1.7-0.4,2.4-0.8c0.4-0.2,1-0.5,1.8-0.9l0.1-0.1l0.1-0.1l0,0c0.1-0.1,0.3-0.1,0.4-0.2
					c0.1,0,0.2,0,0.3,0c0.5-0.2,1.2-0.3,2-0.5c0.2,0,0.4,0,0.5,0c0.9-0.4,1.9-0.8,3.1-1.2c6.2-2.2,10.9-3.8,14.1-4.7
					c5.3-1.5,10.1-2.3,14.5-2.4c1.7-0.1,3,0.1,3.9,0.4h0.1c0.6,0.3,1.5,0.9,2.9,1.8c0.1,0.1,0.2,0.1,0.3,0.2c0,0.1,0.1,0.3,0.3,0.4
					l0.9,0.4l0.1,0.2c0,0,0.1,0.1,0.3,0.2l1.6,0.8h0.1c0.4,0.4,0.8,0.7,1.1,0.8c0.3,0.2,0.7,0.4,1.2,0.6c0.5,0.2,1.1,0.3,1.8,0.5
					c1,0.5,1.8,0.9,2.4,1.1c0.2,0.1,0.5,0.2,0.7,0.3c1,0.4,1.5,0.6,1.7,0.7c0.1,0.1,0.3,0.1,0.4,0.2c0.3,0.2,0.8,0.5,1.4,0.8
					s1.4,0.5,2.6,0.9c0.1,0,0.2,0,0.3,0l1.5,0.7c0.2,0.1,0.5,0.2,1.1,0.3c0.4,0.2,0.7,0.4,1.1,0.6c4.6,2.1,8.3,4.3,11,6.6l1.4,1.5
					c0.2,0.2,0.3,0.3,0.4,0.3c0.3,0.1,0.8,0.1,1.4-0.2c0.3-0.1,0.5-0.3,0.6-0.5l0.1-0.1c4.9-2.2,10.5-4.2,16.8-6
					c3.3-0.9,7.9-2.1,13.8-3.5c1.7-0.4,3.6-0.9,5.6-1.3c1.9-0.4,3.3-0.7,4.4-0.8c1.6-0.2,3.1-0.1,4.4,0.1c1.8,0.4,4,1.4,6.6,3.1
					c1.1,0.7,2.1,1.4,3,2c-1.3-1.9-2.6-4.1-4-6.6c-4.2-7.7-8.3-12.5-12.4-14.6c-3.8-2-8.9-2.7-15.1-2c-3,0.5-5.7,1-8.1,1.3
					c-3.3,0.5-6,0.8-8,0.8c-4.7,0.3-9.3-0.3-13.9-1.6C-91-79-95.1-81.1-99-83.8z"/>
			</g>
		</g>
		<g>
			<path id="COpenUmbrella_0_Layer0_0_1_STROKES" class="st8" d="M-14.8-45.7c-6.4-24.4-21.4-46-45-64.8
				c-24.5-19.5-52.8-31.6-85-36.4c-2.9-0.7-6-1.1-9.1-1.1 M-167.4-148.9c4.5,0.2,8.9,0.5,13.2,0.9 M-162.4-55.5L-180,129.6
				 M-180.1,130.1l-1.5,15.6 M-188.5,145.1l19.6-206.4 M-327.6-73.4c8-13.4,19.1-25.7,33.2-37c15.3-12.2,32.2-21.5,50.5-27.9
				 M-167.4-148.9c-3.2-0.1-6.4-0.2-9.7-0.2c-5.2,0-10.2,0.2-15.2,0.5 M-166.9-81.6l0.5-4.8 M-166.9-81l-0.2,1.4l-1.8,18
				 M-162.2-57.1L-162.2-57.1l2.5-26.2 M-162.4-55.7L-162.4-55.7 M-243.1-138.6c15.8-5.5,32.7-8.8,50.8-10"/>
		</g>
		<g>
			<path id="COpenUmbrella_0_Layer0_0_2_STROKES" class="st9" d="M-144.8-146.8c2.5,0.6,4.9,1.6,7.3,2.8
				c25.4,6.3,47.5,18.2,66.2,35.8C-61.4-99-56.5-89.6-56.4-80 M-153.9-147.9c-0.1,0-0.2,0-0.2,0c-10.1,0-18.8,4.1-26,12.2
				c-6.9,7.9-10.5,17.3-10.7,28.3 M-111.2-96.4c0-14.2-4.2-26.3-12.6-36.5c-4.1-5-8.7-8.7-13.7-11.2 M-72.2-78.2h-0.3 M-56.4-80.2
				c0,0.6,0,1.3,0,2 M-48.7-55.9c0-0.7-0.1-1.5-0.2-2.1 M-118-64.1c0-1.3-0.1-2.6-0.2-3.8 M-180,129.6l-0.1,0.5 M-186.2,145.6v-0.2
				 M-243.9-138.4c0.2-0.1,0.5-0.2,0.8-0.2c22.4-8.9,45.5-12.5,69.3-10.8l6.4,0.5 M-192.3-148.6c-16.4,2.2-31.7,8.4-45.8,18.8
				c-11.7,8.6-24.6,17.2-38.5,26 M-190.9-107.3c0,0.5,0,0.9,0,1.3 M-137.9-90.3c-1.9-0.5-3.8-0.7-5.9-0.7 M-174.7,32.9l4.4-37.5
				l-9.7,134.2 M-48.7-55.8c0-0.1,0-0.1,0-0.2 M-64.5-76.9c-2.4-0.8-5-1.3-7.8-1.3 M-173.8-149.4c-6.3-0.3-12.5,0-18.5,0.8
				 M-276.6-103.8c-1.7,0-3.2,0.7-4.6,2.2 M-287-82.9c0-1,0-2,0.1-3 M-202.5-73.2c0-1.1,0.1-2.1,0.2-3.2"/>
		</g>
		<g>
			<path id="COpenUmbrella_0_Layer0_0_3_STROKES" class="st10" d="M-163.5-87.2l-11.2,120.1l-11.5,112.5"/>
		</g>
	</g>
</g>
<g id="closedumbrella" transform="matrix( 1.5, 0, 0, 1.5, 679,327.6) ">
	<g transform="matrix( 1, 0, 0, 1, 0,0) ">
		<g>
			<g id="CClosedUmbrella_0_Layer0_0_FILL">
				<path class="st4" d="M-189.7,129.2v-0.6L-180-5.5l-4.2,36.7l-11.6,113.2l4.6,0.4L-189.7,129.2 M-205.2,146.8
					C-205.2,146.8-205.3,146.9-205.2,146.8l4.5-0.2c1.3-0.1,2.3,0,2.8,0.2s0.9,0.5,1.1,0.9c0.3,0.4,0.4,0.8,0.4,1.3l11.7-0.6
					c3.2-0.2,5.6-0.3,7.4-0.4c0.6-0.6,1.1-1.1,1.5-1.6c-2.8-0.1-6.1-0.1-9.8-0.2c-2.8,0-5.7,0.1-8.6,0.2c0-0.1-0.1-0.2-0.1-0.3
					C-198.3,146.2-202,146.4-205.2,146.8 M-177-4.8c-0.3-0.1-0.5-0.2-0.8-0.3c-0.6-0.2-1.3-0.3-2.2-0.4l-9.7,134.1L-177-4.8
					 M-180.8-5.6c-0.6,0-1.2,0-1.8,0c-0.4,0-0.9,0.1-1.3,0.1l-14.2,149.6c-0.2,0-0.5,0-0.8,0c-1.7-0.1-2.9-0.1-3.8,0.2
					c-0.9,0.3-1.5,0.7-1.9,1.2c1.6-0.5,3.4-0.8,5.4-0.9c0.9-0.1,2.1-0.1,3.4-0.1c-0.5-0.2-1-0.3-1.6-0.4l1.6,0.1L-184.2,31
					L-180.8-5.6 M-180-5.5c-0.3,0-0.6-0.1-0.8-0.1l-3.4,36.8L-180-5.5z"/>
				<path d="M-204.6,145.6c-1.7,0.4-3.2,1-4.5,1.8c1.2-0.2,2.5-0.4,3.9-0.6c3.2-0.4,6.9-0.6,11-0.7c2.4,0,4.9,0,7.6,0
					c0.3,0,0.7,0,1.1,0.1c3.7,0.1,6.9,0.1,9.8,0.2c0.2-0.3,0.4-0.5,0.6-0.8c-4.5-0.1-8.9-0.3-13.4-0.6c-2.9-0.2-5.3-0.3-7.2-0.4
					c-1.3,0-2.5,0-3.4,0.1C-201.2,144.8-203,145.1-204.6,145.6 M-215.6-7.4l0.5-1.3c-1.9,0-3.4,0.1-4.4,0.2
					c-1.3,0.2-2.5,0.5-3.5,0.9c-0.4,0.2-0.7,0.3-1,0.5c1.3,0.4,3.4,0.3,6.2-0.1C-217.1-7.3-216.3-7.4-215.6-7.4 M-215.1-8.8
					l-0.5,1.3h0.1c0.2,0,0.4-0.1,0.6-0.1c0.8,0,1.5,0,2.1,0.1c0.4,0.1,0.8,0.2,1.1,0.2c0.9,0.3,2,1,3.4,2.1l3.8,2.8
					c1.2,0.9,2.2,1.4,3,1.4l0.4-1.2l0,0l-5.8-4.2c-1.4-1-2.5-1.7-3.5-2c-0.9-0.3-2.4-0.5-4.5-0.5C-214.9-8.8-215.1-8.8-215.1-8.8
					 M-135.8-4.8l0.2,1.4c1.2-0.4,2.4-0.6,3.5-0.8c0.8-0.1,1.5-0.2,2.2-0.3c0.7,0,1.8-0.1,3.2-0.1c1.2-0.1,2.3-0.3,3.1-0.6
					c-2.4-0.7-5-0.8-8-0.4C-132.8-5.6-134.3-5.3-135.8-4.8 M-172.6-2.3l0.2-2c-1.7-1-2.9-1.6-3.6-1.8c-0.3-0.1-0.5-0.1-0.8-0.2
					c-0.8-0.2-1.9-0.4-3.2-0.5c-0.2,0-0.4,0-0.6,0c-1.1-0.1-2.1-0.1-3.1,0c-6.2,0.1-11.9,1.7-17.3,4.8l-0.4,1.2c0.3,0,0.6,0,1-0.1
					s1-0.3,1.5-0.6c2.2-0.9,4.4-1.7,6.6-2.3c2.9-0.8,5.7-1.3,8.4-1.5c0.4,0,0.9-0.1,1.3-0.1c0.6,0,1.2,0,1.8,0c0.3,0,0.6,0,0.8,0.1
					c0.8,0.1,1.5,0.2,2.2,0.4c0.3-0.1,0.5,0,0.8,0.1c0.4,0.2,0.9,0.4,1.5,0.7c0.5,0.3,1.2,0.7,2.1,1.3
					C-173.1-2.6-172.9-2.4-172.6-2.3 M-171.8-4c-0.2-0.1-0.4-0.2-0.6-0.3l-0.2,2c3.3,1.8,6.9,3,10.8,3.7c4.1,0.6,8.1,0.5,12.1-0.4
					c1.4-0.3,4.1-1.2,8.2-2.6c0.5-0.2,1-0.4,1.6-0.6c1.4-0.5,2.8-0.9,4-1.2c0.1,0,0.1,0,0.2,0l-0.2-1.4c-1.1,0.3-2.3,0.6-3.6,1
					c-3.4,1.2-6,2.1-7.7,2.7c-3,0.9-5.6,1.4-7.9,1.5C-160.4,0.8-166-0.7-171.8-4z"/>
				<path class="st6" d="M-198.9-1.6c-0.6,0.3-1.1,0.5-1.5,0.6c1.1-0.1,2.3-0.4,3.8-1c1.1-0.5,2.5-1.1,4.4-1.9
					C-194.5-3.3-196.7-2.5-198.9-1.6 M-219.5-8.6c1-0.1,2.5-0.2,4.4-0.2l47.8-131.7L-223-7.7C-222-8.1-220.8-8.4-219.5-8.6
					 M-214.9-7.5c0.1,0,0.2,0,0.3,0c0.6,0,1.2,0,1.8,0.1C-213.4-7.5-214.1-7.5-214.9-7.5 M-172.4-4.3l8.6-144.6l-13.6,75L-201-2
					c5.4-3,11.1-4.6,17.2-4.8c1,0,2,0,3.1,0c0.2,0,0.4,0,0.6,0c1.3,0.1,2.4,0.3,3.2,0.5c0.4,0.1,0.6,0.1,0.8,0.2
					C-175.4-5.9-174.2-5.3-172.4-4.3 M-124.8-4c0.8,0,1.5-0.2,2.3-0.2l-41.3-144.7l28,144c1.6-0.4,3-0.7,4.3-0.9
					c2.9-0.4,5.6-0.2,8,0.4c-0.8,0.3-1.9,0.5-3.1,0.6c-1.4,0.1-2.5,0.1-3.2,0.1c-0.7,0.1-1.5,0.2-2.2,0.3c1.1-0.1,2.2-0.2,3.5-0.2
					C-127.1-4.4-125.8-4.2-124.8-4 M-141.4-1.6c0.9-0.1,2-0.3,3.3-0.5c0.7-0.5,1.4-0.9,2.3-1.3c-1.3,0.3-2.6,0.8-4,1.2
					C-140.4-2-140.9-1.8-141.4-1.6 M-172.4-4.3c0.2,0.1,0.4,0.2,0.6,0.3c5.8,3.3,11.4,4.7,16.8,4.3c2.3-0.1,4.9-0.6,7.9-1.5
					c1.7-0.5,4.3-1.4,7.7-2.7c1.3-0.4,2.5-0.7,3.6-1l-28-144L-172.4-4.3 M-163.8-148.9l-3.5,8.4L-215.1-8.8c0.1,0,0.2,0,0.3,0
					c2,0,3.5,0.2,4.5,0.5c0.9,0.3,2.1,1,3.5,2l5.8,4.2l0,0l23.7-71.8L-163.8-148.9z"/>
			</g>
		</g>
		<g>
			<path id="CClosedUmbrella_0_Layer0_0_1_STROKES" class="st11" d="M-223-7.7l55.7-132.8l3.5-8.4l41.3,144.7 M-167.3-140.5
				L-215.1-8.8 M-135.8-4.8l-28-144l-8.6,144.5 M-201-2l-0.4,1.2 M-172.4-4.3l-0.2,2 M-135.8-4.8l0.2,1.4 M-215.1-8.8l-0.5,1.3
				 M-201-2l23.7-71.8l13.6-75"/>
		</g>
		<g>
			<path id="CClosedUmbrella_0_Layer0_0_2_STROKES" class="st9" d="M-189.7,128.6v0.6 M-195.8,144.6v-0.2 M-184.2,31.2l4.2-36.7
				l-9.7,134.1"/>
		</g>
		<g>
			<path id="CClosedUmbrella_0_Layer0_0_3_STROKES" class="st8" d="M-189.7,128.6L-177-4.8 M-189.7,129.2l-1.5,15.6 M-198.2,144.1
				l14.3-149.5"/>
		</g>
		<g>
			<path id="CClosedUmbrella_0_Layer0_0_4_STROKES" class="st10" d="M-180.8-5.6l-3.4,36.8l-11.6,113.2"/>
		</g>
	</g>
</g>
<g id="canvaschair" transform="matrix( 1.5, 0, 0, 1.5, 662.05,538.15) ">
	<g transform="matrix( 1, 0, 0, 1, 0,0) ">
		<g transform="matrix( 1, 0, 0, 1, 0,0) ">
			<g>
				<path id="CanvasChair_Assets_Canvaschairframe_0_Layer0_0_1_STROKES" class="st12" d="M-108.5-47.2l-26.9,44.6l15.3,42.8
					 M-150.8,23l-3.5,5.8h28.7L-150.8,23l-12.2-2.8l-18.5-6.5l-15.6-38.9l-22.9,39l65.7,15l-13.1,21.7l-8.3,13.8 M-135.4-2.6
					L-150.8,23 M-174.2-64.3l-3.9,6.7l65.3,13.4 M-178.1-57.7l-19,32.4 M-167.4,50.5L-232.7,35l-5.3,9.1 M-220.1,13.7L-232.7,35"/>
			</g>
		</g>
	</g>
	<g transform="matrix( 1, 0, 0, 1, -0.85,-16.7) ">
		<g transform="matrix( 1, 0, 0, 1, 0,0) ">
			<g>
				<g id="CanvasChair_Assets_Canvaschaircloth_0_Layer0_0_FILL">
					<path class="st13" d="M-124.9-36.2c-0.7-0.2-1.3-0.2-1.7,0c-0.3,0.2-0.6,0.6-0.8,1.1c0,0.1,0,0.2,0,0.2h-0.2
						c0.2,7.2-0.1,13.1-0.9,17.6c-0.4,2.4-1.3,5.9-2.8,10.5c-1.2,3.9-2.1,6.7-2.9,8.6c-1.2,3.1-2.7,5.7-4.3,7.9
						c-0.9,1.2-2.3,3-4.3,5.3c-0.9,1.2-2.2,3.1-3.9,5.6c-1.8,2.5-4.8,5.9-9.2,10.2c-4.5,4.4-8.1,7.5-10.7,9.3
						c-1.9,1.3-3.7,2.2-5.3,2.7c-0.4,0-0.7,0-1,0c-0.5,0.1-0.8,0.2-1.1,0.5c-0.3,0-0.5,0.3-0.4,0.7l0.1,0.1c0,0.1,0.1,0.3,0.2,0.5
						c0.1,0.1,0.2,0.2,0.4,0.3c0,0.2,0,0.4,0.1,0.7c2.1,0.3,3.8,0.4,5.2,0.5c1,0.2,1.9,0.4,2.6,0.6c1,0.4,1.7,0.4,2.2,0.1
						c0.1-0.1,0.4-0.4,0.8-1c0.4-0.4,0.8-0.8,1.1-1.1c0.1-0.1,0.2-0.1,0.4-0.2c0.8-0.5,2.1-1.5,3.8-3.2c0.7-0.7,1.9-1.6,3.4-2.9
						l1.3-1c0.2-0.2,0.4-0.4,0.5-0.5c0.9-0.8,2-1.6,3.1-2.5c3.5-2.8,6.2-5.2,8-7.2c1.5-1.6,3.4-3.9,5.5-6.9
						c4.6-6.4,7.9-11.6,9.9-15.8c1.3-2.9,2.9-7.4,4.8-13.4c0.2-0.7,0.4-1.3,0.5-1.9c0.2-0.1,0.3-0.3,0.5-0.7c0.1-0.4,0.2-1,0.3-1.8
						c0-0.1,0-0.1,0-0.2c0.3-1,0.5-1.8,0.6-2.4c0.1-0.2,0.2-0.5,0.3-0.8c0.3-0.6,0.5-1.1,0.5-1.5c0.1-0.4,0.2-1.1,0.2-1.9l0.1-2.4
						c0.3-3.1,0.7-5.4,1.2-7l1-2c0.1-0.1,0.2-0.3,0.2-0.4l0.1-0.1c0.1-0.1,0.2-0.1,0.2-0.2c0.1,0,0.1-0.1,0.2-0.1
						c0-0.1,0.1-0.1,0.1-0.2c0-0.1,0.1-0.1,0.1-0.2c0.1-0.2,0.2-0.3,0.3-0.5l0,0c0,0,0-0.1,0.1-0.1c0-0.1,0-0.1,0-0.2
						c0.1-0.4-0.1-0.7-0.5-0.8c-0.2-0.1-0.3-0.1-0.5,0l0,0c-0.4-0.3-0.9-0.6-1.5-0.7c-0.3-0.1-1-0.2-1.9-0.2
						C-120.7-35.3-122.7-35.6-124.9-36.2 M-164.5,45.7c-0.1,0.1-0.3,0.1-0.4,0c0.2,0,0.4-0.1,0.6-0.1
						C-164.4,45.6-164.5,45.7-164.5,45.7 M-169.3-45.3c-0.1-0.2-0.2-0.4-0.4-0.5c-0.1,0-0.1,0-0.2,0c-0.2,0-0.4,0-0.7,0
						c-0.1-0.2-0.1-0.3-0.2-0.5h-1.8c-1.3-0.3-2.5-0.5-3.5-0.5c-1.1-0.1-2.1-0.1-2.8,0.2c-0.2,0.1-0.3,0.1-0.5,0.2h-1.2
						c0,0.2-0.1,0.3-0.1,0.5c-0.2,0-0.3,0.1-0.4,0.2c-0.4,0.3-0.5,0.8-0.5,1.5c0.1,1.2,0.5,2.2,1.3,3.1c0.6,2.5,0.9,4,1,4.5
						c0.1,1.4-0.1,3.1-0.7,5.1c-0.3,1.1-0.8,2.8-1.6,5.1c-0.4,1.5-0.9,3.7-1.4,6.8c-1.2,6.1-3.8,11.8-7.8,17c-2,2.6-5,5.7-9,9.4
						c-4.7,4.4-7.9,7.4-9.4,9.1c-1.9,2-3.2,3.3-3.9,3.8c-0.5,0.4-1.2,0.8-2.1,1.2c-1.1,0.3-2.2,0.6-3.2,0.8
						c-2.1,0.5-3.2,0.7-3.3,0.8c-1.2,0.3-2.3,0.8-3.1,1.2c-0.1,0.1-0.2,0.1-0.3,0.2c-0.3,0-0.5,0.1-0.7,0.1
						c-0.9,0.2-1.7,0.4-2.3,0.7c-1.3,0.6-2,1-2.1,1c-0.3,0.1-0.6,0.2-0.8,0.2c-0.3,0.1-0.5,0.2-0.6,0.4c-0.4,0.3-0.5,0.9-0.5,1.7
						l0,0c-0.1,0.4,0,0.8,0.3,1.4c0.1,0.2,0.1,0.4,0.2,0.5s0.1,0.1,0.2,0.2c0.3,0.5,0.6,0.7,1,0.8c0.2,0,0.4,0,0.6,0
						s0.5,0.1,0.8,0.1c2.1,1.1,4.5,1.6,7.1,1.5c0.6-0.1,1-0.2,1.2-0.4c0.1-0.1,0.3-0.2,0.4-0.4c-0.1-0.1-0.1-0.2-0.2-0.4
						c-0.2-0.6,0-1.1,0.6-1.6c0.4-0.4,1-0.7,1.8-0.9c0.5-0.1,2.2-0.5,5.1-1c0.2,0,0.4-0.1,0.6-0.1c0.4-0.2,0.8-0.4,1.3-0.6
						c0.8-0.3,2-0.8,3.6-1.4c1.4-0.5,2.5-1.1,3.4-1.6c0.1-0.1,0.3-0.1,0.4-0.2c0.9-0.8,1.9-1.7,2.9-2.7c2.7-3.1,4.8-5.3,6.3-6.6
						c0.9-0.8,2.4-1.9,4.5-3.5c0-0.1,0.1-0.1,0.2-0.2c1.9-1.8,3.3-3.2,4.3-4.4c3-3.1,5.4-6.1,7.2-9c0.1-0.3,0.3-0.6,0.4-0.9
						c1.4-2.6,2.6-5.2,3.6-7.8c0.3-1,0.6-2.2,0.9-3.5l1.6-5.9l-0.1-0.5c0.1-0.3,0.2-0.5,0.3-0.6l0.1-0.4c0.6-2.4,1.1-4.3,1.4-5.9
						c0.1-0.9,0.2-1.7,0.3-2.6v-0.1c0.3-0.9,0.6-1.7,0.7-2.2c0.1-0.7,0.2-1.8,0.2-3.2c0-3.7-0.1-6.5-0.2-8.3
						C-169.1-44.8-169.2-45.1-169.3-45.3 M-150.1-40.5c0.2-0.2,0.3-0.3,0.4-0.5c0-0.1,0-0.1,0-0.2c0-0.1,0-0.1,0-0.1
						c0-0.1,0-0.2,0-0.2c0-0.2-0.1-0.3-0.3-0.4l-0.4-0.1c-0.2,0-0.4,0-0.6,0c-0.1-0.1-0.3-0.3-0.5-0.4c-1.2-0.6-2.7-1-4.4-1
						c-1.2-0.1-2.7,0-4.7,0.3c-0.7,0.1-1.2,0.2-1.5,0.5c-0.1,0.1-0.1,0.2-0.2,0.4c0.8,1.1,1,2.9,0.5,5.3l-0.8,4.3
						c0,0.2,0,0.4-0.1,0.6c-0.2,1.2-0.4,2.6-0.9,4.4l-0.9,4.9c-0.7,4-1.4,7-1.9,8.9c-1.1,3.2-2.7,6.8-4.8,10.6
						c-1.3,2.3-3.3,5.6-6.2,10c-2.5,3.8-4.4,6.5-5.8,8.1c-1.9,2.3-4,4.4-6.2,6.2c-0.1,0.1-0.2,0.3-0.4,0.4c-0.1,0-0.1,0-0.1,0.1
						c-0.3,0.2-0.6,0.5-1,0.8c-1.5,1-3.6,2.1-6.2,3.4l-6.5,3.1c-1.9,0.7-3.1,1.2-3.6,1.4c-1.6,0.8-2.8,1.7-3.6,2.8l-1.6,0.5
						c-0.1,0-0.1,0-0.2,0.1c-0.5,0.1-0.8,0.3-0.9,0.6c0.4,0.4,0.9,0.7,1.5,1h0.1c0.2,0.1,0.3,0.1,0.5,0.1c0.5,0.1,1.3,0.3,2.4,0.5
						c0.7,0.2,1.7,0.5,2.9,1c1.3,0.5,2.3,0.9,2.9,1c0.3,0.1,0.5,0.1,0.6,0.1c0.2,0.2,0.3,0.2,0.4,0.2c0.3,0,0.4-0.1,0.5-0.4V37
						c-0.1-1.1,0.3-2.1,1-2.9c0.1-0.1,0.3-0.3,0.5-0.4c0.1,0,0.1,0,0.2,0c0.6-0.2,1.3-0.3,2.2-0.5c0.4,0,0.7-0.1,1-0.1
						c4.4-0.9,8.6-2.5,12.6-4.8c1.1-0.6,2.2-1.3,3.5-2.1c0.9-1,2-2.3,3.2-3.9l3.6-4.7c3-3.8,5.1-6.7,6.5-8.6c2.1-3.2,4-6.3,5.5-9.1
						c2.6-4.9,4.9-10.9,6.9-18c-0.1-0.1-0.2-0.3-0.1-0.4l0.3-0.6c0,0,0.1-0.2,0.2-0.4c0.1-0.4,0.2-0.8,0.3-1.2c0.6-2.1,1-4,1.3-5.6
						l0.2-0.2c0.2-0.5,0.3-0.8,0.3-0.9l0.4-0.8l0.1-0.1c0.2-0.4,0.4-1,0.5-2l0.2-1.7c0-2.5,0-4.4,0.2-5.7
						C-151.1-39-150.7-39.9-150.1-40.5 M-134.1-38.2L-134.1-38.2l-0.2-0.1c-0.6-0.2-1.1-0.4-1.4-0.5c-1.4-0.5-3.3-0.7-5.6-0.7
						c-0.7,0-1.2,0.1-1.6,0.2c-0.2,0.1-0.4,0.2-0.5,0.3c-0.3,0-0.5,0-0.7,0c-1.1,3.4-2.1,7-2.9,10.8c-0.6,3.7-1.1,6.6-1.5,8.9v0.1
						v0.1c-0.1,0.4-0.1,0.8-0.2,1.1c-0.1,1.1-0.2,2.7-0.3,4.9c-0.2,1.9-0.4,3.5-0.8,4.8c-0.5,1.8-1.6,4.2-3.3,7.1l-7.6,13.7
						c-2.4,4.3-4.5,7.4-6.2,9.2c-1.4,1.5-3.3,3-5.8,4.6c-0.1,0.1-0.1,0.2-0.2,0.4s-0.2,0.2-0.3,0.4c-1,0.6-1.9,1.3-2.7,2.1
						c-2.9,1.9-6.6,4.3-11.2,7.1c-0.9,0.5-1.5,0.9-2,1.1c-1.2,0.3-2.1,0.5-2.7,0.7c-0.4,0.1-0.8,0.3-1,0.6c-0.2,0.2-0.3,0.3-0.3,0.5
						c-0.1,0.2-0.1,0.3,0,0.5c0.1,0.4,0.4,0.7,0.9,0.9h0.1c0.2,0.1,0.4,0.1,0.7,0.2c2.7,0.4,5.2,1,7.7,1.7c1.4,0.4,2.3,0.5,2.9,0.4
						c0.4-0.1,0.7-0.2,0.8-0.3l0,0c0.1-0.2,0.2-0.5,0.4-1.1c0.1-0.6,0.6-1.3,1.5-2.1c0-0.1,0.1-0.1,0.1-0.2c2.1-0.8,4.2-2.6,6.2-5.3
						c3.1-4,4.9-6.2,5.4-6.6c0.4-0.4,2.1-1.7,4.9-3.9c5.8-4.3,10.2-8.8,13.3-13.5c2-3.2,3.7-6.9,5-11.1c1.1-3.4,2-7.4,2.7-11.9
						l1.8-12.2c0.7-4.8,1.5-8.8,2.2-12c0.6,0,1.2,0.1,1.8,0.1c0.8,0.2,1.4,0.4,2,0.5c0.4,0,0.6,0,0.8-0.2c0-0.1,0.1-0.1,0.1-0.2
						c0.1-0.2,0-0.4-0.4-0.5c-0.1-0.1-0.4-0.1-0.7-0.1C-133.1-37.9-133.6-38-134.1-38.2z"/>
					<path class="st4" d="M-162.4-42.3c-0.1-0.2-0.2-0.3-0.3-0.5c-0.2-0.2-0.6-0.4-1-0.7c-0.5-0.3-0.8-0.5-1-0.6
						c-0.9-0.7-1.2-1.4-0.9-2.1l-4.2-0.1c0,0.2,0,0.3,0,0.5c0.2,0.1,0.3,0.2,0.4,0.5c0.1,0.2,0.2,0.5,0.2,0.9
						c0.2,1.8,0.2,4.6,0.2,8.3c0,1.4-0.1,2.5-0.2,3.2c-0.1,0.5-0.3,1.2-0.7,2.2v0.1c-0.1,0.9-0.2,1.7-0.3,2.6
						c-0.2,1.2-0.4,2.5-0.6,3.7c-0.1,0.6-0.3,1.3-0.4,2h-0.1c0.1,0,0,0.1-0.1,0.3l-0.1,0.2l-0.1,0.1l0,0c-0.1,0.1-0.2,0.3-0.3,0.6
						l0.1,0.5v0.7c0,0.1,0.1,0.2,0.2,0.3c-0.8,2.8-1.7,5.6-2.7,8.4c-1,2.6-2.2,5.2-3.5,7.7c-0.2,0.3-0.3,0.6-0.4,0.9
						c-2.1,4-4.4,7.2-6.9,9.6c-1,1-2.6,2.3-4.6,3.8c-0.1,0-0.1,0.1-0.2,0.2c-2.2,1.6-3.7,2.8-4.5,3.5c-1.5,1.4-3.6,3.6-6.3,6.6
						c-1,1-1.9,1.9-2.9,2.7c-1.5,1.2-2.9,2.1-4.3,2.6c-1.1,0.5-2.6,0.9-4.4,1.2c-0.2,0-0.4,0.1-0.6,0.1c-2.9,0.5-4.6,0.9-5.1,1
						c-0.8,0.2-1.4,0.5-1.8,0.9c-0.6,0.5-0.8,1-0.6,1.6c0,0.1,0.1,0.2,0.2,0.4c0.3,0.4,0.8,0.7,1.5,1c2,0.7,4,1.1,6.1,1
						c0.1,0,0.1-0.1,0.2-0.1l1.6-0.5c0.8-1.1,2-2,3.6-2.8c0.5-0.2,1.7-0.7,3.6-1.4l6.5-3.1c2.6-1.3,4.7-2.4,6.2-3.4
						c0.5-0.4,1-0.8,1.5-1.2c2.2-1.8,4.3-3.9,6.2-6.2c1.4-1.6,3.3-4.3,5.8-8.1c2.9-4.4,4.9-7.7,6.2-10c2.1-3.8,3.7-7.4,4.7-10.7
						c0.6-1.9,1.2-4.8,1.9-8.9l0.9-4.9l0.9-5l0.8-4.3C-161.4-39.4-161.6-41.2-162.4-42.3 M-149.7-41c-0.1,0.1-0.2,0.3-0.4,0.5
						c-0.6,0.6-1,1.5-1.1,2.8c-0.2,1.2-0.2,3.1-0.2,5.7l-0.2,1.7c-0.1,0.9-0.3,1.5-0.5,2l-0.1,0.1c-0.1,1.5-0.3,3-0.5,4.5h-0.1
						c-0.2,0-0.4,0.2-0.5,0.6l-0.1,0.2h-0.1c-0.2,0.2-0.3,0.5-0.3,0.8l-0.2,0.6v0.5v0.1l-0.3,0.4c-0.1,0.4-0.2,0.7-0.3,0.9
						c-0.1,0.2-0.2,0.4-0.2,0.4l-0.3,0.6c-0.1,0.2,0,0.3,0.1,0.4c0,0,0,0.1,0.1,0.1c0.1,0.1,0.3,0.1,0.5,0l0.2-0.3l0.6-1.1
						c-0.3,1.3-0.6,2.5-1,3.8c-0.9,3-2.6,7.2-4.9,12.4l-3.8,8.9c-1.6,3.8-3,6.6-4.2,8.2c-2,3.1-5.4,6.4-10.1,9.9
						c-1.2,0.9-2.4,1.7-3.5,2.4c-1.2,0.8-2.4,1.5-3.5,2.1c-4,2.3-8.2,3.9-12.6,4.8c-1.1,0.2-2.1,0.4-3.2,0.5c-0.1,0-0.1,0-0.2,0
						c-0.2,0.1-0.3,0.3-0.5,0.4c-0.7,0.8-1.1,1.8-1,2.9h0.1c0.4,0.2,1,0.3,1.8,0.3c0.3,0.1,0.6,0.3,0.8,0.5c0.2,0.3,0.3,0.5,0.1,0.8
						c0.6-0.1,1.4-0.2,2.6-0.2V39c1.4,0.1,2.5,0.2,3.5,0.1c0-0.2,0.1-0.3,0.3-0.5s0.6-0.4,1-0.6c0.6-0.2,1.5-0.4,2.7-0.7
						c0.5-0.2,1.1-0.5,2-1.1c4.6-2.9,8.4-5.2,11.2-7.1c0.8-0.8,1.7-1.5,2.7-2.1c0.1-0.2,0.2-0.3,0.3-0.4c0.1-0.1,0.1-0.2,0.2-0.4
						c2.5-1.6,4.4-3.2,5.8-4.6c1.7-1.8,3.8-4.9,6.2-9.2l7.6-13.7c1.7-2.9,2.8-5.3,3.3-7.1c0.4-1.3,0.6-2.9,0.8-4.8
						c0.1-2.2,0.2-3.8,0.3-4.9c0-0.3,0.1-0.7,0.2-1.1c0-0.1,0-0.1,0-0.1c0-0.1,0-0.1,0-0.1c0.1-1,0.2-2.2,0.5-3.6
						c0.3-1.8,0.6-3.6,1-5.3c0.9-3.7,1.8-7.3,2.9-10.7c0.1-0.2,0.1-0.4,0.2-0.7c-0.6,0.1-1.2,0-1.9-0.2c-0.8-0.3-1.4-0.5-1.8-0.7
						C-148.4-40.9-149.1-41-149.7-41 M-134.5-37.3c-0.6,0-1.2-0.1-1.8-0.1c-0.8,3.2-1.5,7.2-2.2,12l-1.8,12.2
						c-0.7,4.6-1.6,8.5-2.7,11.9c-1.3,4.2-3,7.9-5,11.1c-3,4.8-7.5,9.3-13.3,13.5c-2.8,2.1-4.5,3.4-4.9,3.9
						c-0.4,0.4-2.2,2.6-5.4,6.6c-2.1,2.7-4.2,4.5-6.2,5.3c-0.1,0-0.1,0.1-0.1,0.2c-0.9,0.8-1.4,1.5-1.5,2.1s-0.3,0.9-0.4,1.1
						c2.4,0.5,4.4,0.8,6,0.7c0.3-0.2,0.6-0.4,1.1-0.5c0.3,0,0.6,0,1,0c1.6-0.5,3.4-1.4,5.3-2.7c2.6-1.8,6.1-4.9,10.7-9.3
						c4.4-4.3,7.4-7.7,9.2-10.2c1.6-2.5,2.9-4.4,3.9-5.6c2-2.3,3.5-4.1,4.3-5.3c1.6-2.1,3.1-4.8,4.3-7.9c0.6-1.9,1.6-4.7,2.7-8.6
						c1.4-4.5,2.3-8,2.8-10.5c0.8-4.5,1.1-10.4,0.9-17.6c0-0.4,0-0.8,0-1.2c-1.3-0.4-2.7-0.6-4.1-0.8c-0.2,0.1-0.4,0.2-0.8,0.2
						C-133.1-36.9-133.7-37.1-134.5-37.3 M-132.9-24.8c-0.1,0-0.1,0-0.2,0c0-0.5-0.1-0.9-0.1-1.4h1.5c0.1,0.5,0.1,1.1,0.1,1.6
						c-0.2-0.1-0.4-0.1-0.7-0.2C-132.5-24.8-132.7-24.8-132.9-24.8 M-133.4-19.8c0.1,0.1,0.2,0.1,0.3,0.1c0.2,0.5,0.3,0.9,0.4,1.3
						v0.1c-0.2,0.7-0.4,1.4-0.5,1.9c-0.1,0.7-0.1,1.2-0.2,1.5c0,0.2-0.1,0.5-0.3,0.9c-0.1,0.4-0.1,0.7,0,0.9l-0.5,0.3
						c0.1,0.2,0,0.3-0.1,0.4c-0.1,0.2-0.2,0.3-0.4,0.3c-0.1-1.1-0.1-2.2,0.1-3.3c0.1-0.6,0.2-1.1,0.2-1.4c0.1-0.5,0.1-1,0.1-1.4
						l0.5-0.2c0-0.2,0-0.8,0.1-1.6C-133.5-19.8-133.5-19.8-133.4-19.8z"/>
				</g>
			</g>
		</g>
	</g>
</g>
<g id="woodchair" transform="matrix( 1, 0, 0, 1, 656.1,540) ">
	<g transform="matrix( 1, 0, 0, 1, 0,0) ">
		<g>
			<g id="woodchairnew_0_Layer0_0_FILL">
				<path class="st14" d="M-321.6,9.6l-16.6-1.2l21.7,17.7l5.7-7.6L-321.6,9.6 M-299,27.9l11.8-15.5l-18-1.4l-5.5,7.5l-5.7,7.6
					l-42.6,58h17.2l4.2-5.3l3.2-4.2l29.8-39.1L-299,27.9 M-307.9,26.9c0.3,0,0.6,0,0.9,0.1c0.2,0.1,0.4,0.2,0.5,0.2
					c0.4,0.2,0.6,0.5,0.6,0.9c0,0.1,0,0.2-0.1,0.2c-0.1,0.2-0.2,0.4-0.5,0.6s-0.8,0.4-1.4,0.4s-1-0.1-1.4-0.4
					c-0.3-0.2-0.5-0.5-0.5-0.9l0,0c0-0.3,0.2-0.6,0.5-0.9c0.1,0,0.2-0.1,0.3-0.1C-308.7,26.9-308.3,26.9-307.9,26.9 M-261.6-67.4
					h-2.8c-3.4,0-6.3-0.8-8.6-2.2c-0.5-0.3-0.9-0.6-1.3-1h-0.7L-288.1-15h13.2L-261.6-67.4 M-209.5,4.8l13.5-5.4l-101-8.5
					c-5,1.4-10.4,2.9-16.1,4.5L-209.5,4.8 M-223,10.1l13.4-5.3l-103.5-9.4c-6.3,1.8-12.9,3.7-20,5.8L-223,10.1 M-253.2,83.6l2.6-3.7
					l-84-5.2l-3.2,4.2L-253.2,83.6 M-244.1,61.2c-0.8-0.2-2.2-0.2-4-0.2l-9.4-0.1c-0.1,0-0.3,0-0.4,0l-0.5-0.4L-299,27.9l-5.8,7.6
					l45.5,37.3l6.5-4.2l1.1-0.8V68c0.5-0.3,0.9-0.7,1.3-1l-3.4-2.7h-6.6c-0.8,0-1.5-0.4-2.2-1.2c-0.6-0.7-0.9-1.6-0.9-2.7
					c0,1.1,0.3,2,0.9,2.7c0.6,0.8,1.4,1.2,2.2,1.2h6.6l-0.6-0.6h3.7c0.5,0.1,0.8,0.1,1.1,0c0.6,0,1-0.1,1.2-0.2
					c0.1-0.1,0.2-0.1,0.3-0.2c0.2,0,0.7,0,1.4,0c1.2,0.1,2.3-0.2,3.2-0.8c0.4-0.4,0.5-0.7,0.4-0.9
					C-243.1,61.4-243.4,61.3-244.1,61.2 M-223,60.5l-2.5,3.9h35.1l-4.1-3.9H-223 M-233.5,14.2l10.5-4.1l-110.1-8.9
					c-6.4,1.9-13.2,3.8-20.2,5.9l15.1,1.2l16.6,1.2l16.3,1.3l18,1.4l39.5,3.1l9.3,0.7L-233.5,14.2 M-216.2,30.4l-0.6-0.5l-4.5,6.5
					l4.5-6.5l-16.7-15.7l-5,1.9l-9.3-0.7l26.2,22.8L-216.2,30.4 M-170.7,82.8l8.3-5.2c-0.3-0.4-0.7-0.9-1.1-1.4l-0.8-1.1v-0.8
					c-0.2,0.6-0.3,1.3-0.6,2.2l0.9,0.8l-0.9-0.8c0,0.1-0.1,0.2-0.1,0.3l-2.8-3.1c-10.6-7.2-19.6-15.8-27.2-26l-12-11.4l0,0l-5.1,7.7
					l17.5,16.5l4.1,3.9L-170.7,82.8 M-166.2-68.8c0.5-0.2,0.9-0.4,1.3-0.7l-109.4-1.2c0.4,0.3,0.8,0.7,1.3,1
					c2.4,1.5,5.2,2.2,8.6,2.2h2.8h82.9h5.6C-170.5-67.4-168.2-67.9-166.2-68.8 M-164.8-69.4c0.1-0.1,0.3-0.2,0.4-0.2
					c2.4-1.5,3.5-3.3,3.5-5.5h-115.6c0,1.7,0.8,3.2,2.2,4.5L-164.8-69.4 M-171-72.9c0.2,0.1,0.3,0.2,0.4,0.3
					c0.1,0.1,0.1,0.2,0.1,0.3c0,0.2-0.2,0.5-0.5,0.7s-0.7,0.3-1.1,0.3c-0.4,0-0.8-0.1-1.1-0.3c-0.3-0.2-0.4-0.4-0.4-0.7
					c0-0.1,0-0.2,0.1-0.3c0.1-0.1,0.2-0.2,0.3-0.3c0.3-0.2,0.7-0.2,1.1-0.2C-171.7-73.1-171.3-73.1-171-72.9 M-267.4-73.2
					c0,0.2-0.2,0.4-0.5,0.6c-0.3,0.2-0.6,0.3-1,0.3s-0.8-0.1-1.1-0.3c-0.3-0.2-0.4-0.4-0.4-0.6c0-0.3,0.1-0.5,0.4-0.7
					s0.7-0.3,1.1-0.3s0.7,0.1,1,0.3C-267.5-73.7-267.4-73.5-267.4-73.2 M-163.3-84.3c-0.3-0.2-0.7-0.5-1.1-0.8
					c-2.4-1.5-5.2-2.3-8.6-2.2h-91.3c-3.4,0-6.3,0.7-8.6,2.2c-0.4,0.3-0.7,0.5-1,0.8H-163.3 M-160.9-79.6c0-1.8-0.8-3.4-2.4-4.7
					h-110.6c-1.7,1.3-2.6,2.9-2.6,4.7H-160.9 M-170.3-82.8c0,0.2-0.1,0.4-0.3,0.5c-0.2,0.1-0.5,0.2-0.8,0.2s-0.6-0.1-0.8-0.2
					c-0.2-0.1-0.3-0.3-0.3-0.5s0.1-0.4,0.3-0.5c0.2-0.1,0.5-0.2,0.8-0.2c0.4,0,0.7,0.1,0.8,0.2S-170.3-83-170.3-82.8 M-268.1-83.2
					c0.2-0.1,0.4-0.2,0.7-0.2c0.3,0,0.5,0.1,0.7,0.2c0.2,0.1,0.3,0.3,0.3,0.4s-0.1,0.3-0.3,0.5c-0.2,0.1-0.4,0.2-0.7,0.2
					c-0.3,0-0.5-0.1-0.7-0.2c-0.2-0.1-0.3-0.3-0.3-0.5S-268.2-83.1-268.1-83.2 M-160.9-75.2v-4.4h-115.6v4.4H-160.9 M-191.8-2.2
					l-4.2,1.6l-20.8,30.5l0.6,0.5l-5.4,7.9l0.4,0.4l-3,3.1l-2.4,2.6l-10.9,16l-2.6,3.9l-10.5,15.5l-2.6,3.7l-2.5,3.8h14.7l15.4-23
					l2.5-3.9l11-16.5l5.1-7.7l21.9-32.7h-7.7l0.6-2.9l0.1-0.5L-191.8-2.2 M-215.7,34.8c0.1,0,0.2-0.1,0.3-0.1
					c0.3-0.2,0.7-0.3,1.1-0.3c0.3,0,0.6,0,0.9,0.1c0.2,0.1,0.4,0.2,0.5,0.2c0.4,0.2,0.6,0.5,0.6,0.9c0,0.1,0,0.2-0.1,0.2
					c-0.1,0.2-0.2,0.4-0.5,0.6c-0.3,0.2-0.8,0.4-1.4,0.4s-1-0.1-1.5-0.4c-0.3-0.2-0.5-0.5-0.5-0.9C-216.2,35.3-216,35-215.7,34.8
					 M-191.8-2.2l0.8-6.7l-83.9-6.1c-6.6,1.7-13.9,3.7-22,5.9L-196-0.6L-191.8-2.2 M-191-8.9l-0.8,6.6l0.2-0.1l0.2-0.1l-0.8,3.1
					l-0.6,2.9h7.7h5.4l1.3-6.5v-4.6V-8v-0.9V-8l0.9,0.1l11.3-60.8c-2,0.9-4.3,1.3-6.9,1.3h-5.6l-11.5,58c-0.1,0-0.2,0-0.3,0
					c0,0.1,0,0.1-0.1,0.1C-190.8-9.2-190.9-9.1-191-8.9z"/>
				
					<radialGradient id="SVGID_1_" cx="-1572.2" cy="-432" r="3.1" gradientTransform="matrix(1 0 0 1 1263.55 460.45)" gradientUnits="userSpaceOnUse">
					<stop  offset="0" style="stop-color:#FFFFFF"/>
					<stop  offset="1" style="stop-color:#000000"/>
				</radialGradient>
				<path class="st15" d="M-307,27c-0.3-0.1-0.6-0.1-0.9-0.1c-0.4,0-0.8,0.1-1.1,0.3c-0.1,0-0.2,0.1-0.3,0.1
					c-0.3,0.2-0.5,0.5-0.5,0.9l0,0c0,0.3,0.2,0.6,0.5,0.9c0.4,0.2,0.9,0.4,1.4,0.4c0.6,0,1.1-0.1,1.4-0.4c0.3-0.2,0.4-0.4,0.5-0.6
					c0.1-0.1,0.1-0.1,0.1-0.2c0-0.4-0.2-0.7-0.6-0.9C-306.6,27.2-306.8,27.1-307,27z"/>
				<path class="st4" d="M-224.2,41.8l3-3.1l-0.4-0.4L-224.2,41.8 M-177.5-7.9l-0.9-0.1v0.4L-177.5-7.9 M-178.4-3l0.9-4.9l-0.9,0.3
					V-3 M-191.4-2.4l-0.2,0.1l-0.5,2.5l-0.1,0.5L-191.4-2.4 M-191.6-2.3l-0.2,0.1l-0.3,2.4L-191.6-2.3z"/>
				
					<radialGradient id="SVGID_2_" cx="-1572.2" cy="-432" r="2.15" gradientTransform="matrix(1 0 0 1 1303.55 358.95)" gradientUnits="userSpaceOnUse">
					<stop  offset="0" style="stop-color:#FFFFFF"/>
					<stop  offset="1" style="stop-color:#000000"/>
				</radialGradient>
				<path class="st16" d="M-267.9-72.6c0.3-0.2,0.5-0.4,0.5-0.6c0-0.3-0.2-0.5-0.5-0.7c-0.3-0.2-0.6-0.3-1-0.3s-0.8,0.1-1.1,0.3
					c-0.3,0.2-0.4,0.4-0.4,0.7c0,0.2,0.1,0.4,0.4,0.6s0.7,0.3,1.1,0.3C-268.4-72.2-268.1-72.4-267.9-72.6z"/>
				
					<radialGradient id="SVGID_3_" cx="-1572.2" cy="-432" r="1.8" gradientTransform="matrix(1 0 0 1 1400.05 359.95)" gradientUnits="userSpaceOnUse">
					<stop  offset="0" style="stop-color:#FFFFFF"/>
					<stop  offset="1" style="stop-color:#000000"/>
				</radialGradient>
				<path class="st17" d="M-170.6-72.6c-0.1-0.1-0.2-0.2-0.4-0.3c-0.3-0.2-0.7-0.2-1.1-0.2c-0.4,0-0.8,0.1-1.1,0.2
					c-0.1,0.1-0.2,0.2-0.3,0.3c-0.1,0.1-0.1,0.2-0.1,0.3c0,0.2,0.1,0.5,0.4,0.7s0.7,0.3,1.1,0.3c0.4,0,0.8-0.1,1.1-0.3
					c0.3-0.2,0.5-0.4,0.5-0.7C-170.5-72.4-170.5-72.5-170.6-72.6z"/>
				
					<radialGradient id="SVGID_4_" cx="-1572.2" cy="-432" r="1.6" gradientTransform="matrix(1 0 0 1 1304.55 348.95)" gradientUnits="userSpaceOnUse">
					<stop  offset="0" style="stop-color:#FFFFFF"/>
					<stop  offset="1" style="stop-color:#000000"/>
				</radialGradient>
				<path class="st18" d="M-267.4-83.4c-0.3,0-0.5,0.1-0.7,0.2c-0.2,0.1-0.3,0.3-0.3,0.4s0.1,0.3,0.3,0.5c0.2,0.1,0.4,0.2,0.7,0.2
					c0.3,0,0.5-0.1,0.7-0.2c0.2-0.1,0.3-0.3,0.3-0.5s-0.1-0.3-0.3-0.4C-266.9-83.3-267.1-83.4-267.4-83.4z"/>
				
					<radialGradient id="SVGID_5_" cx="-1572.2" cy="-432" r="1.65" gradientTransform="matrix(1 0 0 1 1400.55 348.95)" gradientUnits="userSpaceOnUse">
					<stop  offset="0" style="stop-color:#FFFFFF"/>
					<stop  offset="1" style="stop-color:#000000"/>
				</radialGradient>
				<path class="st19" d="M-170.6-82.2c0.2-0.1,0.3-0.3,0.3-0.5s-0.1-0.4-0.3-0.5c-0.2-0.1-0.5-0.2-0.8-0.2s-0.6,0.1-0.8,0.2
					c-0.2,0.1-0.3,0.3-0.3,0.5s0.1,0.4,0.3,0.5c0.2,0.1,0.5,0.2,0.8,0.2C-171.1-82.1-170.8-82.1-170.6-82.2z"/>
				
					<radialGradient id="SVGID_6_" cx="-1572.2" cy="-432" r="3.05" gradientTransform="matrix(1 0 0 1 1357.55 468.45)" gradientUnits="userSpaceOnUse">
					<stop  offset="0" style="stop-color:#FFFFFF"/>
					<stop  offset="1" style="stop-color:#000000"/>
				</radialGradient>
				<path class="st20" d="M-215.3,34.7c-0.1,0-0.2,0.1-0.3,0.1c-0.3,0.2-0.5,0.5-0.5,0.9s0.2,0.7,0.5,0.9c0.4,0.2,0.9,0.4,1.5,0.4
					c0.6,0,1.1-0.1,1.4-0.4c0.3-0.2,0.4-0.4,0.5-0.6c0.1-0.1,0.1-0.2,0.1-0.2c0-0.4-0.2-0.7-0.6-0.9c-0.1-0.1-0.3-0.2-0.5-0.2
					c-0.3-0.1-0.6-0.1-0.9-0.1C-214.6,34.4-215,34.5-215.3,34.7z"/>
			</g>
		</g>
		<g>
			<path id="woodchairnew_0_Layer0_0_1_STROKES" class="st21" d="M-191-8.9l-0.8,6.6l0.2-0.1l0.2-0.1l-0.8,3.1l-0.6,2.9h7.7h5.4
				l1.3-6.5v-4.6V-8v-0.9 M-191.8-2.2l-4.2,1.6l-20.8,30.5l0.6,0.5l-5.4,7.9l0.4,0.4l-3,3.1l-2.4,2.6l-10.9,16l-2.6,3.9l-10.5,15.5
				l-2.6,3.7l-2.5,3.8h14.7l15.4-23l2.5-3.9l11-16.5l5.1-7.7l21.9-32.7 M-190.2-9.4l11.5-58h-82.9L-274.9-15l83.9,6.1 M-274.2-70.7
				c-1.5-1.3-2.2-2.8-2.2-4.5v-4.4c0-1.8,0.8-3.4,2.6-4.7c0.3-0.2,0.6-0.5,1-0.8c2.4-1.5,5.2-2.3,8.6-2.2h91.2
				c3.4,0,6.2,0.7,8.6,2.2c0.4,0.3,0.8,0.5,1.1,0.8c1.6,1.3,2.4,2.9,2.4,4.7v4.4c0,2.1-1.2,4-3.5,5.5c-0.1,0.1-0.3,0.2-0.4,0.2
				c-0.4,0.3-0.8,0.5-1.3,0.7l-11.4,60.9l-0.9,4.9 M-166.2-68.8c-2,0.9-4.3,1.3-6.9,1.3h-5.6 M-178.4-8l0.9,0.1l-0.9,0.3
				 M-162.4,77.7l-8.3,5.2l-19.8-18.6h-35.1 M-167.7,73.8l2.9,2.8 M-194.9,47.8L-207,36.3l0,0 M-164.8,76.6l0.9,0.8 M-192.2,0.6
				l0.1-0.5l0.3-2.4 M-196-0.6l-13.5,5.4l-13.5,5.3l-10.5,4.1l16.8,15.7l-4.5,6.5 M-233.5,14.2l-5,1.9l-9.3-0.7l26.2,22.8l-2.6,3.5
				 M-226.6,44.4l1.8-2.6 M-254.3,63.7l0.6,0.6h13.6 M-258.5,60.5l0.5,0.4 M-251.6,67.8l-1.1,0.8c0.3-0.2,0.7-0.4,1.1-0.6
				 M-253.7,64.3l3.4,2.7c-0.4,0.3-0.9,0.7-1.3,1 M-252.8,68.7l-6.5,4.2l-45.6-37.3l-29.8,39.1l84,5.2 M-258.5,60.5h21 M-190.5,64.3
				l-4.1-3.9H-223 M-194.6,60.5L-212.1,44 M-194.9,47.8l27.2,26 M-192.1,0.2l0.5-2.5 M-261.6-67.4h-2.8c-3.4,0-6.3-0.8-8.6-2.2
				c-0.5-0.3-0.9-0.6-1.3-1 M-288.1-15l13.2-55.7 M-297-9.1c8.1-2.3,15.4-4.2,22-5.9 M-289-11.8l0.8-3.2 M-253.2,83.6l-84.6-4.8
				l-4.2,5.3h-17.2l42.6-58l-21.6-17.7l-15.1-1.2c7-2.1,13.8-4.1,20.2-5.9c7-2.1,13.7-4,20-5.8c5.7-1.7,11.1-3.2,16.1-4.6
				 M-247.8,15.4l-39.5-3.1L-299,27.9l40.5,32.6 M-321.6,9.6l10.8,8.8l5.5-7.5L-321.6,9.6l-16.6-1.2 M-316.5,26.1l5.7-7.6
				 M-334.6,74.6l-3.2,4.2 M-263.3,60.5c0,1.1,0.3,2,0.9,2.7c0.6,0.8,1.4,1.2,2.2,1.2h6.6 M-287.2,12.4l-18-1.4 M-299,27.9l-5.8,7.6
				"/>
		</g>
		<g>
			<path id="woodchairnew_0_Layer0_0_2_STROKES" class="st9" d="M-170.3-82.8c0,0.2-0.1,0.4-0.3,0.5c-0.2,0.1-0.5,0.2-0.8,0.2
				s-0.6-0.1-0.8-0.2c-0.2-0.1-0.3-0.3-0.3-0.5s0.1-0.4,0.3-0.5c0.2-0.1,0.5-0.2,0.8-0.2c0.4,0,0.7,0.1,0.8,0.2
				S-170.3-83-170.3-82.8z M-170.5-72.2c0,0.2-0.2,0.5-0.5,0.7s-0.7,0.3-1.1,0.3c-0.4,0-0.8-0.1-1.1-0.3c-0.3-0.2-0.4-0.4-0.4-0.7
				c0-0.1,0-0.2,0.1-0.3c0.1-0.1,0.2-0.2,0.3-0.3c0.3-0.2,0.7-0.2,1.1-0.2c0.4,0,0.8,0.1,1.1,0.2c0.2,0.1,0.3,0.2,0.4,0.3
				C-170.5-72.5-170.5-72.4-170.5-72.2z M-216.2,35.7c0,0.4,0.2,0.7,0.5,0.9c0.4,0.2,0.9,0.4,1.5,0.4c0.6,0,1.1-0.1,1.4-0.4
				c0.3-0.2,0.4-0.4,0.5-0.6c0.1-0.1,0.1-0.2,0.1-0.2c0-0.4-0.2-0.7-0.6-0.9c-0.1-0.1-0.3-0.2-0.5-0.2c-0.3-0.1-0.6-0.1-0.9-0.1
				c-0.4,0-0.8,0.1-1.1,0.3c-0.1,0-0.2,0.1-0.3,0.1C-216,35-216.2,35.3-216.2,35.7z M-266.4-82.8c0,0.2-0.1,0.3-0.3,0.5
				c-0.2,0.1-0.4,0.2-0.7,0.2c-0.3,0-0.5-0.1-0.7-0.2c-0.2-0.1-0.3-0.3-0.3-0.5s0.1-0.3,0.3-0.4c0.2-0.1,0.4-0.2,0.7-0.2
				c0.3,0,0.5,0.1,0.7,0.2C-266.5-83.1-266.4-83-266.4-82.8z M-267.4-73.2c0,0.2-0.2,0.4-0.5,0.6c-0.3,0.2-0.6,0.3-1,0.3
				s-0.8-0.1-1.1-0.3c-0.3-0.2-0.4-0.4-0.4-0.6c0-0.3,0.1-0.5,0.4-0.7s0.7-0.3,1.1-0.3s0.7,0.1,1,0.3
				C-267.5-73.7-267.4-73.5-267.4-73.2z M-274.9-70.7h0.7 M-297-9.1l101,8.5 M-309.8,28.1c0,0.3,0.2,0.6,0.5,0.9
				c0.4,0.2,0.9,0.4,1.4,0.4c0.6,0,1.1-0.1,1.4-0.4c0.3-0.2,0.4-0.4,0.5-0.6c0.1-0.1,0.1-0.1,0.1-0.2c0-0.4-0.2-0.7-0.6-0.9
				c-0.1-0.1-0.3-0.1-0.5-0.2c-0.3-0.1-0.6-0.1-0.9-0.1c-0.4,0-0.8,0.1-1.1,0.3c-0.1,0-0.2,0.1-0.3,0.1
				C-309.7,27.5-309.8,27.8-309.8,28.1L-309.8,28.1z M-274.2-70.7l109.4,1.2 M-333.1,1.2l110.1,8.9 M-313.1-4.6l103.6,9.4
				 M-276.5-75.2h115.6 M-276.5-79.6h115.6 M-273.9-84.3h110.6"/>
		</g>
	</g>
</g>
<g id="graylatexsmalloval" transform="matrix( 1.5, 0, 0, 1.5, 754.15,355.2) ">
	<g transform="matrix( 1, 0, 0, 1, 0,0) ">
		<g>
			<g id="CLatexBalloonGray_0_Layer0_0_FILL">
				<path d="M-172.2,0.5h-0.6l0.1,20.9c0,0.4,0,0.8,0,1.1c0,5.1-0.2,8.8-0.4,11.1c-0.4,4-1.3,7.3-2.6,9.9c-0.8,1.4-2,3.2-3.8,5.5
					c-1.7,2-3.8,4.4-6.3,7.2c-2.8,3.1-5,5.4-6.4,7c-1.9,2-3,3.7-3.3,5c-0.3,0.9-0.4,2.2-0.3,3.8l0.1,4.2c0,0.5,0.1,1,0.2,1.5V78
					l0.1,0.1c0,0.1,0,0.1,0,0.2c0,0.3,0.1,0.5,0.2,0.6c0.1,0.1,0.4,0.1,0.7,0.2l0.3,0.3l0.4,0.5c0.2,0.3,0.4,0.6,0.5,1.1
					c0.4-0.1,0.7-0.3,0.8-0.5l-0.1-0.5c-0.1-0.2-0.2-0.4-0.2-0.6v-0.1v-0.2l-0.2-0.4l0,0c-0.1-0.1-0.2-0.4-0.5-0.7l-0.5-0.5
					c-0.1-0.1-0.3-0.2-0.4-0.2c-0.1,0-0.1,0-0.1,0c-0.3-1.5-0.4-3.1-0.4-4.6c0.1-2,0.4-3.6,0.9-4.8c0.5-1.1,1.6-2.6,3.2-4.5
					c0,0.1,0,0.3,0.1,0.4l0.5,0.7c0.4,0.4,0.7,0.6,0.8,0.7l0.6,0.2c0.5,0.1,1.1,0.4,1.6,0.8l0.2-0.5c-0.2-0.3-0.7-0.7-1.4-1.3
					c-0.6-0.5-1.1-0.9-1.3-1.3c-0.1-0.2-0.2-0.3-0.3-0.4h-0.1l6-6.8c3.5-3.9,6-7,7.5-9.3c1.2-1.7,2.1-3.5,2.8-5.4
					c0.8-1.8,1.3-3.8,1.7-5.9c0.3-1.9,0.5-5.1,0.5-9.7v-25L-172.2,0.5 M-171.8,0.5L-171.8,0.5c-0.2,0-0.3,0-0.4,0H-171.8
					 M-172.6-2.7c0.3,0.5,0.6,1,0.8,1.4v-1L-172.6-2.7 M-171.8-0.3l-0.2-0.2l0.2,0.9V-0.3 M-171.8-1v-0.4c-0.1,0.2-0.2,0.3-0.3,0.4
					H-171.8 M-172.4-0.6l-0.4-0.1v1.2C-172.8,0.1-172.6-0.3-172.4-0.6 M-172-0.5l-0.4-0.1c-0.2,0.3-0.4,0.7-0.4,1.1h0.6
					c0.1,0,0.2,0,0.4,0L-172-0.5 M-172.4-0.6l0.4,0.2l-0.2-0.5C-172.3-0.8-172.4-0.7-172.4-0.6 M-172.2-1v-0.2
					c-0.2,0-0.4-0.1-0.5-0.1V-1H-172.2 M-172.2-0.9L-172.2-0.9l-0.6-0.1v0.3l0.4,0.1C-172.4-0.7-172.3-0.8-172.2-0.9 M-172.1-1
					C-172.2-1-172.2-1-172.1-1l0.1,0.5l0.2,0.2V-1H-172.1 M-172.2-1h0.1c0.1-0.1,0.2-0.2,0.4-0.4c-0.3,0.1-0.5,0.1-0.6,0.2L-172.2-1
					 M-172.1-1h-0.1H-172.1C-172.2-1-172.2-1-172.1-1 M-172.6-2.7L-172.6-2.7c0,0.2,0.3,0.7,0.8,1.4C-172-1.8-172.3-2.2-172.6-2.7
					 M-172.7-2.8l-0.1-0.1v1.5c0.1,0,0.3,0.1,0.5,0.1L-172.7-2.8 M-172.7-2.8L-172.7-2.8l0.4,1.6c0.1,0,0.3-0.1,0.5-0.1
					C-172.3-2-172.6-2.5-172.7-2.8 M-172.7-2.8L-172.7-2.8h0.1c-0.1,0-0.1-0.1-0.2-0.2L-172.7-2.8 M-172.8-3L-172.8-3L-172.8-3
					l0.1,0.2L-172.8-3 M-171.8-2.4V-3c-0.3,0-0.7,0-1,0c0.1,0.1,0.1,0.1,0.2,0.2L-171.8-2.4z"/>
				<path class="st22" d="M-171.8-3c0.6,0,1.1-0.1,1.7-0.2l-1.7-2.3V-3z"/>
				<path class="st23" d="M-153.7-69.6c-5.4-7.6-11.9-11.4-19.6-11.4c-7.7,0-14.2,3.8-19.6,11.4S-201-52.8-201-42s2.7,19.9,8.1,27.5
					c4,5.7,8.7,9.3,14,10.7c1.8,0.6,3.6,0.8,5.6,0.8c0.2,0,0.3,0,0.5,0c0.3,0,0.7,0,1,0v-2.5l1.7,2.3c3.8-0.6,7.2-2.1,10.4-4.7
					c2.1-1.7,4.1-3.9,6-6.5c5.4-7.6,8.1-16.8,8.1-27.5S-148.3-62-153.7-69.6z"/>
			</g>
		</g>
		<g>
			<path id="CLatexBalloonGray_0_Layer0_0_1_STROKES" class="st24" d="M-172.8-3c-0.2,0-0.3,0-0.5,0c-2,0-3.9-0.2-5.7-0.8
				c-5.3-1.4-10-5-14-10.7c-5.4-7.6-8.1-16.8-8.1-27.5s2.7-20,8.1-27.6c5.5-7.6,12-11.4,19.7-11.4c7.7,0,14.2,3.8,19.6,11.4
				c5.4,7.6,8.2,16.8,8.2,27.6s-2.8,19.9-8.2,27.6c-1.9,2.6-3.9,4.8-6,6.5c-3.2,2.6-6.6,4.1-10.4,4.7l1.6,2.2c1,0.6,1,0.9,0.2,0.8
				c-0.1,0.5-0.9,0.7-2.3,0.5c-0.1,0-0.2-0.1-0.3-0.1c0,0-0.1,0-0.1,0.1c-0.1,0.1-0.4,0.2-0.8,0.2 M-172.8,0.5h-3.8l3.5-3.3l0.1-0.1
				h0.1l0,0c0.3,0,0.7,0,1,0v-2.5l1.7,2.3c-0.5,0-1,0-1.6,0.1v0.6l3.3,1.4c0.1,0.3,0.2,0.6,0.2,0.8c-0.2,0-0.5-0.1-0.8-0.1
				c-0.5,0.5-1,0.7-1.5,0.7 M-172.8-3l0.1,0.2h0.1h0.1C-172.7-2.8-172.7-2.9-172.8-3z M-172.8-2.9L-172.8-2.9l0.5,1.7
				c0.1,0,0.3-0.1,0.5-0.1c-0.5-0.7-0.8-1.2-0.9-1.5 M-172.8-2.9L-172.8-2.9 M-172.8-1.3c0.1,0,0.3,0.1,0.5,0.1V-1h0.1
				c0.1-0.1,0.2-0.2,0.4-0.4c-0.2-0.4-0.5-0.8-0.8-1.3l0.8,0.3v1v0.1c0.2,0.1,0.3,0.2,0.4,0.3h2.9c-0.2,0.2-0.4,0.4-0.6,0.6
				c-0.6-0.1-1.4-0.3-2.3-0.6c0.4,0.4,0.6,0.8,0.6,1c0,0.1,0,0.2,0,0.2c-0.3,0-0.5-0.1-0.7-0.2c0,0.2-0.1,0.3-0.2,0.5
				c0.2-0.1,0.5-0.1,0.7-0.1 M-172.2-1L-172.2-1c0.1,0,0.1,0,0.1,0h0.4v-0.4 M-172.8-1.3c-0.5-0.2-0.5-0.7,0-1.6
				c-0.4,0.6-0.6,1.3-0.5,1.9h0.6h0.5 M-172.4-0.6l0.4,0.2l-0.2-0.5C-172.3-0.8-172.4-0.7-172.4-0.6l-0.4-0.1 M-172.8,0.5
				c0-0.4,0.2-0.8,0.4-1.1 M-171.8-0.3l0.3,0.1c0-0.2,0-0.5-0.1-0.8h-0.2V-0.3l-0.2-0.2l0.2,0.9V-0.3c0.1,0.1,0.2,0.2,0.3,0.3
				c0-0.1,0-0.1,0-0.2l0.7,0.2 M-171.7-1.3c0,0.1,0.1,0.2,0.1,0.3h0.2 M-171.7,0.5L-171.7,0.5L-171.7,0.5c-0.3,0-0.4,0-0.5,0H-171.7
				 M-171.7,0.5L-171.7,0.5 M-172.2,0.5h-0.6c-0.5-0.5-0.7-1-0.7-1.5c-0.1-0.4,0-0.8,0.1-1.1c-1,1.1-2,2-3.2,2.7 M-172.8-0.7
				l-0.5-0.3c0,0.4,0.2,0.8,0.4,1.2c0,0.1,0.1,0.2,0.2,0.3 M-173.5-1h0.2l0,0H-173.5c0.1,0.4,0.2,0.8,0.5,1.2 M-172.8-2.9
				c-0.2,0.2-0.4,0.5-0.6,0.8c0.1-0.3,0.2-0.5,0.4-0.7"/>
		</g>
	</g>
</g>
<g id="blacklatexsmalloval" transform="matrix( 1.5, 0, 0, 1.5, 755.35,352.95) ">
	<g transform="matrix( 1, 0, 0, 1, 0,0) ">
		<g>
			<g id="CLatexBalloonBlack_0_Layer0_0_FILL">
				<path d="M-193.5,80.3c0.2,0,0.4-0.1,0.5-0.2c-0.3-0.1-0.5-0.1-0.6-0.2C-193.6,80-193.6,80.2-193.5,80.3 M-172.2,0.8h-0.6v20.9
					c0,0.4,0,0.8,0,1.1c0,5.1-0.2,8.8-0.4,11.1c-0.4,4-1.3,7.3-2.6,9.9c-0.8,1.4-2.1,3.2-3.9,5.5c-1.7,2-3.7,4.4-6.2,7.2
					c-2.8,3.1-5,5.4-6.4,7c-1.9,2-3,3.7-3.3,5c-0.3,0.9-0.4,2.2-0.3,3.8l0.1,4.2c0,0.5,0.1,1,0.2,1.5v0.3l0.2,0.1
					c0.1,0.3,0.3,0.5,0.5,0.7C-195,79-195,79-195,78.9c0-0.3,0.1-0.4,0.4-0.4l0.1-0.2l1.4,0.6l-0.6-0.8l-0.3-0.2
					c-0.2-0.1-0.4-0.2-0.5-0.2c-0.3-1.6-0.4-3.2-0.4-4.8c0.1-2,0.4-3.6,0.9-4.8c0.5-1.1,1.6-2.6,3.2-4.5c0,0.1,0,0.3,0.1,0.4
					l0.5,0.7c0.4,0.4,0.7,0.6,0.8,0.7l0.6,0.2c0.5,0.1,1.1,0.4,1.6,0.8l0.2-0.5c-0.2-0.3-0.7-0.7-1.4-1.3c-0.6-0.5-1.1-0.9-1.3-1.3
					c-0.1-0.2-0.2-0.3-0.3-0.4h-0.1l6-6.8c3.5-3.9,5.9-7,7.4-9.3c1.2-1.7,2.1-3.5,2.8-5.4c0.8-1.8,1.3-3.8,1.7-5.9
					c0.3-1.9,0.5-5.1,0.5-9.7v-25L-172.2,0.8 M-171.8,0.8L-171.8,0.8c-0.2,0-0.3,0-0.4,0H-171.8 M-171.8-0.1l-0.3-0.1l0.2,0.9v-0.8
					 M-171.8-2.1l-0.8-0.4c0.3,0.5,0.6,1,0.8,1.4V-2.1 M-171.8-0.7v-0.4c-0.1,0.1-0.3,0.2-0.4,0.4H-171.8 M-172.5-0.4l-0.3-0.1v1.2
					C-172.8,0.3-172.7-0.1-172.5-0.4 M-172.1-0.2l-0.4-0.2c-0.2,0.3-0.3,0.7-0.3,1.2h0.6c0.1,0,0.2,0,0.4-0.1L-172.1-0.2
					 M-172.1-0.2l-0.1-0.5c-0.1,0.1-0.2,0.2-0.3,0.3L-172.1-0.2 M-172.2-0.7L-172.2-0.7l-0.6-0.1v0.3l0.3,0.1
					C-172.4-0.5-172.3-0.6-172.2-0.7 M-172.2-0.7L-172.2-0.7l0.1,0.5l0.2,0.2v-0.7H-172.2 M-172.3-0.7L-172.3-0.7
					c0.2-0.2,0.4-0.3,0.5-0.4c-0.2,0-0.4,0.1-0.5,0.1V-0.7 M-172.2-0.7L-172.2-0.7L-172.2-0.7L-172.2-0.7 M-172.8-1.1v0.3l0.5,0.1
					V-1C-172.5-1-172.7-1.1-172.8-1.1 M-172.6-2.5L-172.6-2.5c0,0.2,0.3,0.7,0.8,1.4C-172-1.5-172.3-2-172.6-2.5 M-172.8-2.5
					L-172.8-2.5v1.4c0.1,0,0.3,0.1,0.5,0.1L-172.8-2.5 M-172.7-2.5L-172.7-2.5l0.4,1.5c0.1,0,0.3-0.1,0.5-0.1
					C-172.3-1.8-172.6-2.3-172.7-2.5 M-172.8-2.7v0.2h0.1h0.1C-172.7-2.6-172.7-2.7-172.8-2.7 M-172.8-2.5v-0.2l0,0l0,0V-2.5
					 M-171.8-2.1v-0.6c-0.3,0-0.7,0-1,0c0.1,0.1,0.1,0.1,0.2,0.2L-171.8-2.1z"/>
				<path class="st25" d="M-194.4,78.3l-0.1,0.2c-0.3,0-0.4,0.2-0.4,0.4c0,0,0.1,0.1,0.1,0.2c0.4,0.4,0.7,0.6,0.9,0.7
					c0.1,0,0.2,0,0.2,0c0.2,0.1,0.4,0.1,0.6,0.2h0.1c0.2,0.1,0.4,0.2,0.6,0.5c0.2,0.2,0.5,0.3,0.8,0.2c0.3-0.1,0.5-0.3,0.5-0.6
					c-0.2-0.4-0.8-0.8-1.6-1.2l-0.4-0.2L-194.4,78.3z"/>
				<path class="st22" d="M-171.8-2.8c0.6,0,1.1-0.1,1.7-0.2l-1.7-2.2V-2.8z"/>
				<path class="st26" d="M-153.7-69.3c-5.4-7.7-11.9-11.5-19.6-11.5c-7.7,0-14.2,3.8-19.6,11.5c-5.4,7.6-8.1,16.8-8.1,27.6
					s2.7,19.9,8.1,27.5S-181-2.7-173.3-2.7c0.2,0,0.3,0,0.5,0c0.3,0,0.7,0,1,0v-2.5l1.7,2.3c6.3-1,11.8-4.7,16.4-11.3
					c5.4-7.6,8.1-16.8,8.1-27.5S-148.3-61.7-153.7-69.3z"/>
			</g>
		</g>
		<g>
			<path id="CLatexBalloonBlack_0_Layer0_0_1_STROKES" class="st21" d="M-172.8-2.7c-0.2,0-0.3,0-0.5,0c-7.7,0-14.2-3.8-19.6-11.4
				s-8.1-16.8-8.1-27.5s2.7-20,8.1-27.6c5.4-7.8,11.9-11.6,19.6-11.6c7.7,0,14.2,3.8,19.6,11.5c5.4,7.6,8.1,16.8,8.1,27.6
				s-2.7,19.9-8.1,27.5c-4.6,6.6-10.1,10.3-16.5,11.3l1.6,2.2c1,0.6,1,0.9,0.2,0.8c-0.1,0.4-0.8,0.6-2.2,0.5c-0.1,0-0.2,0-0.3-0.1
				c0,0-0.1,0-0.1,0.1c-0.1,0.1-0.4,0.2-0.8,0.2 M-172.8,0.8h-3.8l3.5-3.3l0.1-0.1h0.1l0,0c0.3,0,0.7,0,1,0v-2.5l1.7,2.3
				c-0.5-0.1-1,0-1.6,0v0.6l3.2,1.4c0.2,0.4,0.3,0.6,0.2,0.8c-0.2,0-0.4-0.1-0.8-0.1c-0.5,0.5-1,0.7-1.4,0.7 M-172.8-2.6L-172.8-2.6
				L-172.8-2.6c0.1,0,0.1,0,0.2,0.2l0.8,0.3v1V-1c0.1,0.1,0.2,0.2,0.3,0.3h2.9c-0.2,0.2-0.4,0.4-0.6,0.6c-0.6-0.2-1.3-0.4-2.3-0.6
				c0.4,0.4,0.6,0.8,0.6,1c0,0.1,0,0.2,0,0.2c-0.2-0.1-0.4-0.2-0.6-0.3c0,0.2-0.1,0.3-0.2,0.5c0.2-0.1,0.5-0.1,0.7-0.1 M-172.8-2.5
				L-172.8-2.5L-172.8-2.5c0.5,0.5,0.8,1,1,1.4C-172.3-1.8-172.6-2.3-172.8-2.5 M-172.8-2.6L-172.8-2.6 M-172.8-1.1
				c-0.5-0.2-0.5-0.7-0.1-1.5c-0.4,0.6-0.5,1.2-0.5,1.8h0.6l0.5,0.1V-1C-172.5-1-172.7-1.1-172.8-1.1z M-172.2-0.7L-172.2-0.7
				L-172.2-0.7L-172.2-0.7c0.1-0.2,0.3-0.3,0.4-0.4c-0.2,0-0.4,0.1-0.5,0.1l-0.5-1.5 M-172.1-0.2l-0.1-0.5c-0.1,0.1-0.2,0.2-0.3,0.3
				L-172.1-0.2l0.2,0.2v-0.7h-0.3 M-172.8-0.5l0.3,0.1c-0.2,0.3-0.3,0.7-0.3,1.2h0.6c0.1,0,0.2,0,0.4-0.1l-0.3-0.9 M-171.8-1.1v0.4
				h0.1C-171.7-0.8-171.7-0.9-171.8-1.1 M-171.5-0.7h-0.2c0.1,0.2,0.2,0.5,0.2,0.7l0.7,0.2 M-171.8,0.8c0,0,0.1,0,0.1-0.1
				C-171.7,0.7-171.8,0.7-171.8,0.8L-171.8,0.8h-0.4 M-171.5,0c0,0.1,0,0.1,0,0.2c-0.1-0.1-0.2-0.2-0.3-0.3v0.8 M-172.8-0.5
				l-0.6-0.3c0,0.4,0.2,0.8,0.4,1.2c0,0.1,0.1,0.2,0.2,0.3 M-171.8-0.1l0.3,0.1 M-173.4-0.8h-0.2H-173.4L-173.4-0.8z M-172.9-2.6
				c-0.2,0.2-0.3,0.4-0.5,0.7c-0.1,0.3-0.2,0.7-0.1,1.1c0.1,0.4,0.2,0.8,0.5,1.3 M-176.6,0.8c1.1-0.6,2.2-1.5,3.1-2.7
				c0.2-0.2,0.3-0.4,0.5-0.6 M-173.5-0.8c0,0.6,0.2,1.1,0.7,1.5"/>
		</g>
	</g>
</g>
<g id="blacklatexsmallrect" transform="matrix( 1.5, 0, 0, 1.5, 754.55,352.5) ">
	<g transform="matrix( 1, 0, 0, 1, 0,0) ">
		<g transform="matrix( 1, 0, 0, 1, 0,0) ">
			<g>
				<g id="squareballoonblack_0_Layer0_0_FILL">
					<path d="M-171.3,0.2l-0.2-0.1l0.2,0.9V0.2 M-171.6,1c0.1,0,0.2,0,0.3,0l-0.2-0.9l-0.4-0.2c-0.2,0.3-0.3,0.7-0.4,1.1H-171.6
						 M-171.3,1L-171.3,1c-0.1,0-0.2,0-0.3,0H-171.3 M-192.4,80.3c-0.3-0.1-0.5-0.1-0.6-0.2c0,0.2,0.1,0.3,0.1,0.4
						C-192.7,80.6-192.6,80.5-192.4,80.3 M-176.2,47c1.2-1.7,2.1-3.5,2.8-5.3c0.8-1.8,1.3-3.8,1.7-6c0.3-1.9,0.5-5.1,0.5-9.7
						l-0.1-25h-0.3h-0.7l0.1,20.9c0,0.4,0,0.8,0,1.1c0,5.1-0.2,8.8-0.4,11.1c-0.4,4-1.3,7.3-2.6,9.9c-0.8,1.4-2.1,3.2-3.8,5.5
						c-1.7,2-3.8,4.4-6.2,7.2c-2.8,3.1-5,5.4-6.4,7c-1.9,2-3,3.7-3.3,5.1c-0.3,0.9-0.4,2.2-0.3,3.8l0.1,4.2c0,0.5,0.1,1,0.2,1.4
						l-0.1,0.3h0.2c0.1,0.3,0.3,0.5,0.5,0.7c-0.1-0.1-0.1-0.1-0.1-0.2c0-0.3,0.2-0.4,0.5-0.4v-0.2l1.4,0.7l-0.6-0.8l-0.3-0.2
						c-0.2-0.1-0.4-0.2-0.6-0.2c-0.3-1.6-0.4-3.2-0.4-4.8c0.1-2,0.4-3.6,0.9-4.8c0.5-1.1,1.6-2.6,3.2-4.5c0,0.1,0,0.3,0.1,0.4
						l0.5,0.7c0.4,0.4,0.7,0.6,0.8,0.7l0.6,0.2c0.5,0.1,1.1,0.4,1.6,0.8l0.2-0.5c-0.2-0.3-0.7-0.7-1.4-1.3c-0.6-0.5-1.1-0.9-1.3-1.3
						c-0.1-0.2-0.2-0.3-0.3-0.4h-0.1l6-6.8C-180.1,52.5-177.6,49.4-176.2,47 M-171.9-0.1l-0.4-0.1V1C-172.2,0.6-172.1,0.2-171.9-0.1
						 M-171.3-0.8v-1l-0.8-0.4C-171.7-1.7-171.5-1.2-171.3-0.8 M-171.3-0.4v-0.4c-0.1,0.1-0.2,0.2-0.3,0.4H-171.3 M-171.7-0.4
						c-0.1,0.1-0.1,0.2-0.2,0.3l0.4,0.2L-171.7-0.4 M-171.6-0.4C-171.6-0.4-171.7-0.4-171.6-0.4l0.1,0.5l0.2,0.1v-0.6L-171.6-0.4
						 M-171.7-0.4h0.1c0.1-0.2,0.2-0.3,0.3-0.4c-0.2,0-0.4,0.1-0.5,0.1L-171.7-0.4 M-171.6-0.4h-0.1H-171.6
						C-171.7-0.4-171.6-0.4-171.6-0.4 M-172.3-0.5v0.3l0.4,0.1c0.1-0.1,0.2-0.2,0.2-0.3l0,0L-172.3-0.5 M-172.3-0.8v0.3l0.6,0.1
						l-0.1-0.3C-172-0.7-172.1-0.8-172.3-0.8 M-172.2-2.2L-172.2-2.2l-0.1,1.4c0.1,0,0.3,0.1,0.5,0.1L-172.2-2.2 M-172.1-2.2h-0.1
						c0.2,0.2,0.5,0.7,0.9,1.4C-171.5-1.2-171.7-1.7-172.1-2.2 M-172.2-2.2L-172.2-2.2l0.4,1.5c0.1,0,0.3-0.1,0.5-0.1
						C-171.7-1.5-172-2-172.2-2.2 M-172.2-2.2L-172.2-2.2h0.1c0-0.1-0.1-0.2-0.2-0.3L-172.2-2.2 M-172.3-2.4L-172.3-2.4l0.1,0.2
						L-172.3-2.4L-172.3-2.4 M-171.3-1.9v-0.6c-0.3,0-0.7,0-1,0c0.1,0.1,0.1,0.2,0.2,0.2L-171.3-1.9z"/>
					<path class="st25" d="M-193.9,78.6v0.2c-0.3,0-0.5,0.2-0.5,0.4c0,0,0.1,0.1,0.1,0.2c0.4,0.4,0.7,0.6,0.9,0.7
						c0.1,0,0.1,0.1,0.2,0.1c0.2,0.1,0.4,0.1,0.6,0.2h0.1c0.2,0.1,0.4,0.2,0.6,0.6c0.2,0.2,0.5,0.3,0.8,0.2c0.3-0.1,0.5-0.3,0.5-0.5
						c-0.2-0.4-0.8-0.8-1.5-1.2l-0.4-0.2L-193.9,78.6z"/>
					<path class="st26" d="M-174.4-3.1l-1.2-0.1c-2.4-0.1-2.4,0,0,0.1C-175.1-3.1-174.8-3.1-174.4-3.1 M-144.4-60.3
						c0-3.4-0.4-6.3-1.1-8.9c-0.1-0.4-0.2-0.8-0.3-1.2c-0.2-0.4-0.3-0.7-0.5-1.1v-0.1c-2.8-6.4-8.5-9.5-17.1-9.5h-19.8
						c-5.3,0-9.5,1.2-12.6,3.7c-3.4,2.7-5.4,6.8-6.1,12.3c-0.2,1.5-0.3,3.1-0.3,4.9v35.4c0,13.6,8.9,20.8,26.8,21.6h1.1
						c1.6,0,2.9,0,4.1,0l0.1-0.1v0.1c1.4,0,2.5-0.1,3.4-0.1c14.8-0.5,22.3-7.7,22.3-21.6V-60.3 M-144.9-68.7c-0.4-1.1-0.9-2-1.4-2.9
						v0.1c0.1,0.4,0.3,0.7,0.5,1.1C-145.5-69.8-145.2-69.2-144.9-68.7z"/>
					<path class="st22" d="M-170-3h0.1l-0.1-0.2V-3 M-171.3-3v0.5c0.6,0,1.1-0.1,1.7-0.2l-0.3-0.3h-0.1l-0.3,0.3L-171.3-3z"/>
				</g>
			</g>
			<g>
				<path id="squareballoonblack_0_Layer0_0_1_STROKES" class="st11" d="M-146.3-71.6L-146.3-71.6c0.1,0.4,0.3,0.8,0.5,1.2
					c0.1,0.4,0.2,0.8,0.3,1.2c0.7,2.5,1.1,5.5,1.1,8.9v35.4c0,13.9-7.5,21.1-22.3,21.6c-0.8,0-2,0.1-3.4,0.1 M-170.2-3.2
					c-1.2,0-2.6,0-4.1,0h-1.1c-17.8-0.8-26.8-8-26.8-21.6v-35.4c0-1.7,0.1-3.4,0.3-4.9c0.7-5.5,2.7-9.6,6.1-12.3
					c3.1-2.4,7.3-3.7,12.6-3.7h19.8c8.6,0,14.3,3.2,17.1,9.5 M-169.9-3h-0.1 M-175.6-3.2C-178-3.2-178-3.2-175.6-3.2
					c0.4,0.1,0.8,0.1,1.2,0.1"/>
			</g>
			<g>
				<path id="squareballoonblack_0_Layer0_0_2_STROKES" class="st21" d="M-171.3-2.5c0.6,0,1.1-0.1,1.7-0.2 M-170.3-2.7l-1-0.3
					c-0.3,0-0.6,0-1,0c-0.1,0-0.3,0-0.5,0c-0.3,0-0.7,0-1,0c-0.5,0-1.1,0-1.7-0.1 M-171.3-1.9v-0.6 M-172.3-2.5
					c0.1,0.1,0.1,0.2,0.2,0.2l0.8,0.4l3.3,1.4l-1.6-2.2 M-172.3-2.4L-172.3-2.4c-0.4,0.9-0.4,1.4,0,1.6 M-172.3-2.3L-172.3-2.3
					L-172.3-2.3L-172.3-2.3L-172.3-2.3l0.2,0.1c0.3,0.5,0.6,1,0.8,1.4v-1 M-172.3-2.3l-0.2,0.1c-0.2,0.2-0.3,0.4-0.4,0.6
					C-172.7-1.9-172.5-2.1-172.3-2.3c-0.4,0.6-0.6,1.2-0.5,1.8h0.5 M-172.3-0.8c0.1,0,0.3,0.1,0.5,0.1l-0.4-1.5l-0.1-0.1
					 M-172.8-0.5L-172.8-0.5l0.5,0.3 M-172.3-0.5l0.6,0.1l-0.1-0.3c0.1,0,0.3-0.1,0.5-0.1c-0.4-0.7-0.7-1.2-0.9-1.4 M-172.8-0.5
					h-0.2H-172.8c0,0.5,0.2,0.9,0.4,1.2c0,0.1,0.1,0.2,0.1,0.3 M-172.3-0.2l0.4,0.1c0.1-0.1,0.2-0.2,0.2-0.3l0,0h0.1
					c0.1-0.2,0.2-0.3,0.3-0.4v0.1c0.1,0.1,0.2,0.2,0.3,0.3h2.9c1,0.6,1,0.9,0.2,0.8c0,0.4-0.7,0.6-2.2,0.5c-0.1,0-0.2,0-0.3-0.1
					c0,0,0,0,0,0.1c-0.1,0.1-0.4,0.1-0.9,0.1 M-172.3,1h-3.8l3.6-3.3 M-171.7-0.4C-171.7-0.4-171.6-0.4-171.7-0.4h0.4v-0.4
					 M-170.9-0.4h-0.2c0.1,0.3,0.1,0.5,0.1,0.8l0.7,0.2C-170.3,0.3-170.5,0-170.9-0.4c0.9,0.2,1.7,0.4,2.3,0.6
					c0.2-0.2,0.4-0.4,0.6-0.6c0.2,0.3,0.2,0.6,0.2,0.8c-0.2-0.1-0.5-0.2-0.8-0.2c-0.5,0.5-1,0.7-1.5,0.7 M-171.1-0.4h-0.2v0.6
					l0.3,0.1c0,0.1,0,0.1,0,0.2c0.2,0.1,0.4,0.2,0.6,0.3c0-0.1,0-0.1,0-0.2 M-171.2-0.8c0,0.1,0.1,0.2,0.1,0.3 M-172.9-1.6
					c-0.1,0.3-0.1,0.7-0.1,1.1c0.1,0.4,0.2,0.8,0.6,1.2 M-171.3,0.2c0.1,0.1,0.2,0.2,0.3,0.3c0,0.2-0.1,0.3-0.2,0.5
					c0.2-0.1,0.5-0.1,0.8-0.1 M-171.2,1L-171.2,1L-171.2,1c-0.2,0-0.3,0-0.4,0H-171.2 M-171.2,1L-171.2,1l-0.3-0.9l-0.4-0.2
					c-0.2,0.3-0.3,0.7-0.4,1.1h0.7 M-171.7-0.4l0.1,0.5l0.3,0.1V1 M-173-0.5c0,0.6,0.3,1.1,0.7,1.5 M-172.9-1.6c-1,1.1-2,2-3.2,2.7"
					/>
			</g>
		</g>
	</g>
</g>
<g id="graylatexsmalllrg" transform="matrix( 1.5, 0, 0, 1.5, 754.55,352.5) ">
	<g transform="matrix( 1, 0, 0, 1, 0,0) ">
		<g>
			<g id="grayballoonsquaresmall_0_Layer0_0_FILL">
				<path class="st23" d="M-171.3,0.2l-0.2-0.1l0.2,0.9V0.2 M-171.3,1h-0.3h-0.7v1.2h1V1 M-171.6,1c0.1,0,0.2,0,0.3,0l-0.2-0.9
					l-0.4-0.2c-0.2,0.3-0.3,0.7-0.4,1.1H-171.6 M-171.3,1L-171.3,1c-0.1,0-0.2,0-0.3,0H-171.3 M-174.4-3.1l-1.2-0.1
					c-2.4-0.1-2.4,0,0,0.1C-175.1-3.1-174.8-3.1-174.4-3.1 M-170-3h0.1l-0.1-0.2V-3 M-171.9-0.1l-0.4-0.1V1
					C-172.2,0.6-172.1,0.2-171.9-0.1 M-171.3-1.9l-0.8-0.3c0.3,0.5,0.6,1,0.8,1.4V-1.9 M-171.3-0.4v-0.4c-0.1,0.1-0.2,0.2-0.3,0.4
					H-171.3 M-171.7-0.4c-0.1,0.1-0.1,0.2-0.2,0.3l0.4,0.2L-171.7-0.4 M-171.6-0.4C-171.6-0.4-171.7-0.4-171.6-0.4l0.1,0.5l0.2,0.1
					v-0.6L-171.6-0.4 M-171.7-0.4h0.1c0.1-0.2,0.2-0.3,0.3-0.4c-0.2,0-0.4,0.1-0.5,0.1L-171.7-0.4 M-171.6-0.4h-0.1H-171.6
					C-171.7-0.4-171.6-0.4-171.6-0.4 M-172.3-0.5v0.3l0.4,0.1c0.1-0.1,0.2-0.2,0.2-0.3l0,0L-172.3-0.5 M-172.3-0.8v0.3l0.6,0.1
					l-0.1-0.3C-172-0.7-172.1-0.8-172.3-0.8 M-172.2-2.2L-172.2-2.2l-0.1,1.4c0.1,0,0.3,0.1,0.5,0.1L-172.2-2.2 M-172.2-2.2
					L-172.2-2.2l0.4,1.5c0.1,0,0.3-0.1,0.5-0.1C-171.7-1.5-172-2-172.2-2.2 M-172.1-2.2h-0.1c0.2,0.2,0.5,0.7,0.9,1.4
					C-171.5-1.2-171.7-1.7-172.1-2.2 M-172.2-2.2h0.1c0-0.1-0.1-0.2-0.2-0.3L-172.2-2.2L-172.2-2.2 M-172.3-2.4L-172.3-2.4l0.1,0.2
					L-172.3-2.4L-172.3-2.4 M-171.3-1.9v-0.6c-0.3,0-0.7,0-1,0c0.1,0.1,0.1,0.2,0.2,0.2L-171.3-1.9 M-171.3-3v0.5
					c0.6,0,1.1-0.1,1.7-0.2l-0.3-0.3h-0.1l-0.3,0.3L-171.3-3 M-144.4-60.3c0-3.4-0.4-6.3-1.1-8.9c-0.1-0.4-0.2-0.8-0.3-1.2
					c-0.2-0.4-0.3-0.7-0.5-1.1v-0.1c-2.8-6.4-8.5-9.5-17.1-9.5h-19.8c-5.3,0-9.5,1.2-12.6,3.7c-3.4,2.7-5.4,6.8-6.1,12.3
					c-0.2,1.5-0.3,3.1-0.3,4.9v35.4c0,5.2,1.3,9.4,3.9,12.7c2.2,2.8,5.3,5,9.4,6.5c0.2,0.1,0.3,0.1,0.5,0.2c1.8,0.6,3.8,1.1,6,1.5
					s4.5,0.6,7,0.7h1.1c1.6,0,2.9,0,4.1,0l0.1-0.1v0.1c1.4,0,2.5-0.1,3.4-0.1c1.5-0.1,2.9-0.2,4.3-0.4c6-0.9,10.5-3,13.5-6.5
					c0.5-0.6,1-1.3,1.5-2c0.2-0.3,0.3-0.7,0.5-1c1.7-3.2,2.5-7.1,2.5-11.7V-60.3z"/>
				<path d="M-192.4,80.3c-0.3-0.1-0.5-0.1-0.6-0.2c0,0.2,0.1,0.3,0.1,0.4C-192.7,80.6-192.6,80.5-192.4,80.3 M-176.2,47
					c1.2-1.7,2.1-3.5,2.8-5.3c0.8-1.8,1.3-3.8,1.7-6c0.3-1.9,0.5-5.1,0.5-9.7l-0.1-23.7h-1l0.1,19.6c0,0.4,0,0.8,0,1.1
					c0,5.1-0.2,8.8-0.4,11.1c-0.4,4-1.3,7.3-2.6,9.9c-0.8,1.4-2.1,3.2-3.8,5.5c-1.7,2-3.8,4.4-6.2,7.2c-2.8,3.1-5,5.4-6.4,7
					c-1.9,2-3,3.7-3.3,5.1c-0.3,0.9-0.4,2.2-0.3,3.8l0.1,4.2c0,0.5,0.1,1,0.2,1.4l-0.1,0.3h0.2c0.1,0.3,0.3,0.5,0.5,0.7
					c-0.1-0.1-0.1-0.1-0.1-0.2c0-0.3,0.2-0.4,0.5-0.4v-0.2l1.4,0.7l-0.6-0.8l-0.3-0.2c-0.2-0.1-0.4-0.2-0.6-0.2
					c-0.3-1.6-0.4-3.2-0.4-4.8c0.1-2,0.4-3.6,0.9-4.8c0.5-1.1,1.6-2.6,3.2-4.5c0,0.1,0,0.3,0.1,0.4l0.5,0.7c0.4,0.4,0.7,0.6,0.8,0.7
					l0.6,0.2c0.5,0.1,1.1,0.4,1.6,0.8l0.2-0.5c-0.2-0.3-0.7-0.7-1.4-1.3c-0.6-0.5-1.1-0.9-1.3-1.3c-0.1-0.2-0.2-0.3-0.3-0.4h-0.1
					l6-6.8C-180.1,52.5-177.6,49.4-176.2,47z"/>
				<path class="st25" d="M-193.9,78.6v0.2c-0.3,0-0.5,0.2-0.5,0.4c0,0,0.1,0.1,0.1,0.2c0.4,0.4,0.7,0.6,0.9,0.7
					c0.1,0,0.1,0.1,0.2,0.1c0.2,0.1,0.4,0.1,0.6,0.2h0.1c0.2,0.1,0.4,0.2,0.6,0.6c0.2,0.2,0.5,0.3,0.8,0.2c0.3-0.1,0.5-0.3,0.5-0.5
					c-0.2-0.4-0.8-0.8-1.5-1.2l-0.4-0.2L-193.9,78.6z"/>
				<path class="st26" d="M-144.9-68.7c-0.4-1.1-0.9-2-1.4-2.9v0.1c0.1,0.4,0.3,0.7,0.5,1.1C-145.5-69.8-145.2-69.2-144.9-68.7z"/>
			</g>
		</g>
		<g>
			<path id="grayballoonsquaresmall_0_Layer0_0_1_STROKES" class="st27" d="M-146.3-71.6L-146.3-71.6c0.1,0.4,0.3,0.8,0.5,1.2
				c0.1,0.4,0.2,0.8,0.3,1.2c0.7,2.5,1.1,5.5,1.1,8.9v35.4c0,4.6-0.8,8.5-2.5,11.7c-0.2,0.3-0.4,0.7-0.5,1c-0.5,0.7-1,1.4-1.5,2
				c-3,3.5-7.5,5.7-13.5,6.5c-1.4,0.2-2.8,0.3-4.3,0.4c-0.8,0-2,0.1-3.4,0.1 M-170.2-3.2c-1.2,0-2.6,0-4.1,0h-1.1
				c-2.6-0.2-4.9-0.4-7-0.8c-2.2-0.4-4.2-0.9-6-1.5c-0.2-0.1-0.3-0.1-0.5-0.2c-4.1-1.5-7.2-3.7-9.4-6.5c-2.6-3.3-3.9-7.5-3.9-12.7
				v-35.4c0-1.7,0.1-3.4,0.3-4.9c0.7-5.5,2.7-9.6,6.1-12.3c3.1-2.4,7.3-3.7,12.6-3.7h19.8c8.6,0,14.3,3.2,17.1,9.5 M-169.9-3h-0.1
				 M-175.6-3.2C-178-3.2-178-3.2-175.6-3.2c0.4,0.1,0.8,0.1,1.2,0.1"/>
		</g>
		<g>
			<path id="grayballoonsquaresmall_0_Layer0_0_2_STROKES" class="st24" d="M-171.3-2.5c0.6,0,1.1-0.1,1.7-0.2 M-170.3-2.7l-1-0.3
				c-0.3,0-0.6,0-1,0c-0.1,0-0.3,0-0.5,0c-0.3,0-0.7,0-1,0c-0.5,0-1.1,0-1.7-0.1 M-171.3-1.9v-0.6 M-172.3-2.5
				c0.1,0.1,0.1,0.2,0.2,0.2l0.8,0.4l3.3,1.4l-1.6-2.2 M-172.3-2.4L-172.3-2.4c-0.4,0.9-0.4,1.4,0,1.6 M-172.3-2.3L-172.3-2.3
				L-172.3-2.3L-172.3-2.3L-172.3-2.3l0.2,0.1c0.3,0.5,0.6,1,0.8,1.4v-1 M-172.3-2.3l-0.2,0.1c-0.2,0.2-0.3,0.4-0.4,0.6
				C-172.7-1.9-172.5-2.1-172.3-2.3c-0.4,0.6-0.6,1.2-0.5,1.8h0.5 M-172.3-0.8c0.1,0,0.3,0.1,0.5,0.1l-0.4-1.5l-0.1-0.1 M-172.3-0.5
				l0.6,0.1l-0.1-0.3c0.1,0,0.3-0.1,0.5-0.1c-0.4-0.7-0.7-1.2-0.9-1.4 M-172.8-0.5h-0.2H-172.8L-172.8-0.5z M-172.8-0.4l0.5,0.2
				l0.4,0.1c0.1-0.1,0.2-0.2,0.2-0.3l0,0h0.1c0.1-0.2,0.2-0.3,0.3-0.4v0.1c0.1,0.1,0.2,0.2,0.3,0.3h2.9c1,0.6,1,0.9,0.2,0.8
				c0,0.4-0.7,0.6-2.2,0.5c-0.1,0-0.2,0-0.3-0.1c0,0,0,0,0,0.1c-0.1,0.1-0.4,0.1-0.9,0.1 M-172.3,1h-3.8l3.6-3.3 M-171.7-0.4
				C-171.7-0.4-171.6-0.4-171.7-0.4h0.4v-0.4 M-171.2-0.8c0,0.1,0.1,0.2,0.1,0.3h0.2c0.9,0.3,1.7,0.5,2.3,0.7
				c0.2-0.2,0.4-0.4,0.6-0.6c0.2,0.3,0.2,0.6,0.2,0.8c-0.2-0.1-0.5-0.2-0.8-0.2c-0.5,0.5-1,0.7-1.5,0.7 M-171.3,0.2l0.3,0.1
				c0-0.2,0-0.5-0.1-0.8h-0.2V0.2l-0.2-0.1l0.2,0.9V0.2c0.1,0.1,0.2,0.2,0.3,0.3c0-0.1,0-0.1,0-0.2l0.7,0.3c0-0.2-0.2-0.6-0.6-1
				 M-172.9-1.6c-0.1,0.3-0.1,0.7-0.1,1.1c0.1,0.4,0.2,0.8,0.6,1.2c-0.2-0.4-0.4-0.7-0.4-1.1 M-170.3,0.6c0,0.1,0,0.2,0,0.2
				c-0.3-0.1-0.5-0.2-0.7-0.3c0,0.2-0.1,0.3-0.2,0.5c0.2-0.1,0.5-0.1,0.8-0.1 M-171.2,1L-171.2,1L-171.2,1c-0.2,0-0.3,0-0.4,0
				H-171.2 M-171.2,1L-171.2,1 M-172.4,0.8c0,0,0.1,0.1,0.1,0.2h0.7 M-173-0.5c0,0.6,0.3,1.1,0.7,1.5 M-171.9-0.1l0.4,0.2l-0.2-0.5
				 M-172.3,1c0-0.4,0.1-0.8,0.4-1.1 M-172.9-1.6c-1,1.1-2,2-3.2,2.7"/>
		</g>
	</g>
</g>
<g id="graylatexlrgoval" transform="matrix( 1.5, 0, 0, 1.5, 754.15,350.25) ">
	<g transform="matrix( 1, 0, 0, 1, 0,0) ">
		<g>
			<g id="grayballoonovallarge_0_Layer0_0_FILL">
				<path d="M-171.5,9.4h-0.4h-0.8v0.7l0,0v14.5c0,0.4,0,0.8,0,1.1c0,5.1-0.2,8.8-0.4,11.1c-0.4,4-1.3,7.3-2.6,9.9
					c-0.8,1.4-2,3.2-3.8,5.5c-1.7,2-3.8,4.4-6.3,7.2c-2.8,3.1-5,5.4-6.4,7c-1.9,2-3,3.7-3.3,5.1c-0.3,0.9-0.4,2.2-0.3,3.8l0.1,4.2
					c0,0.5,0.1,1,0.2,1.4v0.3h0.1c0,0.1,0,0.1,0,0.2c0,0.3,0.1,0.5,0.2,0.6c0.1,0.1,0.4,0.1,0.7,0.2l0.3,0.3l0.4,0.5
					c0.2,0.3,0.4,0.6,0.5,1.1c0.4-0.1,0.7-0.3,0.8-0.5l-0.1-0.5c-0.1-0.2-0.2-0.4-0.2-0.6c0,0,0-0.1,0-0.2v-0.2l-0.2-0.4
					c0,0,0,0,0-0.1c-0.1-0.1-0.2-0.4-0.5-0.7l-0.5-0.6c-0.1-0.1-0.3-0.1-0.4-0.1c-0.1,0-0.1,0-0.1,0c-0.3-1.5-0.4-3.1-0.4-4.6
					c0.1-2,0.4-3.6,0.9-4.8c0.5-1.1,1.6-2.6,3.2-4.5c0,0.1,0,0.3,0.1,0.4l0.5,0.7c0.4,0.4,0.7,0.6,0.8,0.7l0.6,0.2
					c0.5,0.1,1.1,0.4,1.6,0.8l0.2-0.5c-0.2-0.3-0.7-0.7-1.4-1.3c-0.6-0.5-1.1-0.9-1.3-1.3c-0.1-0.2-0.2-0.3-0.3-0.4h-0.1l6-6.8
					c3.5-3.9,6-7,7.5-9.3c1.2-1.7,2.1-3.5,2.8-5.3c0.8-1.8,1.3-3.8,1.7-6c0.3-1.9,0.5-5.1,0.5-9.7v-12h0.2L-171.5,9.4 M-171.5,9.4
					c-0.2,0-0.3,0-0.4,0.1L-171.5,9.4L-171.5,9.4 M-171.8,8.3l-0.5-0.2c-0.2,0.4-0.4,0.8-0.4,1.3h0.8c0,0,0.2,0,0.4-0.1L-171.8,8.3
					 M-171.9,7.7h-0.1H-171.9C-172,7.7-172,7.7-171.9,7.7 M-171.8,8.3l-0.2-0.5c-0.1,0.1-0.2,0.2-0.3,0.3L-171.8,8.3 M-171.5,8.4
					l-0.3-0.1l0.3,1.1V8.4 M-172.3,8.1l-0.4-0.1v1.4C-172.7,8.9-172.5,8.5-172.3,8.1 M-172,7.7h-0.6V8l0.3,0.1
					C-172.2,8-172.1,7.9-172,7.7L-172,7.7 M-172,7.7l-0.1-0.3c-0.2,0-0.4-0.1-0.6-0.1v0.3L-172,7.7 M-171.9,7.7
					c0.1-0.1,0.2-0.3,0.4-0.4c-0.2,0-0.4,0.1-0.6,0.1l0.1,0.2h0.1 M-171.9,7.7h0.4V7.3C-171.7,7.4-171.8,7.6-171.9,7.7 M-171.5,7.7
					h-0.4c0,0-0.1,0-0.1,0.1l0.2,0.6l0.3,0.1V7.7 M-171.5,6.1l-0.9-0.4c0.4,0.6,0.7,1.1,0.9,1.6V6.1 M-172.7,5.4
					c0.1,0.1,0.1,0.2,0.2,0.3l0.9,0.4V5.3C-171.9,5.4-172.3,5.4-172.7,5.4 M-172.6,5.7L-172.6,5.7v1.7c0.2,0,0.3,0.1,0.5,0.1
					L-172.6,5.7 M-172.6,5.7L-172.6,5.7l0.4,1.8c0.2-0.1,0.4-0.1,0.6-0.1C-172.1,6.5-172.4,6-172.6,5.7 M-172.4,5.7h-0.2
					c0.2,0.3,0.5,0.8,1,1.7C-171.8,6.8-172.1,6.3-172.4,5.7 M-172.6,5.7h0.2c-0.1-0.1-0.2-0.2-0.3-0.3L-172.6,5.7L-172.6,5.7
					 M-172.7,5.4L-172.7,5.4v0.2V5.4L-172.7,5.4z"/>
				<path class="st22" d="M-171.5,5.3c0.7,0,1.3-0.1,1.9-0.2l-1.9-2.6V5.3z"/>
				<path class="st23" d="M-205.2-39.5c0,12.4,3.1,23,9.4,31.7c4.6,6.6,10,10.7,16.1,12.3c2,0.6,4.2,0.9,6.4,0.9c0.2,0,0.4,0,0.6,0
					c0.4,0,0.7,0,1.1-0.1V2.5l1.9,2.6c4.4-0.6,8.4-2.4,12-5.3c2.5-2,4.8-4.5,6.9-7.6c6.3-8.7,9.4-19.3,9.4-31.7s-3.1-22.9-9.4-31.7
					c-6.1-8.7-13.7-13.1-22.5-13.1c-8.8,0-16.3,4.4-22.5,13.2C-202-62.3-205.2-51.8-205.2-39.5z"/>
			</g>
		</g>
		<g>
			<path id="grayballoonovallarge_0_Layer0_0_1_STROKES" class="st24" d="M-172.7,5.4c-0.2,0-0.4,0-0.6,0c-2.2,0-4.4-0.3-6.4-0.8
				c-6.1-1.6-11.5-5.7-16.1-12.3c-6.2-8.7-9.4-19.3-9.4-31.7s3.1-22.9,9.4-31.7c6.3-8.8,13.7-13.2,22.5-13.2
				c8.8,0,16.4,4.4,22.5,13.2c6.3,8.8,9.4,19.3,9.4,31.7s-3.1,23-9.4,31.7c-2.1,3-4.4,5.6-6.9,7.6c-3.6,2.8-7.6,4.6-11.9,5.3
				l1.9,2.5c1.1,0.7,1.2,1,0.2,0.9c-0.2,0.6-1,0.8-2.6,0.6c-0.2,0-0.3-0.1-0.4-0.1c0,0,0,0,0,0.1c-0.2,0.2-0.5,0.2-1,0.2
				 M-172.7,9.4h-4.3l4.1-3.8l0.2-0.1l0.1-0.1l0,0c0.4,0,0.7,0,1.1-0.1V2.5l1.9,2.6c-0.6,0.2-1.3,0.2-1.9,0.2v0.8l3.8,1.6
				c0.2,0.4,0.2,0.7,0.2,0.9c-0.3-0.1-0.6-0.1-1-0.2c-0.6,0.5-1.1,0.8-1.6,0.8 M-172.7,5.4L-172.7,5.4v0.2V5.4
				c0.1,0.1,0.1,0.2,0.2,0.2l0.9,0.4v1.2l0,0c0.1,0.1,0.2,0.2,0.4,0.3h3.4c-0.2,0.5-0.5,0.7-0.7,0.9c-0.7-0.1-1.6-0.4-2.6-0.7
				c0.4,0.5,0.7,0.9,0.7,1.2c0,0.1,0,0.2,0,0.3c-0.4-0.1-0.6-0.2-0.8-0.4c0,0.2-0.1,0.4-0.2,0.6c0.3-0.1,0.6-0.2,0.9-0.2
				 M-172.6,5.7L-172.6,5.7h0.2c0.4,0.6,0.7,1.1,0.9,1.6C-172.1,6.5-172.4,6-172.6,5.7 M-171.5,7.7h-0.4c0,0-0.1,0-0.1,0.1l0.2,0.6
				l0.3,0.1V7.7V7.3c-0.2,0.1-0.3,0.3-0.4,0.4h-0.1v0.1c-0.1,0.1-0.2,0.2-0.3,0.3l0.5,0.2l0.3,1.1v-1l0.3,0.2c0-0.3-0.1-0.6-0.2-0.9
				H-171.5z M-171.1,7.7h-0.3c0-0.1-0.1-0.2-0.1-0.3 M-172.7,7.7h0.6V7.4c-0.2,0-0.4-0.1-0.6-0.1 M-172.7,8l0.4,0.1
				c-0.2,0.4-0.4,0.8-0.4,1.3h0.8c0,0,0.2,0,0.4-0.1h0.1c0,0-0.1,0-0.1,0.1l0,0 M-170.4,8.9l-0.8-0.3c0,0.1,0,0.1,0,0.2
				c-0.1-0.1-0.2-0.2-0.3-0.4 M-171.5,7.3c-0.2,0-0.4,0.1-0.6,0.1l-0.5-1.7 M-171.9,9.4h0.4 M-172.7,8l-0.6-0.3
				c0,0.5,0.2,0.9,0.5,1.4c0,0.1,0.1,0.2,0.2,0.3 M-172.7,7.3c-0.5-0.2-0.5-0.7,0-1.7c-0.5,0.6-0.7,1.4-0.6,2.1h0.7 M-173.3,7.7
				L-173.3,7.7h-0.1H-173.3z M-172.7,5.6c-0.3,0.2-0.5,0.5-0.7,0.8c-0.1,0.3-0.2,0.8-0.1,1.2c0.1,0.4,0.3,0.9,0.6,1.5 M-177,9.4
				c1.3-0.7,2.5-1.7,3.6-3c0.1-0.3,0.2-0.5,0.5-0.7 M-173.5,7.7c0,0.7,0.3,1.3,0.8,1.8"/>
		</g>
	</g>
</g>
<g id="blacklatexlrgoval" transform="matrix( 1.5, 0, 0, 1.5, 755.35,348) ">
	<g transform="matrix( 1, 0, 0, 1, 0,0) ">
		<g>
			<g id="blackballoonovallarge_0_Layer0_0_FILL">
				<path d="M-171.6,9.6c-0.2,0-0.3,0-0.4,0.1L-171.6,9.6L-171.6,9.6 M-171.9,8.4l-0.5-0.1c-0.2,0.4-0.3,0.8-0.4,1.3h0.8
					c0.1,0,0.2,0,0.4-0.1L-171.9,8.4 M-172.1,7.9L-172.1,7.9c0.2-0.2,0.4-0.3,0.5-0.4c-0.2,0-0.4,0.1-0.6,0.1L-172.1,7.9
					 M-171.6,8.6l-0.3-0.2l0.2,1.1V8.6 M-172,7.9h0.4V7.5C-171.7,7.6-171.9,7.7-172,7.9 M-171.6,7.9h-0.4l0,0l0.2,0.5l0.2,0.2V7.9
					 M-172.1,7.9L-172.1,7.9C-172.1,7.9-172,7.9-172.1,7.9L-172.1,7.9 M-172.4,8.3l-0.4-0.2v1.5C-172.7,9.1-172.6,8.7-172.4,8.3
					 M-172.1,7.9c-0.1,0.2-0.2,0.3-0.3,0.4l0.5,0.1L-172.1,7.9 M-172.4,8.3c0.1-0.1,0.2-0.2,0.3-0.4l0,0l-0.7-0.1v0.3L-172.4,8.3
					 M-172.2,7.6c-0.2,0-0.4-0.1-0.6-0.1v0.3l0.7,0.1L-172.2,7.6 M-171.6,7.5V6.2l-0.9-0.4C-172.1,6.5-171.8,7-171.6,7.5
					 M-172.8,5.6c0.1,0.1,0.2,0.2,0.2,0.2l0.9,0.4V5.5C-172,5.6-172.4,5.6-172.8,5.6 M-172.7,5.8l-0.1-0.1v1.8
					c0.2,0,0.4,0.1,0.6,0.1L-172.7,5.8 M-172.6,5.8L-172.6,5.8l0.5,1.8c0.1,0,0.3-0.1,0.6-0.1C-172.1,6.7-172.5,6.1-172.6,5.8
					 M-172.5,5.8L-172.5,5.8c0,0.3,0.4,0.9,0.9,1.7C-171.8,7-172.1,6.5-172.5,5.8 M-172.6,5.8L-172.6,5.8c0,0-0.1-0.1-0.2-0.2
					L-172.6,5.8L-172.6,5.8 M-172.8,5.6L-172.8,5.6L-172.8,5.6l0.1,0.2L-172.8,5.6 M-193.5,83.6c0.2,0,0.4-0.1,0.5-0.2
					c-0.3-0.1-0.5-0.1-0.6-0.2C-193.6,83.3-193.6,83.5-193.5,83.6 M-190.8,66.8c0,0.1,0,0.3,0.1,0.4l0.5,0.7
					c0.4,0.4,0.7,0.6,0.8,0.7l0.6,0.2c0.5,0.1,1.1,0.4,1.6,0.8l0.2-0.5c-0.2-0.3-0.7-0.7-1.4-1.3c-0.6-0.5-1.1-0.9-1.3-1.3
					c-0.1-0.2-0.2-0.3-0.3-0.4h-0.1l6-6.8c3.5-3.9,5.9-7,7.4-9.3c1.2-1.7,2.1-3.5,2.8-5.3c0.8-1.8,1.3-3.8,1.7-6
					c0.3-1.9,0.5-5.1,0.5-9.7V18.4h0.2l-0.1-8.8h-0.4h-0.8l0.1,2h-0.1v13.2c0,0.4,0,0.8,0,1.1c0,5.1-0.2,8.8-0.4,11.1
					c-0.4,4-1.3,7.3-2.6,9.9c-0.8,1.4-2.1,3.2-3.9,5.5c-1.7,2-3.7,4.4-6.2,7.2c-2.8,3.1-5,5.4-6.4,7c-1.9,2-3,3.7-3.3,5.1
					c-0.3,0.9-0.4,2.2-0.3,3.8l0.1,4.2c0,0.5,0.1,1,0.2,1.4v0.3h0.2c0.1,0.3,0.3,0.5,0.5,0.7C-195,82-195,82-195,81.9
					c0-0.3,0.1-0.4,0.4-0.4l0.1-0.2l1.4,0.7l-0.6-0.8L-194,81c-0.2-0.1-0.4-0.2-0.5-0.2c-0.3-1.6-0.4-3.2-0.4-4.8
					c0.1-2,0.4-3.6,0.9-4.8C-193.6,70.2-192.5,68.8-190.8,66.8z"/>
				<path class="st22" d="M-171.6,5.5c0.7,0,1.3-0.1,1.9-0.2l-1.9-2.6V5.5z"/>
				<path class="st25" d="M-194.4,81.6l-0.1,0.2c-0.3,0-0.4,0.2-0.4,0.4c0,0,0.1,0.1,0.1,0.2c0.4,0.4,0.7,0.6,0.9,0.7
					c0.1,0,0.2,0.1,0.2,0.1c0.2,0.1,0.4,0.1,0.6,0.2h0.1c0.2,0.1,0.4,0.2,0.6,0.6c0.2,0.2,0.5,0.3,0.8,0.2c0.3-0.1,0.5-0.3,0.5-0.5
					c-0.2-0.4-0.8-0.8-1.6-1.2l-0.4-0.2L-194.4,81.6z"/>
				<path class="st26" d="M-150.8-71c-6.2-8.7-13.7-13.1-22.5-13.1c-8.8,0-16.4,4.4-22.6,13.1c-6.2,8.8-9.3,19.4-9.3,31.8
					s3.1,22.9,9.3,31.6c6.2,8.8,13.8,13.2,22.6,13.2c0.2,0,0.4,0,0.6,0c0.4,0,0.8,0,1.2-0.1V2.7l1.9,2.6c7.2-1,13.5-5.3,18.8-12.9
					c6.2-8.7,9.4-19.3,9.4-31.6C-141.4-51.6-144.5-62.2-150.8-71z"/>
			</g>
		</g>
		<g>
			<path id="blackballoonovallarge_0_Layer0_0_1_STROKES" class="st21" d="M-172.8,5.6c-0.2,0-0.3,0-0.6,0
				c-8.8,0-16.4-4.4-22.6-13.2c-6.2-8.7-9.3-19.3-9.3-31.6c0-12.4,3.1-23,9.3-31.8c6.3-8.7,13.9-13.1,22.7-13.1
				c8.8,0,16.3,4.4,22.5,13.1c6.2,8.8,9.4,19.4,9.4,31.8s-3.1,22.9-9.4,31.6c-5.3,7.6-11.6,11.9-18.9,12.9l1.8,2.6
				c1.1,0.7,1.2,0.9,0.2,0.8c-0.1,0.6-1,0.8-2.6,0.6c-0.1,0-0.2,0-0.3-0.1c0,0,0,0,0,0.1c-0.2,0.2-0.5,0.2-1,0.2 M-172.8,9.6h-4.3
				l4.1-3.8l0.2-0.1l0,0V5.6c0.4,0,0.8,0,1.2-0.1V2.7l1.9,2.6c-0.6,0.1-1.2,0.2-1.9,0.2v0.8l3.7,1.7c0.2,0.3,0.3,0.6,0.2,0.8
				c-0.2,0-0.5-0.1-0.9-0.2c-0.6,0.5-1.1,0.8-1.6,0.8 M-173.6,7.8l0.2,0.1V7.8H-173.6c-0.1-0.5,0-0.9,0.1-1.2
				c-1.1,1.3-2.3,2.3-3.6,3.1 M-172.8,5.7L-172.8,5.7 M-172.6,5.8L-172.6,5.8c0,0-0.1-0.1-0.2-0.2L-172.6,5.8L-172.6,5.8
				c0.1,0.3,0.5,0.9,1,1.7C-171.8,7-172.1,6.5-172.6,5.8l1,0.4v1.2l0.1,0.1c0.1,0.2,0.2,0.3,0.3,0.4h3.3c-0.2,0.3-0.4,0.5-0.7,0.7
				c-0.6-0.2-1.5-0.4-2.6-0.7c0.4,0.5,0.7,0.9,0.7,1.2c0,0.1,0,0.2,0,0.2c-0.3-0.1-0.6-0.2-0.8-0.4c0,0.2-0.1,0.4-0.2,0.6
				c0.3-0.1,0.5-0.1,0.9-0.2 M-172.8,7.5c0.2,0,0.4,0.1,0.6,0.1l-0.5-1.8l-0.1-0.1 M-172.8,7.5c-0.5-0.2-0.5-0.8,0-1.8
				c-0.5,0.7-0.7,1.4-0.6,2.1h0.6 M-172.8,8.1l0.4,0.2c0.1-0.1,0.2-0.2,0.3-0.4l0,0l-0.7-0.1 M-172.8,8.1l-0.6-0.2
				c0,0.4,0.2,0.9,0.5,1.3c0,0.1,0.1,0.2,0.1,0.4 M-171.2,7.9h-0.2c0.1,0.3,0.1,0.6,0.1,0.9l0.8,0.3 M-171.6,7.9h-0.4l0,0l0.2,0.5
				l0.2,0.2V7.9V7.5c-0.1,0.1-0.3,0.2-0.4,0.4h-0.1l-0.1-0.3c0.1,0,0.3-0.1,0.6-0.1 M-171.3,8.8c0,0.1,0,0.1,0,0.2
				c-0.1-0.2-0.2-0.2-0.3-0.4v0.9c0.1,0,0.1,0,0.1,0s-0.1,0-0.1,0.1l0,0c-0.2,0-0.3,0-0.4,0.1h0.4 M-171.6,8.6l0.3,0.2 M-171.6,7.9
				h0.2c0-0.1-0.1-0.2-0.1-0.3 M-172.4,8.3l0.5,0.1l0.2,1.1 M-172,9.6h-0.8c-0.5-0.5-0.8-1.1-0.8-1.8c0.1,0.4,0.3,0.9,0.6,1.4
				 M-172.8,9.6c0.1-0.5,0.2-0.9,0.4-1.3 M-173,5.8c-0.2,0.2-0.3,0.5-0.4,0.8c0.2-0.4,0.4-0.6,0.6-0.9"/>
		</g>
	</g>
</g>
<g id="blacklatexlrgrect" transform="matrix( 1.5, 0, 0, 1.5, 754.55,347.65) ">
	<g transform="matrix( 1, 0, 0, 1, 0,0) ">
		<g>
			<g id="blackballoonsquarelarGE_0_Layer0_0_FILL">
				<path d="M-192.9,83.8c0.2,0,0.4-0.1,0.5-0.2c-0.3-0.1-0.5-0.1-0.6-0.2C-193.1,83.6-193,83.7-192.9,83.8 M-172.1,10.1
					c-0.1-0.1-0.1-0.1-0.2-0.2v0.2L-172.1,10.1 M-172.3,9.9c0,0,0.1,0.1,0.2,0.2C-172.2,10-172.2,9.9-172.3,9.9L-172.3,9.9
					 M-171,10.1h-0.3h-0.8h-0.2l0.1,15c0,0.4,0,0.8,0,1.1c0,5.1-0.2,8.8-0.4,11.1c-0.4,4-1.3,7.3-2.6,9.9c-0.8,1.4-2.1,3.2-3.8,5.5
					c-1.7,2-3.8,4.4-6.2,7.2c-2.8,3.1-5,5.4-6.4,7c-1.9,2-3,3.7-3.3,5.1c-0.3,0.9-0.4,2.2-0.3,3.8l0.1,4.2c0,0.5,0.1,1,0.2,1.4
					l-0.1,0.3h0.2c0.1,0.3,0.3,0.5,0.5,0.7c-0.1-0.1-0.1-0.1-0.1-0.2c0-0.3,0.2-0.4,0.5-0.4v-0.2l1.4,0.7l-0.6-0.8l-0.3-0.2
					c-0.2-0.1-0.4-0.2-0.6-0.2c-0.3-1.6-0.4-3.2-0.4-4.8c0.1-2,0.4-3.6,0.9-4.8c0.5-1.1,1.6-2.6,3.2-4.5c0,0.1,0,0.3,0.1,0.4
					l0.5,0.7c0.4,0.4,0.7,0.6,0.8,0.7l0.6,0.2c0.5,0.1,1.1,0.4,1.6,0.8l0.2-0.5c-0.2-0.3-0.7-0.7-1.4-1.3c-0.6-0.5-1.1-0.9-1.3-1.3
					c-0.1-0.2-0.2-0.3-0.3-0.4h-0.1l6-6.8c3.5-3.9,6-7,7.4-9.3c1.2-1.7,2.1-3.5,2.8-5.3c0.8-1.8,1.3-3.8,1.7-6
					c0.3-1.9,0.5-5.1,0.5-9.7V15.5h0.2L-171,10.1 M-171,10.1c-0.1,0-0.2,0-0.3,0.1L-171,10.1L-171,10.1 M-172,6.3l-0.1-0.1V8
					c0.2,0,0.4,0.1,0.6,0.1L-172,6.3 M-171.4,8.4c-0.1,0.2-0.2,0.3-0.3,0.4l0.5,0.1L-171.4,8.4 M-171,9.1l-0.2-0.2l0.2,1.1V9.1
					 M-171.7,8.8c0,0.1-0.1,0.1-0.1,0.2c-0.1,0.3-0.2,0.7-0.3,1.1h0.8c0.1,0,0.2,0,0.3-0.1l-0.2-1.1L-171.7,8.8 M-171.4,8.4
					c0.2-0.2,0.3-0.3,0.4-0.4c-0.2,0-0.4,0.1-0.5,0.1L-171.4,8.4L-171.4,8.4 M-171.4,8.4h0.4V8C-171.1,8.1-171.2,8.2-171.4,8.4
					 M-171.4,8.4L-171.4,8.4l0.1,0.6l0.2,0.2V8.4H-171.4 M-171.4,8.4L-171.4,8.4L-171.4,8.4L-171.4,8.4 M-172.1,8.3v0.3l0.4,0.2
					c0.1-0.1,0.2-0.2,0.3-0.4V8.3H-172.1 M-172.1,8.6V9h-0.2v0.8c0,0.1,0.1,0.2,0.2,0.4c0.1-0.5,0.2-0.9,0.3-1.2
					c0-0.1,0.1-0.1,0.1-0.2L-172.1,8.6 M-172.1,8v0.3l0.6,0.1V8.1C-171.7,8.1-171.9,8-172.1,8 M-171.9,6.3h-0.1
					c0.1,0.3,0.5,0.9,1,1.7C-171.2,7.5-171.5,7-171.9,6.3 M-172,6.3L-172,6.3l0.4,1.8c0.2,0,0.4-0.1,0.6-0.1
					C-171.5,7.2-171.8,6.6-172,6.3 M-172,6.3L-172,6.3h0.2c-0.1-0.1-0.2-0.1-0.3-0.2L-172,6.3 M-171,6.8l-0.9-0.5
					c0.4,0.7,0.7,1.2,0.9,1.7V6.8 M-172.1,6.1L-172.1,6.1L-172.1,6.1l0.1,0.2L-172.1,6.1 M-171,6c-0.3,0.1-0.7,0.1-1.1,0.1
					c0.1,0.1,0.2,0.2,0.2,0.2l0.9,0.4C-171,6.7-171,6-171,6z"/>
				<path class="st25" d="M-193.9,81.8V82c-0.3,0-0.5,0.2-0.5,0.4c0,0,0.1,0.1,0.1,0.2c0.4,0.4,0.7,0.6,0.9,0.7
					c0.1,0,0.1,0.1,0.2,0.1c0.2,0.1,0.4,0.1,0.6,0.2h0.1c0.2,0.1,0.4,0.2,0.6,0.6c0.2,0.2,0.5,0.3,0.8,0.2c0.3-0.1,0.5-0.3,0.5-0.5
					c-0.2-0.4-0.8-0.8-1.5-1.2l-0.4-0.2L-193.9,81.8z"/>
				<path class="st26" d="M-174.6,5.3l-1.4-0.1c-2.8-0.1-2.7,0,0.1,0.1C-175.4,5.3-175,5.3-174.6,5.3 M-140.6-70.1
					c-0.4-1.2-1-2.3-1.6-3.3v0.1c0.2,0.4,0.4,0.9,0.6,1.3C-141.3-71.4-141-70.8-140.6-70.1 M-184.6-84.3c-6.1,0-11,1.4-14.6,4.2
					c-3.9,3.1-6.2,7.8-7.1,14.1c-0.2,1.7-0.3,3.6-0.3,5.6v40.7c0,15.6,10.3,23.9,30.8,24.9l1.3,0.1c1.8,0,3.4,0,4.8,0l0.1-0.1v0.1
					c1.6,0,2.9-0.1,3.9-0.1c17.1-0.6,25.7-8.9,25.7-24.9v-40.7c0-3.9-0.4-7.3-1.2-10.2c-0.2-0.5-0.3-0.9-0.4-1.4
					c-0.2-0.4-0.4-0.9-0.6-1.3v-0.1c-3.2-7.3-9.7-10.9-19.6-10.9L-184.6-84.3L-184.6-84.3z"/>
				<path class="st22" d="M-169.5,5.4h0.1l-0.1-0.2V5.4 M-171,5.4V6c0.7,0,1.3-0.1,1.9-0.2l-0.3-0.4h-0.1l-0.3,0.4L-171,5.4z"/>
			</g>
		</g>
		<g>
			<path id="blackballoonsquarelarGE_0_Layer0_0_1_STROKES" class="st11" d="M-169.7,5.2c-1.4,0-3,0-4.8,0l-1.3-0.1
				c-20.5-0.9-30.8-9.2-30.8-24.9v-40.7c0-2,0.1-3.9,0.3-5.6c0.8-6.3,3.2-11,7.1-14.1c3.6-2.8,8.4-4.2,14.6-4.2h22.7
				c9.9,0,16.5,3.6,19.6,10.9 M-141.7-72.1c0.1,0.5,0.2,0.9,0.4,1.4c0.8,2.9,1.2,6.3,1.2,10.2v40.7c0,16-8.6,24.2-25.7,24.9
				c-1,0-2.3,0.1-3.9,0.1 M-142.3-73.4L-142.3-73.4c0.2,0.5,0.4,0.9,0.6,1.3 M-175.9,5.2C-178.7,5.2-178.6,5.2-175.9,5.2
				c0.5,0.1,0.9,0.1,1.4,0.1 M-169.4,5.4h-0.1"/>
		</g>
		<g>
			<path id="blackballoonsquarelarGE_0_Layer0_0_2_STROKES" class="st21" d="M-171,5.4c-0.3,0.1-0.7,0.1-1.1,0.1c-0.2,0-0.4,0-0.6,0
				c-0.4,0-0.8,0-1.1,0c-0.7,0-1.4-0.1-2.1-0.2 M-171,6c0.7,0,1.3-0.1,1.9-0.2 M-169.8,5.8l-1.2-0.4 M-172.1,6.1
				c0.1,0.1,0.2,0.2,0.2,0.2l0.9,0.4V6 M-172.1,6.1L-172.1,6.1L-172.1,6.1l0.1,0.2L-172.1,6.1z M-170.6,8.4h-0.2
				c0.1,0.3,0.2,0.6,0.2,0.8l0.8,0.3C-169.9,9.3-170.1,8.9-170.6,8.4c-0.1-0.1-0.2-0.2-0.3-0.3c0,0.1,0.1,0.2,0.1,0.3h-0.2v0.8
				l0.4,0.1c0,0.1,0,0.1,0,0.2c0.2,0.2,0.4,0.3,0.7,0.4c0-0.1,0-0.1,0-0.2 M-172,6.3L-172,6.3h0.2c0.3,0.7,0.6,1.2,0.8,1.7V6.8
				l3.8,1.6l-1.9-2.6 M-172.2,6.2c-0.2,0.3-0.4,0.6-0.6,0.9c-0.1,0.3-0.2,0.7-0.1,1.2h0.2C-172.8,7.6-172.6,6.9-172.2,6.2
				L-172.2,6.2 M-172.2,6.2l-0.1,0.1c-0.2,0.2-0.4,0.5-0.5,0.8c-1.1,1.3-2.3,2.3-3.7,3.1h4.2 M-172.3,9.9c-0.4-0.5-0.6-1-0.6-1.6
				l0.2,0.1V8.3h0.6 M-172.1,8c-0.5-0.2-0.6-0.8-0.1-1.8 M-172.1,8.6l-0.6-0.2c0,0.4,0.2,0.9,0.4,1.4c-0.3-0.5-0.5-1-0.6-1.4
				 M-172.1,8.3l0.6,0.1V8.1c-0.2,0-0.4-0.1-0.6-0.1 M-171.4,8.4L-171.4,8.4L-171.4,8.4L-171.4,8.4l0.2,0.5l0.2,0.2
				c0.1,0.1,0.3,0.2,0.4,0.3c0,0.2-0.1,0.4-0.2,0.6c0.3,0,0.5-0.1,0.8-0.1c0,0,0-0.1,0.1-0.1s0.2,0.1,0.3,0.1c0.5,0,1-0.3,1.7-0.8
				c-0.7-0.2-1.6-0.4-2.7-0.7h3.4c1.1,0.7,1.2,0.9,0.2,0.9c-0.1,0.6-1,0.8-2.6,0.6 M-171,8l0.1,0.1 M-171,8.4h-0.4
				c0.2-0.2,0.3-0.3,0.4-0.4c-0.2,0-0.4,0.1-0.5,0.1l-0.5-1.8 M-171,8v0.4 M-172.3,9.8c0,0.1,0.1,0.2,0.2,0.4
				c0.1-0.5,0.2-0.9,0.3-1.2c0-0.1,0.1-0.1,0.1-0.2l-0.4-0.2 M-171.4,8.4c-0.1,0.2-0.2,0.3-0.3,0.4l0.5,0.1l0.2,1.1V9.1 M-172,6.3
				c0.1,0.3,0.5,0.9,1,1.7 M-171,10.1c-0.1,0-0.2,0-0.3,0.1L-171,10.1L-171,10.1c0.1,0,0.1,0,0.2,0C-170.8,10.1-170.9,10.1-171,10.1
				c0.5,0.1,0.8,0,1-0.2 M-172.3,9.9c0,0,0.1,0.1,0.2,0.2h0.9 M-172.3,10.1h0.2 M-167.9,9.1c0.2-0.2,0.5-0.4,0.7-0.7
				c0.2,0.3,0.3,0.6,0.2,0.8C-167.2,9.2-167.5,9.2-167.9,9.1z M-172.3,6.3l-4.1,3.8"/>
		</g>
	</g>
</g>
<g id="graylatexlrgrect" transform="matrix( 1.5, 0, 0, 1.5, 754.55,347.8) ">
	<g transform="matrix( 1, 0, 0, 1, 0,0) ">
		<g>
			<g id="grayballoonsquarelrg_0_Layer0_0_FILL">
				<path d="M-192.4,83.5c-0.3-0.1-0.5-0.1-0.6-0.2c0,0.2,0.1,0.3,0.1,0.4C-192.7,83.7-192.6,83.6-192.4,83.5 M-172.1,10.2h-0.2
					l0.1,14.8c0,0.4,0,0.8,0,1.2c0,5.1-0.2,8.8-0.4,11.1c-0.4,4-1.3,7.3-2.6,9.9c-0.8,1.4-2.1,3.2-3.8,5.5c-1.7,2-3.8,4.4-6.2,7.2
					c-2.8,3.1-5,5.4-6.4,7c-1.9,2-3,3.7-3.3,5c-0.3,0.9-0.4,2.2-0.3,3.9l0.1,4.2c0,0.5,0.1,1,0.2,1.4l-0.1,0.3h0.2
					c0.1,0.3,0.3,0.5,0.5,0.7c-0.1-0.1-0.1-0.1-0.1-0.2c0-0.3,0.2-0.5,0.5-0.5v-0.2l1.4,0.7l-0.6-0.8l-0.3-0.2
					c-0.2-0.1-0.4-0.2-0.6-0.2c-0.3-1.6-0.4-3.2-0.4-4.8c0.1-2,0.4-3.6,0.9-4.8c0.5-1.1,1.6-2.6,3.2-4.5c0,0.1,0,0.3,0.1,0.4
					l0.5,0.7c0.4,0.4,0.7,0.6,0.8,0.7l0.6,0.3c0.5,0.1,1.1,0.4,1.6,0.8l0.2-0.5c-0.2-0.3-0.7-0.7-1.4-1.3c-0.6-0.5-1.1-0.9-1.3-1.3
					c-0.1-0.2-0.2-0.3-0.3-0.4h-0.1l6-6.8c3.5-3.9,6-7,7.4-9.3c1.2-1.7,2.1-3.5,2.8-5.4c0.8-1.8,1.3-3.8,1.7-6
					c0.3-1.9,0.5-5.1,0.5-9.6V12.3h0.3v-0.6h-1.2V10.2 M-172.1,10.2c-0.1-0.1-0.1-0.1-0.2-0.1v0.1H-172.1 M-172.3,10.1
					c0,0,0.1,0.1,0.2,0.1c-0.1,0-0.1-0.2-0.2-0.3V10.1 M-172.1,8.8h-0.2v1.1c0,0.1,0.1,0.3,0.2,0.4V8.8 M-172.1,8.4h-0.2v0.3
					l0.2,0.1V8.4 M-172.3,8.1v0.3h0.2V8.1C-172.2,8.1-172.2,8.1-172.3,8.1 M-172.3,6.4L-172.3,6.4L-172.3,6.4L-172.3,6.4
					 M-172.2,6.3c0,0.1-0.1,0.1-0.1,0.2v1.6c0,0,0.1,0,0.2,0L-172.2,6.3L-172.2,6.3L-172.2,6.3 M-172.3,6.6c0-0.1,0.1-0.1,0.1-0.2
					C-172.2,6.4-172.2,6.4-172.3,6.6L-172.3,6.6 M-171.3,6h-1v0.4l0.1-0.1h0.1V6.2C-171.8,6.2-171.5,6.2-171.3,6L-171.3,6z"/>
				<path class="st25" d="M-193.9,81.8V82c-0.3,0-0.5,0.2-0.5,0.5c0,0,0.1,0.1,0.1,0.2c0.4,0.4,0.7,0.6,0.9,0.7
					c0.1,0,0.1,0.1,0.2,0.1c0.2,0.1,0.4,0.1,0.6,0.2h0.1c0.2,0.1,0.4,0.2,0.6,0.6c0.2,0.2,0.5,0.3,0.8,0.2c0.3-0.1,0.5-0.3,0.5-0.6
					c-0.2-0.4-0.8-0.7-1.5-1.1l-0.4-0.2L-193.9,81.8z"/>
				<path class="st23" d="M-174.6,5.5l-1.4-0.1c-2.8-0.1-2.7,0,0.1,0.1C-175.4,5.5-175,5.5-174.6,5.5 M-171,10.2h-0.3h-0.8v1.4h1.1
					V10.2 M-171,10.2L-171,10.2c-0.1,0-0.2,0-0.3,0H-171 M-171,10.2V9.3l-0.2-0.2L-171,10.2 M-171.7,8.9l-0.4-0.1v1.4
					C-172,9.8-171.9,9.3-171.7,8.9 M-171.5,8.2l-0.5-1.8l-0.1-0.1v1.8C-171.9,8.2-171.7,8.2-171.5,8.2 M-171.2,9.1L-171.2,9.1
					l-0.5-0.2c-0.2,0.4-0.3,0.8-0.4,1.3h0.8c0.1,0,0.2,0,0.3-0.1L-171.2,9.1 M-171.2,9.1l-0.2-0.5c-0.1,0.1-0.2,0.2-0.3,0.3
					L-171.2,9.1L-171.2,9.1 M-171.4,8.6L-171.4,8.6L-171.4,8.6L-171.4,8.6 M-171,8.6h-0.4c0,0-0.1,0-0.1,0.1l0.2,0.5l0.2,0.2
					L-171,8.6 M-171,8.1c-0.1,0.1-0.2,0.2-0.3,0.3l-0.1,0.1h0.4V8.1 M-171,8.1c-0.1,0-0.2,0-0.3,0.1c-0.1,0-0.2,0-0.2,0.1l0.1,0.3
					h0.1c0-0.1,0-0.1,0-0.2C-171.2,8.3-171.1,8.2-171,8.1 M-172.1,8.4v0.4l0.4,0.1c0.1-0.1,0.2-0.2,0.3-0.3V8.5L-172.1,8.4
					 M-172.1,8.1v0.3l0.6,0.1V8.2C-171.7,8.2-171.9,8.2-172.1,8.1 M-172.1,6.3L-172.1,6.3L-172.1,6.3L-172.1,6.3L-172.1,6.3
					 M-171,6.9l-0.9-0.4c0.3,0.4,0.5,0.7,0.6,1.1c0.1,0.2,0.2,0.4,0.3,0.6V6.9 M-171.9,6.5l0.9,0.4V6.2c-0.1,0-0.2,0-0.3,0
					c-0.3,0-0.5,0.1-0.8,0.1C-172,6.3-171.9,6.4-171.9,6.5 M-171.9,6.5l-0.1-0.1c0.1,0.3,0.4,0.7,0.7,1.3c0.1,0.1,0.2,0.3,0.3,0.4
					c-0.1-0.2-0.2-0.3-0.3-0.5C-171.4,7.2-171.6,6.9-171.9,6.5 M-172,6.4L-172,6.4l0.4,1.8c0.1,0,0.1-0.1,0.2-0.1s0.2-0.1,0.3-0.1
					c0,0-0.1-0.2-0.2-0.3C-171.6,7.1-171.9,6.7-172,6.4 M-172,6.4L-172,6.4l0.2,0.1c-0.1-0.1-0.2-0.2-0.3-0.3L-172,6.4 M-169.5,5.6
					h0.1l-0.1-0.2V5.6 M-171,5.6v0.6c0.7-0.1,1.3-0.1,1.9-0.2l-0.3-0.4h-0.1l-0.3,0.4L-171,5.6 M-184.6-84.2c-6.1,0-11,1.4-14.6,4.2
					c-3.9,3.1-6.2,7.8-7.1,14.1c-0.2,1.7-0.3,3.6-0.3,5.6v40.7c0,5.9,1.5,10.8,4.4,14.6c2.5,3.3,6.1,5.8,10.8,7.5
					c0.2,0.1,0.4,0.1,0.6,0.2c2.1,0.7,4.4,1.3,6.9,1.8c2.5,0.4,5.2,0.7,8,0.8l1.3,0.1c1.8,0,3.4,0,4.8,0l0.1-0.1v0.1
					c1.6,0,2.9-0.1,3.9-0.1c1.7-0.1,3.4-0.2,4.9-0.4c6.9-1,12.1-3.5,15.5-7.6c0.6-0.7,1.2-1.5,1.8-2.3c0.2-0.4,0.4-0.8,0.6-1.2
					c1.9-3.6,2.9-8.1,2.9-13.5v-40.7c0-3.9-0.4-7.3-1.2-10.2c-0.2-0.5-0.3-0.9-0.4-1.4c-0.2-0.4-0.4-0.9-0.6-1.3v-0.1
					c-3.2-7.3-9.7-10.9-19.6-10.9h-22.7V-84.2z"/>
				<path class="st26" d="M-140.6-69.9c-0.4-1.2-1-2.3-1.6-3.3v0.1c0.2,0.4,0.4,0.9,0.6,1.3C-141.3-71.3-141-70.6-140.6-69.9z"/>
			</g>
		</g>
		<g>
			<path id="grayballoonsquarelrg_0_Layer0_0_1_STROKES" class="st27" d="M-169.7,5.3c-1.4,0-3,0-4.8,0l-1.3-0.1
				c-2.9-0.1-5.5-0.4-8-0.8s-4.8-1-6.9-1.7c-0.2-0.1-0.4-0.1-0.6-0.2c-4.7-1.7-8.3-4.2-10.8-7.5c-2.9-3.8-4.4-8.7-4.4-14.6v-40.7
				c0-2,0.1-3.9,0.3-5.6c0.8-6.3,3.2-11,7.1-14.1c3.6-2.8,8.4-4.2,14.6-4.2h22.7c9.9,0,16.5,3.7,19.6,10.9 M-141.7-71.9
				c0.1,0.5,0.2,0.9,0.4,1.4c0.8,2.9,1.2,6.3,1.2,10.2v40.7c0,5.3-1,9.8-2.9,13.5c-0.2,0.4-0.4,0.8-0.6,1.2
				c-0.5,0.8-1.1,1.6-1.8,2.3c-3.4,4-8.6,6.5-15.5,7.6c-1.5,0-3.1,0.2-4.8,0.2c-1,0-2.3,0.1-3.9,0.1 M-142.3-73.2L-142.3-73.2
				c0.2,0.5,0.4,0.9,0.6,1.3 M-175.9,5.4C-178.7,5.3-178.6,5.4-175.9,5.4c0.5,0.1,0.9,0.1,1.4,0.1 M-169.4,5.6h-0.1"/>
		</g>
		<g>
			<path id="grayballoonsquarelrg_0_Layer0_0_2_STROKES" class="st24" d="M-171,5.6c-0.3,0-0.7,0.1-1.1,0.1c-0.2,0-0.4,0-0.6,0
				c-0.4,0-0.8,0-1.1,0c-0.7,0-1.4-0.1-2.1-0.2 M-169.8,6l-1.2-0.4 M-169.1,6l1.8,2.6c1.1,0.7,1.2,0.9,0.2,0.8
				c-0.1,0.6-1,0.8-2.6,0.6c-0.1,0-0.2,0-0.3-0.1c0,0-0.1,0-0.1,0.1c-0.2,0.2-0.5,0.2-1,0.2 M-172.3,10.2h-4.2l4.2-3.8l0,0l0.1-0.1
				h0.1V6.2 M-171,6.2c0.7-0.1,1.3-0.1,1.9-0.2 M-170.6,8.6h-0.2c0.1,0.3,0.2,0.6,0.2,0.8l0.8,0.3C-169.9,9.4-170.1,9.1-170.6,8.6
				c-0.1-0.2-0.2-0.3-0.3-0.4c0,0.1,0.1,0.2,0.1,0.4h-0.2v0.8l0.4,0.1c0,0.1,0,0.1,0,0.2c0.2,0.2,0.4,0.3,0.7,0.3c0-0.1,0-0.1,0-0.2
				 M-172,6.4l0.1,0.1c0-0.1-0.1-0.2-0.2-0.3L-172,6.4L-172,6.4c0.1,0.3,0.4,0.7,0.7,1.3c0.1,0.1,0.2,0.3,0.3,0.4
				c-0.1-0.2-0.2-0.3-0.3-0.5c-0.1-0.4-0.3-0.7-0.6-1.1l0.9,0.4V6.2 M-172.3,6.6c0-0.1,0.1-0.1,0.1-0.2
				C-172.2,6.4-172.2,6.4-172.3,6.6 M-172.1,8.1c-0.1,0-0.1,0-0.2,0 M-172.1,6.3L-172.1,6.3 M-172.3,6.4c-0.2,0.3-0.4,0.5-0.5,0.8
				C-172.6,6.9-172.5,6.7-172.3,6.4 M-172.3,8.1c-0.3-0.3-0.3-0.8,0-1.5c-0.4,0.6-0.5,1.2-0.4,1.8h0.4h0.2 M-172.1,8.1
				c0.2,0,0.4,0.1,0.6,0.1l-0.5-1.8l-0.1-0.1 M-172.7,8.4h-0.2l0.2,0.1V8.4z M-172.3,8.8l0.2,0.1 M-172.1,8.4l0.6,0.1V8.2
				c0.1,0,0.1-0.1,0.2-0.1c0.1,0,0.2-0.1,0.3-0.1V6.9l3.8,1.7c0.2,0.3,0.3,0.6,0.2,0.8c-0.2,0-0.6-0.1-0.9-0.2
				c-0.6,0.5-1.2,0.8-1.7,0.8 M-172.7,8.6l0.4,0.2 M-172.3,9.9c0,0.1,0.1,0.3,0.2,0.4 M-172.1,8.8l0.4,0.1c0.1-0.1,0.2-0.2,0.3-0.3
				V8.5h0.1c0,0,0,0,0-0.1c0.1-0.1,0.2-0.2,0.3-0.3l0.1,0.1 M-171,8.6h-0.4c0,0-0.1,0-0.1,0.1l0.2,0.5l0.2,0.2
				c0.1,0.1,0.3,0.2,0.4,0.3c0,0.2-0.1,0.4-0.2,0.6c0.4-0.2,0.6-0.2,0.9-0.3 M-171.7,8.9l0.4,0.2l0,0l0.2,1.1V9.3 M-171,8.1v0.4
				 M-172.8,7.2c-0.1,0.3-0.2,0.7-0.1,1.2s0.3,1,0.6,1.5c-0.2-0.5-0.4-0.9-0.4-1.3 M-171,10.2L-171,10.2c0.1,0,0.1,0,0.2,0
				C-170.8,10.2-170.9,10.2-171,10.2c-0.1,0-0.2,0-0.3,0.1L-171,10.2 M-172.3,10.1c0,0,0.1,0.1,0.2,0.1c0.1-0.5,0.2-0.9,0.4-1.3
				 M-172.3,10.2h0.2h0.9 M-172.9,8.4c0,0.6,0.2,1.2,0.6,1.7 M-167.9,9.2c0.2-0.2,0.5-0.4,0.7-0.6h-3.4
				C-169.5,8.8-168.6,9.1-167.9,9.2z M-172.8,7.2c-1.1,1.3-2.3,2.3-3.7,3.1"/>
		</g>
	</g>
</g>
<g transform="matrix( 1.5, 0, 0, 1.5, 741.1,285.1) ">
	<g transform="matrix( 1, 0, 0, 1, 7.85,2.05) ">
		<g transform="matrix( 1, 0, 0, 1, 0,0) ">
			<g>
				<g id="FoilBalloonAssets_FoilBalloonShine2_0_Layer0_0_FILL">
					<path class="st28" d="M-163.9-34.9c-1.1-0.9-2.2-1.4-3.1-1.5c-0.5-0.1-0.9,0-1.2,0.2c-0.2,0.1-0.4,0.3-0.7,0.8l-0.3,0.5
						c-0.1-0.1-0.4-0.2-0.6-0.3c-0.7-0.2-1.3-0.1-1.7,0.2c-0.9-0.3-2-0.7-3.2-1l-3.2-0.9c-0.8-0.1-1.3-0.1-1.7,0.1
						c-0.2,0.1-0.3,0.3-0.5,0.5c-0.8-0.2-1.7-0.4-2.7-0.5c-0.6-0.1-1.1-0.1-1.4,0c-0.4,0.2-0.9,0.5-1.3,1.2
						c-0.9,1.3-1.5,2.2-1.8,2.9c-0.1,0.2-0.2,0.5-0.2,0.7c-0.4,0.4-1,0.8-1.6,1.3l-1.8,1.5c-0.7,0.5-1.3,1-1.7,1.4
						c-0.6,0.6-1.2,1.5-1.9,2.8c-0.4,0.6-0.8,1.2-1.1,1.9c-0.3,0.7-0.5,1.3-0.7,1.6c0,0.1-0.2,0.3-0.5,0.6c-0.2,0.3-0.3,0.5-0.4,0.7
						c-0.1,0.3-0.2,0.7-0.2,1.3c-0.1,0.4-0.3,0.9-0.6,1.5c-0.2,0.4-0.3,0.9-0.4,1.5c-0.2,1.3-0.3,2.3-0.3,2.9
						c-0.1,0.9-0.1,2.3-0.1,4.1c0,0.6,0,1,0.1,1.3c0.1,0.2,0.2,0.6,0.5,1s0.4,0.8,0.4,1s0,0.5,0,0.8c0,0.6-0.1,1-0.2,1.4
						c-0.1,0.2-0.3,0.6-0.6,1.1s-0.5,0.9-0.6,1.1c-0.1,0.4-0.1,1,0.1,1.9c0.4,1.8,0.8,3.5,1.4,5.2c0,0.4,0,0.9,0.1,1.3
						c0.1,1.7,0.4,3.5,0.9,5.3c-0.1,0.1-0.2,0.2-0.3,0.3c-0.5,0.6-0.7,1.1-0.8,1.4c-0.1,0.6,0.1,1.3,0.6,2.2c0.7,1.1,1.8,2.8,3.4,5
						l2.8,4c1.2,2,2.6,3.9,4,5.7c0.7,0.9,1.3,1.6,1.9,2.1c0.3,0.3,0.6,0.4,0.9,0.5c0.4,0.1,0.6,0,0.8-0.2c1.1,1.2,2.4,1.9,3.9,2.2
						c0.6,0.3,1.1,0.3,1.8,0.3c1.2,0.3,2.6,0.5,4,0.7c2.2,0.3,5,0.4,8.5,0.2l3-4.8c-1.4,0-2.8,0-4.1-0.1c0.2-0.3,0.4-0.6,0.6-0.9
						c-0.6-0.2-1.3-0.7-2.2-1.3c-1.1-0.8-1.8-1.3-2.2-1.5c-1-0.5-1.7-1-2.1-1.3c-0.5-0.3-1-0.9-1.5-1.5c-0.6-0.8-1-1.3-1.3-1.7
						c-0.4-0.5-1.4-1.4-2.8-2.8c-3.8-3.6-6.9-7.7-9.5-12.3c-0.3-0.8-0.8-1.2-1.2-1.2l-1,1.6c-0.2-0.4-0.3-0.8-0.5-1.3l-2.3-5.7
						c-0.9-2.3-1.4-3.9-1.5-4.9c-0.2-0.8-0.2-2.1-0.2-3.8c0-4.1,0.8-7,2.5-8.6c-0.2-0.2-0.5-0.2-0.9-0.1c-0.3,0.2-0.5,0.4-0.8,0.8
						l-1.5,2.4c-0.3-0.8-0.4-1.9-0.4-3.3c0-1.2,0.1-2.3,0.2-3.3c0.2-0.9,0.3-1.6,0.4-2c0-0.7,0.1-1.2,0.1-1.5
						c0.4-0.5,0.6-0.9,0.7-1.2c0.1-0.2,0.2-0.5,0.4-1c0.1-0.1,0.3-0.3,0.8-0.6c0.4-0.2,0.7-0.5,1.1-0.9l4-3.7c0,0.1,0.1,0.1,0.1,0.2
						c0.2,0.5,0.6,0.9,1.1,1.4c0.1,0.1,0.5,0.4,1.3,1c1.5,1.1,3.3,3.1,5.5,5.8c3.2,4,6.2,8.3,9.1,12.7c0.7-1.3,1.6-2.6,2.5-3.9
						l6.3,4.9c1,0.7,1.7,1.4,2.1,1.9c0.7,0.8,1,1.7,1.1,2.5c0.7-0.2,1.2-0.7,1.4-1.5c0.2,0.5,0.5,0.9,1.1,1c0.1-0.4,0.3-0.7,0.7-0.9
						c0.1,0.5,0.4,0.7,0.8,0.8l1.8-2.8c0.2,0.4,0.4,0.8,0.5,1.1l0.8,3.4c0.1,0.1,0.3,0,0.5-0.2c1-1.2,1.7-2.3,2.1-3.1
						c0.7-1.2,1-2.4,1-3.5c0-0.7-0.2-1.7-0.6-2.8c-0.1-0.3-0.2-0.6-0.2-0.9c0.2-0.5,0.3-0.9,0.3-1.2c0-0.6-0.1-1.4-0.3-2.4l-0.3-1.3
						c-0.2-0.9-0.4-1.5-0.6-2c-0.2-0.3-0.4-0.6-0.5-0.9c-0.2-0.5-0.4-1-0.7-1.6l-3.2-7.5c-0.6,0.2-1.1,0.5-1.5,0.9
						c-0.2-0.2-0.5-0.5-0.8-0.8l-2.3-2.2c-0.3-0.2-0.8-0.5-1.4-0.7c-0.7-0.3-1.2-0.5-1.4-0.6C-161.5-33-162.4-33.7-163.9-34.9
						 M-175.7-25.9l-0.8-1.1c0.2,0,0.5,0.1,0.7,0.2c0.4,0.3,0.6,0.5,0.7,0.6l-0.2,0.3H-175.7z"/>
				</g>
			</g>
		</g>
	</g>
	<g transform="matrix( 1, 0, 0, 1, 0,-8.8) ">
		<g transform="matrix( 1, 0, 0, 1, 0,0) ">
			<g>
				<g id="FoilBalloonAssets_FoilBalloonShine1_0_Layer0_0_FILL">
					
						<linearGradient id="SVGID_7_" gradientUnits="userSpaceOnUse" x1="-775.5259" y1="-76.4222" x2="-701.0259" y2="-76.4222" gradientTransform="matrix(2.25 0 0 2.25 1532.75 171.95)">
						<stop  offset="0" style="stop-color:#000000"/>
						<stop  offset="0" style="stop-color:#787878"/>
						<stop  offset="0" style="stop-color:#CCCCCC"/>
						<stop  offset="5.490196e-02" style="stop-color:#F7F7F7"/>
						<stop  offset="0.1255" style="stop-color:#FEFEFE;stop-opacity:4.705882e-02"/>
						<stop  offset="0.2471" style="stop-color:#FEFEFE"/>
						<stop  offset="0.2627" style="stop-color:#FEFEFE"/>
						<stop  offset="0.3176" style="stop-color:#FEFEFE"/>
						<stop  offset="0.4157" style="stop-color:#FEFEFE"/>
						<stop  offset="0.502" style="stop-color:#FEFEFE"/>
						<stop  offset="0.5137" style="stop-color:#FEFEFE"/>
						<stop  offset="0.5882" style="stop-color:#FEFEFE;stop-opacity:0.149"/>
						<stop  offset="1" style="stop-color:#FFFFFF"/>
					</linearGradient>
					<path class="st29" d="M-182.1,26c0-0.7,0.1-1.3,0.1-1.8c0-2-0.1-3.8-0.1-5.5c-0.4,2.3-0.5,4.5-0.1,6.5
						C-182.2,25.5-182.1,25.8-182.1,26 M-197.2-28.3c-0.1,0.1-0.1,0.1-0.1,0.1C-197.3-28.2-197.2-28.2-197.2-28.3L-197.2-28.3
						 M-142.2-10.8C-141-8-140-5.1-139.1-2l0.7,2.5c0.1,0.4,0.2,0.8,0.3,1.3c-0.2-1.5-0.4-3-0.7-4.5c-0.4-0.5-0.6-1-0.6-1.3
						c0-0.7,0-1.1-0.1-1.2c-0.3-0.3-0.5-0.6-0.5-0.8c-0.3-0.3-0.4-1-0.4-1.9c-0.4-0.7-1-1.6-1.7-2.7
						C-142.1-10.6-142.2-10.7-142.2-10.8 M-145.4-15.6l-1.5-1.2c0.5,0.6,1.1,1.1,1.6,1.7L-145.4-15.6 M-147.6-18v0.5
						c0.1,0.1,0.2,0.1,0.2,0.2V-18C-147.4-18-147.5-18-147.6-18 M-158.7-3.6c-0.2-0.7-0.3-1.6-0.4-2.6c-0.5,0.7-1,1.4-1.4,2.1
						c-0.9,1.6-1.9,4.3-2.9,8.1c-0.7,2.5-1,4.4-1.1,5.7c-0.1,2.7,0.6,5.7,2.1,8.9c1,2,2.1,3.7,3.1,5c1.6,2.1,3.7,4.2,6.3,6.2
						c0.2,0.1,0.3,0.3,0.5,0.4c1-1.9,1.4-3.8,1.2-5.8c0-0.5-0.1-1.1-0.2-1.8l-0.4-1.8c-0.2-1.8-0.4-3.2-0.5-4.1
						c-0.6-4.5-2.2-10-4.9-16.4C-158-1.4-158.5-2.7-158.7-3.6 M-164.9-25c0.1,0,0.2,0,0.4,0v-1.2c-1.9,1-3.9,2.2-6,3.6
						c-1.8,1.2-4.6,3.3-8.2,6.3c-2.8,2.3-4.8,4.1-5.9,5.5c-2,2.5-3.7,6-5.1,10.6c-0.8,2.5-1.4,5-1.9,7.4c0.4,1.6,0.8,3.4,1.2,5.4
						l0.1,0.4c0.5-3.1,1.2-6.1,2.1-8.9c0.5-1.6,1.7-4.5,3.4-8.6c1-2.2,1.6-3.7,2-4.4c0.8-1.6,1.6-3,2.4-4.1c1.2-1.6,2.7-3.1,4.5-4.6
						c1.8-1.8,3.9-3.2,6.3-4.3C-168.5-23.3-167-24.3-164.9-25 M-161.6-30.2v0.1c0.1,0,0.1,0,0.2,0
						C-161.5-30.2-161.5-30.2-161.6-30.2z"/>
				</g>
			</g>
		</g>
	</g>
</g>
</svg>
