<?xml version="1.0" encoding="utf-8"?>
<!-- Generator: Adobe Illustrator 23.0.3, SVG Export Plug-In . SVG Version: 6.00 Build 0)  -->
<svg version="1.1" id="Layer_1" xmlns="http://www.w3.org/2000/svg" xmlns:xlink="http://www.w3.org/1999/xlink" x="0px" y="0px"
	 viewBox="0 0 1064.8 303.6" style="enable-background:new 0 0 1064.8 303.6;" xml:space="preserve">
<style type="text/css">
	.st0{fill:#999999;}
	.st1{fill:none;stroke:#000000;stroke-width:2;stroke-linecap:round;stroke-linejoin:round;}
	.st2{fill:none;stroke:#999999;stroke-linecap:round;stroke-linejoin:round;}
	.st3{fill:none;stroke:#8F5601;stroke-linecap:round;stroke-linejoin:round;}
	.st4{fill:#0099CC;}
	.st5{fill:#FF9900;}
	.st6{display:none;}
	.st7{display:inline;}
	.st8{fill:#CC99FF;}
	.st9{fill:none;stroke:#543201;stroke-linecap:round;stroke-linejoin:round;}
	.st10{fill:url(#SVGID_1_);}
	.st11{fill:url(#SVGID_2_);}
	.st12{fill:url(#SVGID_3_);}
	.st13{fill:none;stroke:#990000;stroke-width:0.25;stroke-linecap:round;stroke-linejoin:round;}
	.st14{fill:none;stroke:#999999;stroke-width:0.25;stroke-linecap:round;stroke-linejoin:round;}
	.st15{fill:url(#SVGID_4_);}
	.st16{fill:#FF0066;}
	.st17{fill:url(#SVGID_5_);}
	.st18{fill:url(#SVGID_6_);}
	.st19{fill:none;stroke:#FFFFFF;stroke-width:0.25;stroke-linecap:round;stroke-linejoin:round;}
	.st20{fill:url(#SVGID_7_);}
	.st21{fill:url(#SVGID_8_);}
	.st22{fill-opacity:9.803922e-02;}
	.st23{fill:#CCCCCC;fill-opacity:0.498;}
	.st24{fill:url(#SVGID_9_);}
	.st25{fill:url(#SVGID_10_);}
	.st26{fill:#00CC33;}
	.st27{fill:none;stroke:#006600;stroke-linecap:round;stroke-linejoin:round;}
	.st28{fill:#636363;stroke:#000000;stroke-width:2;stroke-linecap:round;stroke-linejoin:round;}
	.st29{fill:#FFFFFF;}
	.st30{fill:none;stroke:#000000;stroke-width:4;stroke-linecap:round;stroke-linejoin:round;}
	.st31{fill:#7C7C7C;stroke:#000000;stroke-width:3;stroke-miterlimit:10;}
</style>
<g transform="matrix( 1, 0, 0, 1, 637,444.25) ">
	<g transform="matrix( 1, 0, 0, 1, 0,0) ">
		<g>
			<g id="rampsteeo_0_Layer0_0_FILL">
				<path class="st0" d="M398.8-172.2v13.8h-35h-477.9h-20.5c1.3,0.9,2.2,2.1,2.7,3.5c0.1,0.3,0.2,0.6,0.2,0.9
					c0.4,2.1,0.1,4.1-1.1,5.8c-1.2,1.8-2.8,2.9-4.8,3.3c-2.1,0.5-4,0.2-5.8-1c-0.3-0.2-0.6-0.5-1-0.7l-18.4-11.9h-282.9h-148.5h-41
					v16.7h41h148.5h331.6h477.9h63v-30.4L398.8-172.2L398.8-172.2z"/>
			</g>
		</g>
		<g>
			<path id="rampsteeo_0_Layer0_0_1_STROKES" class="st1" d="M-162.8-158.4h-282.9h-148.5h-41v16.7h41h148.5h331.6h477.9h63v-30.5
				h-28v13.8h-35h-477.9h-20.5"/>
		</g>
		<g>
			<path id="rampsteeo_0_Layer0_0_2_STROKES" class="st2" d="M-134.7-158.4c1.3,0.9,2.2,2.1,2.7,3.5c0.1,0.3,0.2,0.6,0.2,0.9
				c0.4,2.1,0.1,4.1-1.1,5.8c-1.2,1.8-2.8,2.9-4.8,3.3c-2.1,0.5-4,0.2-5.8-1c-0.3-0.2-0.6-0.5-1-0.7"/>
		</g>
		<g>
			<path id="rampsteeo_0_Layer0_0_3_STROKES" class="st3" d="M-144.4-146.5l-18.4-11.9"/>
		</g>
	</g>
	<g transform="matrix( 4.5510101318359375, -0.056549072265625, 0.056549072265625, 4.5510101318359375, -1765.8,605.65) ">
		<g>
			<g id="rampsteeo_0_Layer0_1_FILL">
				<path class="st4" d="M297.7-200.5c-7.1,10.9-10.7,22.9-11,35.9l68,1.2L297.7-200.5z"/>
			</g>
		</g>
	</g>
</g>
<g id="Ssolid" transform="matrix( 1.9843902587890625, 0.015472412109375, -0.0157470703125, 2.019500732421875, 273.2,205.25) ">
	<g transform="matrix( 2.2535858154296875, -0.01043701171875, 0.01043701171875, 2.2535858154296875, -695.2,409.6) ">
		<g>
			<g id="Ramp_RampSim_Assets_CRamp_Assets_CangleCueSolid_0_Layer0_0_FILL">
				<path class="st4" d="M289.2-185.1c-2.5,7.2-3.7,14.5-3.7,22.1l68,0L289.2-185.1z"/>
			</g>
		</g>
	</g>
</g>
<g transform="matrix( 0.9999847412109375, 0, 0, 0.9999847412109375, 636.2,519) ">
	<g transform="matrix( 1, 0, 0, 1, 0,0) ">
		<g>
			<g id="rampbase_0_Layer0_0_FILL">
				<path class="st0" d="M398.8-247.8v13.7h-512.9h-20.5c1.3,0.9,2.2,2.1,2.7,3.5c0.1,0.3,0.2,0.6,0.2,0.9c0.4,2.1,0.1,4-1.1,5.8
					s-2.8,2.9-4.8,3.3c-2.1,0.5-4,0.2-5.8-1c-0.3-0.2-0.6-0.5-1-0.7l-18.4-11.7h-472.4v16.6h521.1h541v-30.4
					C426.9-247.8,398.8-247.8,398.8-247.8z"/>
			</g>
		</g>
		<g>
			<path id="rampbase_0_Layer0_0_1_STROKES" class="st1" d="M-162.8-234h-472.4v16.6h521.1h541v-30.4h-28v13.7h-513h-20.5"/>
		</g>
		<g>
			<path id="rampbase_0_Layer0_0_2_STROKES" class="st2" d="M-134.7-234c1.3,0.9,2.2,2.1,2.7,3.5c0.1,0.3,0.2,0.6,0.2,0.9
				c0.4,2.1,0.1,4-1.1,5.8s-2.8,2.9-4.8,3.3c-2.1,0.5-4,0.2-5.8-1c-0.3-0.2-0.6-0.5-1-0.7"/>
		</g>
		<g>
			<path id="rampbase_0_Layer0_0_3_STROKES" class="st3" d="M-144.4-222.2l-18.4-11.8"/>
		</g>
	</g>
</g>
<g transform="matrix( 1, 0, 0, 1, 409,402.45) ">
	<g transform="matrix( 1, 0, 0, 1, 0,0) ">
		<g>
			<g id="rampsmooth_0_Layer0_0_FILL">
				<path class="st5" d="M-292.9-363.8l-8.3,12.8L85.2-101.5l-1.6-1.1c-1.2-1.1-2-2.5-2.4-4.2c-0.5-2-0.2-3.9,1-5.7
					c1.2-1.8,2.8-2.9,4.9-3.4c0.3-0.1,0.6-0.1,0.9-0.1c1.7-0.1,3.2,0.3,4.8,1.2v-0.1L-292.9-363.8z"/>
			</g>
		</g>
		<g>
			<path id="rampsmooth_0_Layer0_0_1_STROKES" class="st3" d="M85.2-101.4l-386.4-249.5l8.3-12.8l385.8,249v0.1"/>
		</g>
		<g>
			<path id="rampsmooth_0_Layer0_0_2_STROKES" class="st2" d="M92.9-114.7c-1.5-1-3.1-1.4-4.8-1.2c-0.4,0-0.7,0-0.9,0.1
				c-2.1,0.5-3.7,1.7-4.9,3.4c-1.2,1.8-1.5,3.7-1,5.7c0.3,1.7,1.1,3.1,2.4,4.2"/>
		</g>
	</g>
</g>
<g id="smoothramp" transform="matrix( 1, 0, 0, 1, 409,402.45) ">
	<g transform="matrix( 1, 0, 0, 1, 0,0) ">
		<g>
			<g>
				<path class="st5" d="M-292.9-363.8l-8.3,12.8L85.2-101.5l-1.6-1.1c-1.2-1.1-2-2.5-2.4-4.2c-0.5-2-0.2-3.9,1-5.7
					c1.2-1.8,2.8-2.9,4.9-3.4c0.3-0.1,0.6-0.1,0.9-0.1c1.7-0.1,3.2,0.3,4.8,1.2v-0.1L-292.9-363.8z"/>
			</g>
		</g>
		<g>
			<path class="st3" d="M85.2-101.4l-386.4-249.5l8.3-12.8l385.8,249v0.1"/>
		</g>
		<g>
			<path class="st2" d="M92.9-114.7c-1.5-1-3.1-1.4-4.8-1.2c-0.4,0-0.7,0-0.9,0.1c-2.1,0.5-3.7,1.7-4.9,3.4c-1.2,1.8-1.5,3.7-1,5.7
				c0.3,1.7,1.1,3.1,2.4,4.2"/>
		</g>
	</g>
</g>
<g transform="matrix( 1.3032684326171875, 0.84393310546875, -0.84393310546875, 1.3032684326171875, 408.95,399.3) " class="st6">
	<g transform="matrix( 1, 0, 0, 1, 0,0) " class="st7">
		<g>
			<g id="Ramp_RampSim_Assets_Cincline_Assets_CinclineRoughNew_0_Layer0_0_FILL">
				<path class="st8" d="M-105.8-95.1c-0.1,0-0.1,0-0.2,0C-105.9-95.1-105.9-95.1-105.8-95.1C-105.9-95.1-105.8-95-105.8-95.1
					C-105.8-95-105.8-95.1-105.8-95.1 M-133.7-93.4c-1.1,0-2.2-0.1-3.3-0.3c-0.4,0.5-0.9,0.7-1.5,0.7c0-0.3-0.2-0.6-0.5-0.9
					c-0.3-0.2-0.6-0.3-1-0.2c-0.4,0.1-0.7,0.3-0.9,0.6c0,0.2-0.1,0.3-0.1,0.5c-0.2-0.2-0.6-0.3-1-0.4c-0.6-0.1-1.3-0.1-2.1,0.2
					c-0.9,0.3-1.6,0.4-2,0.5c-0.8,0.1-1.4-0.1-1.9-0.5c0.1-0.7-0.1-1.4-0.6-2c-0.7,1-1.7,1.6-3.1,1.8c-1.3,0.2-2.5-0.1-3.4-0.9
					l-1.3,1.3h-0.6c0-0.2-0.1-0.5-0.2-0.7c-0.2-0.4-0.5-0.7-0.9-0.9l-3.6,1.5c-1-0.3-1.8-0.2-2.6,0.4c0.5-0.4,0.5-0.9-0.1-1.5
					c-0.3-0.8-0.9-1-1.6-0.8c-0.5,0.2-1.1,0.5-1.6,1.1c-0.3,0.2-0.5,0.4-0.7,0.6c-0.2-0.1-0.4-0.2-0.6-0.2c0-0.2,0-0.3,0-0.5
					c-2.1-0.3-4.2-0.2-6.2,0.5c0.2-0.3,0.1-0.6-0.4-0.8c-0.5-0.2-0.9-0.2-1.3,0c-0.2,0.2-0.6,0.4-1.1,0.8c-0.4,0.2-0.8,0.3-1.1,0.1
					c0.4-0.1,0.4-0.3,0.1-0.6c-0.3-0.3-0.6-0.5-1-0.5c-0.9,0.2-1.5,0.7-1.9,1.5c-0.4-0.5-0.9-0.7-1.5-0.8c0.2-0.1,0.3-0.3,0.2-0.6
					c-0.1-0.3-0.2-0.5-0.4-0.6c-0.2-0.2-0.7-0.1-1.3,0.1l-5.2,1.6c0.1-0.5-0.1-1-0.5-1.4c-0.8,0.8-1.5,1.2-2.2,1.4
					c-0.2-0.1-0.4-0.2-0.6-0.2s-0.4,0.1-0.6,0.1c-0.1-0.1-0.2-0.1-0.3-0.1c-0.3-0.1-0.6-0.1-0.8,0c-0.4-0.1-0.7-0.2-1-0.3
					c-0.7-0.4-1.6-0.2-2.7,0.4v-0.1c0.1-0.1,0.2-0.3,0.2-0.6c0-0.2-0.1-0.4-0.2-0.5c-0.2-0.1-0.4-0.2-0.6-0.1
					c-0.2,0-0.3,0.1-0.5,0.3c0,0-0.1,0.3-0.2,0.7l0,0c-0.1-0.3-0.3-0.5-0.6-0.5c-0.1,0-0.5,0.1-1.1,0.4c-0.3,0.2-0.9,0.3-1.8,0.4
					l-2,0.2c0.2-0.3,0.2-0.6-0.1-1c-0.2-0.3-0.5-0.5-0.9-0.4c-0.2,0-0.6,0.3-1.2,0.8c-0.5,0.5-0.9,0.6-1.3,0.3l-1.5-1.2
					c-0.2,0.4-0.7,0.6-1.2,0.7c0-0.2,0-0.4,0-0.5c0-0.2-0.1-0.4-0.3-0.5c-0.1-0.2-0.3-0.3-0.5-0.2c-0.1,0-0.3,0.2-0.4,0.3
					c0,0.1-0.1,0.2-0.2,0.5c-0.1,0.2-0.2,0.3-0.4,0.4c-0.1,0.1-0.3,0.1-0.4,0h-0.1c-0.1-0.4-0.4-0.7-0.9-0.7c-0.3,0-0.7,0.1-1.2,0.3
					l-1.6,0.8c-0.1-0.2-0.2-0.4-0.4-0.6c-0.3-0.3-0.7-0.5-1-0.4c-0.4,0.1-0.7,0.4-1,1l-0.1,0.4c-0.1,0-0.1,0-0.2,0
					c0-0.1-0.1-0.2-0.2-0.3c-0.1-0.2-0.3-0.4-0.6-0.4s-0.5,0.1-0.6,0.3l-0.3,0.2c0-0.1,0-0.2,0-0.3c0-0.2-0.2-0.4-0.4-0.6
					c-0.3-0.2-0.5-0.2-0.8-0.2c-0.4,0.1-0.7,0.2-0.8,0.5h-0.1c-0.1,0-0.3,0-0.4,0c0-0.1-0.2-0.2-0.4-0.2c-0.4-0.1-0.8-0.2-1.2,0
					c-0.9,0.2-1.6,0.7-1.9,1.4c-0.2-0.6-0.5-1-1.1-1.1c-0.2,0-0.4,0-0.8,0c0,0,0-0.1-0.1-0.1c-0.2-0.3-0.6-0.3-1.3-0.2l0,0
					c-0.2-0.1-0.4-0.3-0.6-0.5c-0.3-0.3-0.6-0.4-0.8-0.4c-0.3,0-0.7,0.3-1.2,0.9c-0.2,0.3-0.4,0.5-0.6,0.6c-0.2,0-0.5,0.1-0.7,0.2
					c-0.1-0.4-0.4-0.6-1.1-0.5l-0.7,0.2c-0.3,0.1-0.5,0.1-0.7,0.1c-0.4,0-0.9-0.4-1.5-1c0,0.3-0.2,0.5-0.6,0.7
					c-0.3,0.1-0.7,0.2-1,0.1c-1-0.1-1.7,0.1-1.9,0.5c0.1-0.2,0-0.4-0.1-0.6c-0.2-0.2-0.4-0.3-0.7-0.3c-0.6,0.1-1.1,0.2-1.5,0.2
					c-0.5,0.1-0.9,0.2-1,0.2c-0.1,0.1-0.2,0.2-0.3,0.5c-0.2,0-0.4,0-0.8,0.1c-0.1-0.2-0.3-0.4-0.5-0.5c-0.3-0.1-0.6-0.1-0.8-0.1
					c-0.3,0.1-0.7,0.4-1.2,0.9c0.1-0.2,0.1-0.4-0.1-0.5c0-0.1,0-0.2-0.1-0.2c-0.1-0.4-0.4-0.7-0.8-0.7c-0.3,0-0.5,0.2-0.8,0.5
					s-0.7,0.6-1.2,0.9c-0.1,0-0.2,0-0.2,0c-0.3-0.1-0.5-0.2-0.5-0.5l-0.8,0.8l-0.8-0.8c-0.3,0.4-0.7,0.7-1.2,1
					c-0.1-0.1-0.2-0.2-0.3-0.2c0-0.1-0.1-0.2-0.1-0.3c-0.1-0.3-0.3-0.5-0.6-0.6c-0.2-0.1-0.5-0.1-0.8,0c-0.3,0.1-0.5,0.2-0.6,0.4
					l-0.3-0.6v-0.1l-0.6-1c-0.5-0.1-0.9,0.3-1.2,1.3v0.1c-0.1-0.1-0.2-0.2-0.4-0.3c-0.3-0.1-0.6-0.1-0.9,0l-0.8,0.2
					c-0.5-0.2-0.9-0.2-1.3,0.1v0.1c-0.5,0.2-0.8,0.3-1,0.4c0,0-0.1,0.1-0.1,0.2c-0.1,0-0.3,0-0.4,0c-0.2,0-0.3-0.1-0.5-0.1l-0.1-0.1
					c-0.1-0.4-0.2-0.7-0.5-0.9c-0.4,0.1-0.9,0.2-1.6,0.2c0.1-0.3-0.1-0.4-0.4-0.5c-0.2,0-0.5,0-0.7,0.1l-1.4,0.4
					c-0.1,0-0.1-0.1-0.2-0.1c-0.7-0.1-1.3-0.1-1.7,0.1c-0.1,0-0.1-0.1-0.2-0.1c-0.3-0.1-0.5-0.2-0.8-0.1c-0.2,0-0.4,0.1-0.7,0.3
					v-0.1c0-0.6-0.1-1-0.3-1.1c-0.4-0.3-0.8-0.2-1.2,0.3c-0.2,0.2-0.3,0.6-0.4,1.2c-0.1,0.2-0.3,0.2-0.6,0.2
					c-0.2-0.1-0.4-0.2-0.6-0.4s-0.4-0.4-0.5-0.6c-0.2-0.2-0.4-0.3-0.6-0.3c-0.6-0.1-1,0.3-1.4,1.2c-0.3-0.7-0.9-1-1.9-0.9
					c-0.5,0.1-0.8,0.1-1.1,0.2c-0.5,0.1-0.8,0.1-1.1,0c-0.7-0.2-1.2-0.3-1.6-0.3c-0.6,0-1.1,0.4-1.7,1c-0.3,0.3-0.5,0.5-0.7,0.8
					h-0.4v0.5c-0.2,0.2-0.3,0.5-0.4,0.8c0.1,0,0.3,0,0.4,0v8.7l300,0l0-10H11c0-0.2,0-0.5-0.1-0.8c-0.1-0.5-0.4-0.8-0.8-1
					c-0.2,0-0.4,0.2-0.5,0.3c-0.1,0.2-0.2,0.4-0.2,0.6c-0.3-0.8-0.8-1.4-1.6-1.7l0.5,1.1c0-0.8-0.3-1.4-0.9-1.9
					C7.3-95,7-94.4,6.3-94c-0.3,0.2-0.7,0.4-1.1,0.5l-0.1-0.3c-0.1,0.1-0.2,0.2-0.3,0.3c-0.2,0-0.3-0.1-0.5-0.1l-0.6-1.1
					c-0.6,0.1-1,0.5-1.2,1.2l-0.9-1.3l-0.7,0.6C0.5-94.3,0.2-94,0-93.5c-0.2-0.4-0.6-0.6-1.1-0.4c-0.6,0.1-0.8,0.4-0.8,0.9
					c-0.8-0.5-1.8-0.7-3-0.8c-0.6,0-1.4,0-2.4,0.1c-0.1,0.2-0.3,0.3-0.5,0.5c-0.3,0.1-0.8,0.2-1.5,0.1c-0.5-0.1-1-0.1-1.5-0.1h-0.7
					c0,0,0-0.1,0.1-0.1c-1.4-0.1-2.8-0.1-4.2-0.1c-0.3,0.3-0.6,0.5-0.8,0.5l-0.3-0.5c-0.9,0-1.9,0-2.9,0.1c-0.5-0.4-1.2-0.5-2.2-0.3
					c-1.3,0.2-2.1,0.2-2.6,0.1c-0.2-0.3-0.4-0.6-0.5-0.7l-1,0.8l-0.2-0.8c-0.1-0.1-0.2-0.2-0.3-0.2c-0.1-0.1-0.2-0.1-0.3,0
					s-0.2,0.3-0.2,0.7c-0.1,0.5-0.3,0.9-0.7,1.2c0-0.2-0.1-0.4-0.4-0.7c-0.4-0.3-0.7-0.3-0.8-0.1c0,0.1,0,0.1,0,0.2
					s-0.1,0.2-0.1,0.3c-0.1,0.3-0.3,0.5-0.6,0.6c-0.3,0.1-0.6,0.1-0.8,0c0-0.5-0.1-0.8-0.4-1.1c-1,0.1-1.9,0.3-3,0.3
					c0.1-0.1,0.2-0.3,0.2-0.5s-0.1-0.4-0.2-0.5c-0.2-0.2-0.6-0.3-1.1-0.3c-0.6,0-1.2,0.3-1.9,0.7c-0.8,0.5-1.4,0.9-1.8,1.1
					c-0.1,0.1-0.3,0.2-0.4,0.3l-0.1-1.7c-0.1-0.4-0.2-0.6-0.3-0.7c-0.3-0.2-0.6,0-1,0.6l-0.5,1c-0.1-0.2-0.4-0.2-0.6-0.2l-0.1,0.2
					c-0.1,0-0.2,0-0.4,0.1l-0.2,0.4c0,0-0.1,0.1-0.2,0.1c0,0-0.1,0-0.2,0c0-0.2,0-0.4-0.1-0.6c-0.1-0.3-0.2-0.4-0.3-0.5
					c-0.2-0.1-0.3-0.1-0.5,0.1c-0.1,0.2-0.1,0.5-0.1,0.8c-0.3,0-0.6,0-0.9,0.1l0.2-0.3c0.1-0.2,0.1-0.3,0.1-0.4
					c0-0.2-0.2-0.3-0.4-0.3c-0.1,0-0.3,0.1-0.5,0.4c0-0.1-0.1-0.2-0.1-0.2c-0.1-0.3-0.3-0.5-0.7-0.6c-0.6-0.2-1.1,0-1.6,0.5
					c-0.2-0.5-0.6-0.7-1.2-0.6c-0.2,0-0.6,0.2-1.3,0.5c-0.8,0.5-1.7,0.7-2.7,0.8c0.1-0.1,0.1-0.3,0-0.5s-0.2-0.3-0.4-0.3
					c-0.3-0.1-0.6,0-0.9,0.3c-0.3,0.2-0.6,0.3-0.8,0.4c-0.1,0-0.3,0-0.4,0h-0.1c-0.2,0-0.3-0.1-0.5-0.2c-0.3-0.2-0.5-0.2-0.7-0.2
					c-0.4,0.2-0.7,0.4-0.8,0.5l-0.1,0.1c-0.1,0-0.1,0-0.2,0c-0.3,0.1-0.5,0.1-0.8,0.1c-0.1,0-0.1,0-0.2,0l-0.8,0.1
					c0.1-0.1,0.2-0.3,0.2-0.4c-0.2-0.4-0.5-0.5-0.9-0.5c0.1,0,0,0.1-0.1,0.2c-0.2,0-0.3,0.1-0.4,0.4c0,0.2-0.1,0.3-0.1,0.4h-0.8
					c-0.2,0-0.3,0-0.4,0.1c-0.4-0.1-0.8-0.2-1-0.5c-0.1-0.1-0.1-0.2-0.1-0.3c-0.4,0-0.9,0-1.3,0.1c-0.6,0.1-1.1,0.2-1.6,0.3
					c0-0.1-0.1-0.1-0.2-0.2c-0.2-0.2-0.4-0.3-0.7-0.2c-0.3,0.1-0.4,0.2-0.3,0.5c0,0,0.1,0.1,0.2,0.1c-0.3,0-0.6,0.1-0.8,0.1
					c-2,0.3-3.4,0-4.2-1c-0.6,0.5-1.2,0.8-1.8,1c-0.1,0.2-0.2,0.4-0.3,0.5c-0.3,0.2-0.6,0.2-1,0l-0.2-0.1c0,0-0.1-0.1-0.1-0.2
					c-0.1-0.2-0.1-0.4-0.2-0.7c-0.1,0.1-0.1,0.1-0.2,0.2c-0.3,0.1-0.6,0.2-0.9,0.1l0,0c0,0.2,0,0.3-0.1,0.4
					c-0.2,0.4-0.6,0.6-1.1,0.6s-0.8-0.2-1-0.6H-79l-0.4-0.2l-0.5-0.5V-93H-80l-0.7-0.4c-0.1,0-0.1,0-0.2,0s-0.1-0.1-0.2-0.2
					s-0.1-0.1-0.1-0.2c-0.1,0-0.1,0.1-0.2,0.1l0,0c-0.1-0.2-0.2-0.3-0.4-0.4h-0.7c-0.1,0.4-0.3,0.7-0.6,1c-0.4,0.3-0.8,0.3-1.2,0.1
					l-0.4-0.1l-0.2-0.3c-0.1-0.3-0.1-0.5,0-0.6c-0.1,0.1-0.2,0.3-0.3,0.4c-0.1,0.2-0.3,0.3-0.5,0.3h-0.7c-0.4,0-0.6,0-0.8-0.1
					c-0.3-0.1-0.5-0.2-0.6-0.4l-0.1-0.2c0,0.2-0.1,0.5-0.2,0.7c-0.2,0.3-0.4,0.4-0.8,0.5c-0.2,0-0.4,0-0.5-0.1h-0.2l-0.1-0.3l-0.6-1
					l-0.1-0.1c-0.2,0-0.5,0-0.7,0c0.2,0.5,0,1-0.6,1.3c-0.4,0.2-0.7,0.1-0.9,0c-0.2-0.1-0.4-0.4-0.6-0.9v-0.3c-0.2,0-0.3,0-0.5,0
					c0.1,0.4,0.2,0.7,0.2,1c-0.1,0.5-0.4,0.8-0.9,0.8c-0.2,0-0.4,0-0.6-0.1s-0.3-0.3-0.4-0.5c0-0.3,0-0.5-0.1-0.6c0,0,0-0.1-0.1-0.3
					c-0.2,0-0.3,0-0.5,0.1c0,0.1,0.1,0.2,0.1,0.3c-0.1,0.4-0.3,0.6-0.8,0.8c-0.3,0.1-0.7,0.1-1.1,0c-0.1,0-0.2,0-0.3,0
					c-0.1,0.2-0.4,0.3-0.7,0.4h-0.4c-0.3-0.1-0.5-0.3-0.6-0.6v-0.2l-5,0.9c-1.3,0.2-2,0-2.1-0.7c-0.5,0.3-1.1,0.4-1.8,0.3
					c-0.6-0.2-1.1-0.5-1.4-1.1c-0.1-0.4-0.4-0.5-0.8-0.5c-0.3,0.1-0.6,0.2-0.9,0.4c-0.6,0.7-1.1,1.1-1.5,1.3
					c-0.9,0.4-1.8,0.1-2.6-0.8c-0.1-0.1-0.2-0.3-0.4-0.5c-0.3,0.1-0.7,0.3-1.1,0.5c-0.7,0.3-1.5,0.5-2.2,0.6h-0.1
					c-0.9,0-1.5-0.4-1.9-1c0,0.1,0,0.2-0.1,0.3c-0.3-0.3-0.8-0.3-1.5,0c-0.5,0.2-1,0.4-1.3,0.6c0,0-0.1,0-0.1-0.1
					c-0.5-0.2-0.9-0.3-1.2-0.3c-0.1,0-0.2,0-0.3,0c-0.1-0.3-0.1-0.6-0.1-0.9c-0.2,0.1-0.6,0.1-1,0.1c-0.1-0.1-0.2-0.2-0.4-0.3v0.3
					h-0.1c-0.7-0.1-1.3,0-1.6,0.1c-0.4,0.2-0.8,0.5-1,0.9v0.1c-0.4-0.3-0.6-0.4-0.8-0.5c-0.3-0.1-0.7-0.1-1.4-0.1
					c-0.1-0.2-0.2-0.5-0.3-0.8L-133.7-93.4 M-111.6-93.3C-111.7-93.3-111.7-93.3-111.6-93.3L-111.6-93.3l0.2-0.2h0.1
					c-0.1,0.1-0.1,0.2-0.1,0.3C-111.5-93.2-111.6-93.2-111.6-93.3 M-110.6-93.5L-110.6-93.5L-110.6-93.5
					C-110.7-93.5-110.7-93.5-110.6-93.5 M-85.3-93.1c0,0,0.1,0.1,0.1,0.2h-0.2C-85.5-93-85.4-93.1-85.3-93.1 M-46.6-92.2
					c-0.1,0-0.2,0-0.2,0l0.3-0.4c0.1,0.2,0.2,0.3,0.3,0.4H-46.6 M-14.8-92.9c-0.1,0-0.3,0-0.4,0c0.2,0,0.3-0.1,0.6-0.2L-14.8-92.9
					 M-196.5-93.2c0.1,0.1,0.1,0.2,0.2,0.2c-0.1,0-0.1,0-0.2,0C-196.5-93.1-196.5-93.1-196.5-93.2L-196.5-93.2 M-184.3-94.1
					c-0.1,0.1-0.2,0.3-0.4,0.4c0-0.1,0-0.2-0.1-0.2L-184.3-94.1 M-149.1-93.1l0.1,0.3h-0.2L-149.1-93.1z"/>
			</g>
		</g>
		<g>
			<path id="Ramp_RampSim_Assets_Cincline_Assets_CinclineRoughNew_0_Layer0_0_1_STROKES" class="st9" d="M12-92.7h0.5l0,10l-300,0
				v-8.7 M-287.5-92.1v-0.5h0.4"/>
		</g>
	</g>
</g>
<g id="roughramp" transform="matrix( 1.3032684326171875, 0.84393310546875, -0.84393310546875, 1.3032684326171875, 408.95,399.3) " class="st6">
	<g transform="matrix( 1, 0, 0, 1, 0,0) " class="st7">
		<g>
			<g>
				<path class="st8" d="M-105.8-95.1c-0.1,0-0.1,0-0.2,0C-105.9-95.1-105.9-95.1-105.8-95.1C-105.9-95.1-105.8-95-105.8-95.1
					C-105.8-95-105.8-95.1-105.8-95.1 M-133.7-93.4c-1.1,0-2.2-0.1-3.3-0.3c-0.4,0.5-0.9,0.7-1.5,0.7c0-0.3-0.2-0.6-0.5-0.9
					c-0.3-0.2-0.6-0.3-1-0.2c-0.4,0.1-0.7,0.3-0.9,0.6c0,0.2-0.1,0.3-0.1,0.5c-0.2-0.2-0.6-0.3-1-0.4c-0.6-0.1-1.3-0.1-2.1,0.2
					c-0.9,0.3-1.6,0.4-2,0.5c-0.8,0.1-1.4-0.1-1.9-0.5c0.1-0.7-0.1-1.4-0.6-2c-0.7,1-1.7,1.6-3.1,1.8c-1.3,0.2-2.5-0.1-3.4-0.9
					l-1.3,1.3h-0.6c0-0.2-0.1-0.5-0.2-0.7c-0.2-0.4-0.5-0.7-0.9-0.9l-3.6,1.5c-1-0.3-1.8-0.2-2.6,0.4c0.5-0.4,0.5-0.9-0.1-1.5
					c-0.3-0.8-0.9-1-1.6-0.8c-0.5,0.2-1.1,0.5-1.6,1.1c-0.3,0.2-0.5,0.4-0.7,0.6c-0.2-0.1-0.4-0.2-0.6-0.2c0-0.2,0-0.3,0-0.5
					c-2.1-0.3-4.2-0.2-6.2,0.5c0.2-0.3,0.1-0.6-0.4-0.8c-0.5-0.2-0.9-0.2-1.3,0c-0.2,0.2-0.6,0.4-1.1,0.8c-0.4,0.2-0.8,0.3-1.1,0.1
					c0.4-0.1,0.4-0.3,0.1-0.6c-0.3-0.3-0.6-0.5-1-0.5c-0.9,0.2-1.5,0.7-1.9,1.5c-0.4-0.5-0.9-0.7-1.5-0.8c0.2-0.1,0.3-0.3,0.2-0.6
					c-0.1-0.3-0.2-0.5-0.4-0.6c-0.2-0.2-0.7-0.1-1.3,0.1l-5.2,1.6c0.1-0.5-0.1-1-0.5-1.4c-0.8,0.8-1.5,1.2-2.2,1.4
					c-0.2-0.1-0.4-0.2-0.6-0.2s-0.4,0.1-0.6,0.1c-0.1-0.1-0.2-0.1-0.3-0.1c-0.3-0.1-0.6-0.1-0.8,0c-0.4-0.1-0.7-0.2-1-0.3
					c-0.7-0.4-1.6-0.2-2.7,0.4v-0.1c0.1-0.1,0.2-0.3,0.2-0.6c0-0.2-0.1-0.4-0.2-0.5c-0.2-0.1-0.4-0.2-0.6-0.1
					c-0.2,0-0.3,0.1-0.5,0.3c0,0-0.1,0.3-0.2,0.7l0,0c-0.1-0.3-0.3-0.5-0.6-0.5c-0.1,0-0.5,0.1-1.1,0.4c-0.3,0.2-0.9,0.3-1.8,0.4
					l-2,0.2c0.2-0.3,0.2-0.6-0.1-1c-0.2-0.3-0.5-0.5-0.9-0.4c-0.2,0-0.6,0.3-1.2,0.8c-0.5,0.5-0.9,0.6-1.3,0.3l-1.5-1.2
					c-0.2,0.4-0.7,0.6-1.2,0.7c0-0.2,0-0.4,0-0.5c0-0.2-0.1-0.4-0.3-0.5c-0.1-0.2-0.3-0.3-0.5-0.2c-0.1,0-0.3,0.2-0.4,0.3
					c0,0.1-0.1,0.2-0.2,0.5c-0.1,0.2-0.2,0.3-0.4,0.4c-0.1,0.1-0.3,0.1-0.4,0h-0.1c-0.1-0.4-0.4-0.7-0.9-0.7c-0.3,0-0.7,0.1-1.2,0.3
					l-1.6,0.8c-0.1-0.2-0.2-0.4-0.4-0.6c-0.3-0.3-0.7-0.5-1-0.4c-0.4,0.1-0.7,0.4-1,1l-0.1,0.4c-0.1,0-0.1,0-0.2,0
					c0-0.1-0.1-0.2-0.2-0.3c-0.1-0.2-0.3-0.4-0.6-0.4s-0.5,0.1-0.6,0.3l-0.3,0.2c0-0.1,0-0.2,0-0.3c0-0.2-0.2-0.4-0.4-0.6
					c-0.3-0.2-0.5-0.2-0.8-0.2c-0.4,0.1-0.7,0.2-0.8,0.5h-0.1c-0.1,0-0.3,0-0.4,0c0-0.1-0.2-0.2-0.4-0.2c-0.4-0.1-0.8-0.2-1.2,0
					c-0.9,0.2-1.6,0.7-1.9,1.4c-0.2-0.6-0.5-1-1.1-1.1c-0.2,0-0.4,0-0.8,0c0,0,0-0.1-0.1-0.1c-0.2-0.3-0.6-0.3-1.3-0.2l0,0
					c-0.2-0.1-0.4-0.3-0.6-0.5c-0.3-0.3-0.6-0.4-0.8-0.4c-0.3,0-0.7,0.3-1.2,0.9c-0.2,0.3-0.4,0.5-0.6,0.6c-0.2,0-0.5,0.1-0.7,0.2
					c-0.1-0.4-0.4-0.6-1.1-0.5l-0.7,0.2c-0.3,0.1-0.5,0.1-0.7,0.1c-0.4,0-0.9-0.4-1.5-1c0,0.3-0.2,0.5-0.6,0.7
					c-0.3,0.1-0.7,0.2-1,0.1c-1-0.1-1.7,0.1-1.9,0.5c0.1-0.2,0-0.4-0.1-0.6c-0.2-0.2-0.4-0.3-0.7-0.3c-0.6,0.1-1.1,0.2-1.5,0.2
					c-0.5,0.1-0.9,0.2-1,0.2c-0.1,0.1-0.2,0.2-0.3,0.5c-0.2,0-0.4,0-0.8,0.1c-0.1-0.2-0.3-0.4-0.5-0.5c-0.3-0.1-0.6-0.1-0.8-0.1
					c-0.3,0.1-0.7,0.4-1.2,0.9c0.1-0.2,0.1-0.4-0.1-0.5c0-0.1,0-0.2-0.1-0.2c-0.1-0.4-0.4-0.7-0.8-0.7c-0.3,0-0.5,0.2-0.8,0.5
					s-0.7,0.6-1.2,0.9c-0.1,0-0.2,0-0.2,0c-0.3-0.1-0.5-0.2-0.5-0.5l-0.8,0.8l-0.8-0.8c-0.3,0.4-0.7,0.7-1.2,1
					c-0.1-0.1-0.2-0.2-0.3-0.2c0-0.1-0.1-0.2-0.1-0.3c-0.1-0.3-0.3-0.5-0.6-0.6c-0.2-0.1-0.5-0.1-0.8,0c-0.3,0.1-0.5,0.2-0.6,0.4
					l-0.3-0.6v-0.1l-0.6-1c-0.5-0.1-0.9,0.3-1.2,1.3v0.1c-0.1-0.1-0.2-0.2-0.4-0.3c-0.3-0.1-0.6-0.1-0.9,0l-0.8,0.2
					c-0.5-0.2-0.9-0.2-1.3,0.1v0.1c-0.5,0.2-0.8,0.3-1,0.4c0,0-0.1,0.1-0.1,0.2c-0.1,0-0.3,0-0.4,0c-0.2,0-0.3-0.1-0.5-0.1l-0.1-0.1
					c-0.1-0.4-0.2-0.7-0.5-0.9c-0.4,0.1-0.9,0.2-1.6,0.2c0.1-0.3-0.1-0.4-0.4-0.5c-0.2,0-0.5,0-0.7,0.1l-1.4,0.4
					c-0.1,0-0.1-0.1-0.2-0.1c-0.7-0.1-1.3-0.1-1.7,0.1c-0.1,0-0.1-0.1-0.2-0.1c-0.3-0.1-0.5-0.2-0.8-0.1c-0.2,0-0.4,0.1-0.7,0.3
					v-0.1c0-0.6-0.1-1-0.3-1.1c-0.4-0.3-0.8-0.2-1.2,0.3c-0.2,0.2-0.3,0.6-0.4,1.2c-0.1,0.2-0.3,0.2-0.6,0.2
					c-0.2-0.1-0.4-0.2-0.6-0.4s-0.4-0.4-0.5-0.6c-0.2-0.2-0.4-0.3-0.6-0.3c-0.6-0.1-1,0.3-1.4,1.2c-0.3-0.7-0.9-1-1.9-0.9
					c-0.5,0.1-0.8,0.1-1.1,0.2c-0.5,0.1-0.8,0.1-1.1,0c-0.7-0.2-1.2-0.3-1.6-0.3c-0.6,0-1.1,0.4-1.7,1c-0.3,0.3-0.5,0.5-0.7,0.8
					h-0.4v0.5c-0.2,0.2-0.3,0.5-0.4,0.8c0.1,0,0.3,0,0.4,0v8.7l300,0l0-10H11c0-0.2,0-0.5-0.1-0.8c-0.1-0.5-0.4-0.8-0.8-1
					c-0.2,0-0.4,0.2-0.5,0.3c-0.1,0.2-0.2,0.4-0.2,0.6c-0.3-0.8-0.8-1.4-1.6-1.7l0.5,1.1c0-0.8-0.3-1.4-0.9-1.9
					C7.3-95,7-94.4,6.3-94c-0.3,0.2-0.7,0.4-1.1,0.5l-0.1-0.3c-0.1,0.1-0.2,0.2-0.3,0.3c-0.2,0-0.3-0.1-0.5-0.1l-0.6-1.1
					c-0.6,0.1-1,0.5-1.2,1.2l-0.9-1.3l-0.7,0.6C0.5-94.3,0.2-94,0-93.5c-0.2-0.4-0.6-0.6-1.1-0.4c-0.6,0.1-0.8,0.4-0.8,0.9
					c-0.8-0.5-1.8-0.7-3-0.8c-0.6,0-1.4,0-2.4,0.1c-0.1,0.2-0.3,0.3-0.5,0.5c-0.3,0.1-0.8,0.2-1.5,0.1c-0.5-0.1-1-0.1-1.5-0.1h-0.7
					c0,0,0-0.1,0.1-0.1c-1.4-0.1-2.8-0.1-4.2-0.1c-0.3,0.3-0.6,0.5-0.8,0.5l-0.3-0.5c-0.9,0-1.9,0-2.9,0.1c-0.5-0.4-1.2-0.5-2.2-0.3
					c-1.3,0.2-2.1,0.2-2.6,0.1c-0.2-0.3-0.4-0.6-0.5-0.7l-1,0.8l-0.2-0.8c-0.1-0.1-0.2-0.2-0.3-0.2c-0.1-0.1-0.2-0.1-0.3,0
					s-0.2,0.3-0.2,0.7c-0.1,0.5-0.3,0.9-0.7,1.2c0-0.2-0.1-0.4-0.4-0.7c-0.4-0.3-0.7-0.3-0.8-0.1c0,0.1,0,0.1,0,0.2
					s-0.1,0.2-0.1,0.3c-0.1,0.3-0.3,0.5-0.6,0.6c-0.3,0.1-0.6,0.1-0.8,0c0-0.5-0.1-0.8-0.4-1.1c-1,0.1-1.9,0.3-3,0.3
					c0.1-0.1,0.2-0.3,0.2-0.5s-0.1-0.4-0.2-0.5c-0.2-0.2-0.6-0.3-1.1-0.3c-0.6,0-1.2,0.3-1.9,0.7c-0.8,0.5-1.4,0.9-1.8,1.1
					c-0.1,0.1-0.3,0.2-0.4,0.3l-0.1-1.7c-0.1-0.4-0.2-0.6-0.3-0.7c-0.3-0.2-0.6,0-1,0.6l-0.5,1c-0.1-0.2-0.4-0.2-0.6-0.2l-0.1,0.2
					c-0.1,0-0.2,0-0.4,0.1l-0.2,0.4c0,0-0.1,0.1-0.2,0.1c0,0-0.1,0-0.2,0c0-0.2,0-0.4-0.1-0.6c-0.1-0.3-0.2-0.4-0.3-0.5
					c-0.2-0.1-0.3-0.1-0.5,0.1c-0.1,0.2-0.1,0.5-0.1,0.8c-0.3,0-0.6,0-0.9,0.1l0.2-0.3c0.1-0.2,0.1-0.3,0.1-0.4
					c0-0.2-0.2-0.3-0.4-0.3c-0.1,0-0.3,0.1-0.5,0.4c0-0.1-0.1-0.2-0.1-0.2c-0.1-0.3-0.3-0.5-0.7-0.6c-0.6-0.2-1.1,0-1.6,0.5
					c-0.2-0.5-0.6-0.7-1.2-0.6c-0.2,0-0.6,0.2-1.3,0.5c-0.8,0.5-1.7,0.7-2.7,0.8c0.1-0.1,0.1-0.3,0-0.5s-0.2-0.3-0.4-0.3
					c-0.3-0.1-0.6,0-0.9,0.3c-0.3,0.2-0.6,0.3-0.8,0.4c-0.1,0-0.3,0-0.4,0h-0.1c-0.2,0-0.3-0.1-0.5-0.2c-0.3-0.2-0.5-0.2-0.7-0.2
					c-0.4,0.2-0.7,0.4-0.8,0.5l-0.1,0.1c-0.1,0-0.1,0-0.2,0c-0.3,0.1-0.5,0.1-0.8,0.1c-0.1,0-0.1,0-0.2,0l-0.8,0.1
					c0.1-0.1,0.2-0.3,0.2-0.4c-0.2-0.4-0.5-0.5-0.9-0.5c0.1,0,0,0.1-0.1,0.2c-0.2,0-0.3,0.1-0.4,0.4c0,0.2-0.1,0.3-0.1,0.4h-0.8
					c-0.2,0-0.3,0-0.4,0.1c-0.4-0.1-0.8-0.2-1-0.5c-0.1-0.1-0.1-0.2-0.1-0.3c-0.4,0-0.9,0-1.3,0.1c-0.6,0.1-1.1,0.2-1.6,0.3
					c0-0.1-0.1-0.1-0.2-0.2c-0.2-0.2-0.4-0.3-0.7-0.2c-0.3,0.1-0.4,0.2-0.3,0.5c0,0,0.1,0.1,0.2,0.1c-0.3,0-0.6,0.1-0.8,0.1
					c-2,0.3-3.4,0-4.2-1c-0.6,0.5-1.2,0.8-1.8,1c-0.1,0.2-0.2,0.4-0.3,0.5c-0.3,0.2-0.6,0.2-1,0l-0.2-0.1c0,0-0.1-0.1-0.1-0.2
					c-0.1-0.2-0.1-0.4-0.2-0.7c-0.1,0.1-0.1,0.1-0.2,0.2c-0.3,0.1-0.6,0.2-0.9,0.1l0,0c0,0.2,0,0.3-0.1,0.4
					c-0.2,0.4-0.6,0.6-1.1,0.6s-0.8-0.2-1-0.6H-79l-0.4-0.2l-0.5-0.5V-93H-80l-0.7-0.4c-0.1,0-0.1,0-0.2,0s-0.1-0.1-0.2-0.2
					s-0.1-0.1-0.1-0.2c-0.1,0-0.1,0.1-0.2,0.1l0,0c-0.1-0.2-0.2-0.3-0.4-0.4h-0.7c-0.1,0.4-0.3,0.7-0.6,1c-0.4,0.3-0.8,0.3-1.2,0.1
					l-0.4-0.1l-0.2-0.3c-0.1-0.3-0.1-0.5,0-0.6c-0.1,0.1-0.2,0.3-0.3,0.4c-0.1,0.2-0.3,0.3-0.5,0.3h-0.7c-0.4,0-0.6,0-0.8-0.1
					c-0.3-0.1-0.5-0.2-0.6-0.4l-0.1-0.2c0,0.2-0.1,0.5-0.2,0.7c-0.2,0.3-0.4,0.4-0.8,0.5c-0.2,0-0.4,0-0.5-0.1h-0.2l-0.1-0.3l-0.6-1
					l-0.1-0.1c-0.2,0-0.5,0-0.7,0c0.2,0.5,0,1-0.6,1.3c-0.4,0.2-0.7,0.1-0.9,0c-0.2-0.1-0.4-0.4-0.6-0.9v-0.3c-0.2,0-0.3,0-0.5,0
					c0.1,0.4,0.2,0.7,0.2,1c-0.1,0.5-0.4,0.8-0.9,0.8c-0.2,0-0.4,0-0.6-0.1s-0.3-0.3-0.4-0.5c0-0.3,0-0.5-0.1-0.6c0,0,0-0.1-0.1-0.3
					c-0.2,0-0.3,0-0.5,0.1c0,0.1,0.1,0.2,0.1,0.3c-0.1,0.4-0.3,0.6-0.8,0.8c-0.3,0.1-0.7,0.1-1.1,0c-0.1,0-0.2,0-0.3,0
					c-0.1,0.2-0.4,0.3-0.7,0.4h-0.4c-0.3-0.1-0.5-0.3-0.6-0.6v-0.2l-5,0.9c-1.3,0.2-2,0-2.1-0.7c-0.5,0.3-1.1,0.4-1.8,0.3
					c-0.6-0.2-1.1-0.5-1.4-1.1c-0.1-0.4-0.4-0.5-0.8-0.5c-0.3,0.1-0.6,0.2-0.9,0.4c-0.6,0.7-1.1,1.1-1.5,1.3
					c-0.9,0.4-1.8,0.1-2.6-0.8c-0.1-0.1-0.2-0.3-0.4-0.5c-0.3,0.1-0.7,0.3-1.1,0.5c-0.7,0.3-1.5,0.5-2.2,0.6h-0.1
					c-0.9,0-1.5-0.4-1.9-1c0,0.1,0,0.2-0.1,0.3c-0.3-0.3-0.8-0.3-1.5,0c-0.5,0.2-1,0.4-1.3,0.6c0,0-0.1,0-0.1-0.1
					c-0.5-0.2-0.9-0.3-1.2-0.3c-0.1,0-0.2,0-0.3,0c-0.1-0.3-0.1-0.6-0.1-0.9c-0.2,0.1-0.6,0.1-1,0.1c-0.1-0.1-0.2-0.2-0.4-0.3v0.3
					h-0.1c-0.7-0.1-1.3,0-1.6,0.1c-0.4,0.2-0.8,0.5-1,0.9v0.1c-0.4-0.3-0.6-0.4-0.8-0.5c-0.3-0.1-0.7-0.1-1.4-0.1
					c-0.1-0.2-0.2-0.5-0.3-0.8L-133.7-93.4 M-111.6-93.3C-111.7-93.3-111.7-93.3-111.6-93.3L-111.6-93.3l0.2-0.2h0.1
					c-0.1,0.1-0.1,0.2-0.1,0.3C-111.5-93.2-111.6-93.2-111.6-93.3 M-110.6-93.5L-110.6-93.5L-110.6-93.5
					C-110.7-93.5-110.7-93.5-110.6-93.5 M-85.3-93.1c0,0,0.1,0.1,0.1,0.2h-0.2C-85.5-93-85.4-93.1-85.3-93.1 M-46.6-92.2
					c-0.1,0-0.2,0-0.2,0l0.3-0.4c0.1,0.2,0.2,0.3,0.3,0.4H-46.6 M-14.8-92.9c-0.1,0-0.3,0-0.4,0c0.2,0,0.3-0.1,0.6-0.2L-14.8-92.9
					 M-196.5-93.2c0.1,0.1,0.1,0.2,0.2,0.2c-0.1,0-0.1,0-0.2,0C-196.5-93.1-196.5-93.1-196.5-93.2L-196.5-93.2 M-184.3-94.1
					c-0.1,0.1-0.2,0.3-0.4,0.4c0-0.1,0-0.2-0.1-0.2L-184.3-94.1 M-149.1-93.1l0.1,0.3h-0.2L-149.1-93.1z"/>
			</g>
		</g>
		<g>
			<path class="st9" d="M12-92.7h0.5l0,10l-300,0v-8.7 M-287.5-92.1v-0.5h0.4"/>
		</g>
	</g>
</g>
<g id="rubberball_x5F_yel" transform="matrix( 1.20745849609375, 0.9379730224609375, -0.9379730224609375, 1.20745849609375, 267.9,235.9) ">
	<g transform="matrix( 1, 0, 0, 1, 0,0) ">
		<g>
			<g>
				
					<radialGradient id="SVGID_1_" cx="101.1169" cy="36.9775" r="17.7783" gradientTransform="matrix(6.599 -5.1262 -5.1262 -6.599 -622.934 702.6354)" gradientUnits="userSpaceOnUse">
					<stop  offset="0.3294" style="stop-color:#FFFF00"/>
					<stop  offset="1" style="stop-color:#C1C002"/>
				</radialGradient>
				<path class="st10" d="M-133.1-47.5c3.4-3.4,5-7.4,5-12.2c0-4.8-1.7-8.8-5-12.2c-3.3-3.4-7.5-5-12.2-5s-8.8,1.7-12.1,5.1
					s-5.1,7.4-5.1,12.1s1.7,8.8,5.1,12.2s7.4,5.1,12.2,5.1C-140.6-42.5-136.5-44.2-133.1-47.5z"/>
			</g>
		</g>
		<g>
			<path class="st2" d="M-133.1-47.5c-3.4,3.4-7.4,5.1-12.2,5.1c-4.7,0-8.8-1.7-12.2-5.1c-3.3-3.4-5-7.5-5-12.2s1.7-8.8,5-12.2
				s7.5-5,12.2-5s8.8,1.7,12.2,5c3.4,3.3,5.1,7.4,5.1,12.2C-128-54.9-129.8-50.9-133.1-47.5z"/>
		</g>
	</g>
	<g transform="matrix( 1, 0, 0, 1, 0,0) ">
		<g>
			<g>
				
					<radialGradient id="SVGID_2_" cx="101.1118" cy="36.9771" r="19.6" gradientTransform="matrix(6.599 -5.1262 -5.1262 -6.599 -622.884 700.4354)" gradientUnits="userSpaceOnUse">
					<stop  offset="0" style="stop-color:#FF0000"/>
					<stop  offset="1" style="stop-color:#760101"/>
				</radialGradient>
				<path class="st11" d="M-145.8-60.2l0.5,0.5l0,0L-145.8-60.2z"/>
				
					<radialGradient id="SVGID_3_" cx="101.1118" cy="36.9771" r="21.15" gradientTransform="matrix(6.599 -5.1262 -5.1262 -6.599 -622.884 702.6854)" gradientUnits="userSpaceOnUse">
					<stop  offset="0.3765" style="stop-color:#FFFFFF"/>
					<stop  offset="1" style="stop-color:#999999"/>
				</radialGradient>
				<path class="st12" d="M-144.7-59.1l-0.5-0.5l0,0L-144.7-59.1z"/>
			</g>
		</g>
		<g>
			<path class="st13" d="M-144.7-59.1l-0.6-0.6 M-133-47.4l-0.4-0.4 M-145.2-59.6l-0.5-0.5"/>
		</g>
		<g>
			<path class="st14" d="M-144.7-59.1l-0.6-0.6l0,0 M-144.7-59.1c0.1,0.1,0.1,0.1,0.2,0.2c3.7,3.7,7.4,7.4,11.1,11 M-157.4-71.8
				l11.7,11.7l0.6,0.5l12.1-12.3 M-145.2-59.6l-12.2,12.2"/>
		</g>
		<g>
			<path class="st2" d="M-128-59.7c0,4.7-1.6,8.7-4.8,12.1c-0.1,0-0.1,0.1-0.1,0.2l0,0c-0.3,0.3-0.6,0.6-0.9,0.8
				c-3.2,2.8-7,4.2-11.3,4.2c-4.8,0-8.8-1.7-12.2-5c-3.5-3.4-5.2-7.5-5.2-12.2c0-1.2,0.1-2.3,0.3-3.3c0.5-3,1.8-5.7,3.9-8
				c0.3-0.3,0.6-0.6,0.9-0.9l0,0c3.3-3.4,7.4-5.1,12.2-5.1s8.8,1.7,12.2,5C-129.6-68.6-128-64.4-128-59.7z"/>
		</g>
	</g>
</g>
<g id="rubberball_x5F_red" transform="matrix( 1, 0, 0, 1, 270.55,272.9) " class="st6">
	<g transform="matrix( 1, 0, 0, 1, 0,0) " class="st7">
		<g>
			<g id="pinkball_0_Layer0_0_FILL">
				
					<radialGradient id="SVGID_4_" cx="-1554.0194" cy="-412.812" r="27.2063" gradientTransform="matrix(0.7898 0.6134 0.6134 -0.7898 1359.5769 382.7093)" gradientUnits="userSpaceOnUse">
					<stop  offset="0.3294" style="stop-color:#FFFF00"/>
					<stop  offset="1" style="stop-color:#C1C002"/>
				</radialGradient>
				<path class="st15" d="M-136-266.2c-1.1,0.7-2.1,1.6-3,2.5c0.2-0.2,0.4-0.4,0.6-0.5C-137.6-264.9-136.8-265.5-136-266.2
					 M-124.3-270.5L-124.3-270.5c1.6-0.2,3.1-0.2,4.6-0.2C-121.2-270.8-122.7-270.8-124.3-270.5z"/>
				<path class="st16" d="M-127.3-270c-0.1,0-0.2,0-0.2,0.1l-8.5,3.8c-0.8,0.6-1.6,1.2-2.5,2c-0.2,0.2-0.4,0.4-0.6,0.5l-2.5,2.7
					c0,0.1-0.1,0.1-0.2,0.2l-0.1,0.1l-0.1,0.1l-5.3,14.1c-0.1,1.7,0,3.4,0.2,5.2v0.1l26.1-3.3l-0.2-1.3l-3.2-24.9
					c-0.6,0.1-1.3,0.2-1.9,0.3c-0.2,0-0.3,0.1-0.5,0.1c-0.1,0-0.2,0-0.2,0c-0.1,0-0.1,0-0.2,0.1C-127.2-270-127.2-270-127.3-270
					 M-120.9-243.1c0,0.1,0,0.2,0,0.4c1,7.9,2,15.8,3,23.7v0.6c7.2-0.9,13.1-4.3,17.5-10s6.2-12.1,5.3-19.2l-25.9,3.3L-120.9-243.1
					 M-120.8-242.8c0-0.2,0-0.3,0-0.4l-0.2-1.2l-26.1,3.2c1,7.2,4.3,13,10,17.4c5.7,4.5,12.1,6.3,19.3,5.4v-0.6
					C-118.8-227-119.8-234.8-120.8-242.8 M-107.1-266.9c-0.1,0-0.1-0.1-0.2-0.1l-12.4-3.8c-1.5,0-3,0-4.6,0.2l0,0l3.2,24.9l0.1,1.4
					l26-3.3v-0.1c-0.3-2.3-0.8-4.5-1.5-6.5l-6-9c-0.7-0.7-1.5-1.3-2.3-1.9l-0.1-0.1c-0.2-0.2-0.4-0.3-0.7-0.5
					c-0.4-0.3-0.8-0.6-1.2-0.8C-106.9-266.6-107-266.8-107.1-266.9z"/>
				
					<radialGradient id="SVGID_5_" cx="-1554.1787" cy="-412.681" r="29.9592" gradientTransform="matrix(0.7898 0.6133 0.6133 -0.7898 1361.7312 380.1284)" gradientUnits="userSpaceOnUse">
					<stop  offset="0" style="stop-color:#FF0000"/>
					<stop  offset="1" style="stop-color:#760101"/>
				</radialGradient>
				<path class="st17" d="M-121-244.4L-121-244.4l-0.2-1.3L-121-244.4z"/>
				
					<radialGradient id="SVGID_6_" cx="-1553.9615" cy="-413.1333" r="32.3371" gradientTransform="matrix(0.7897 0.6135 0.6135 -0.7897 1359.6241 382.7176)" gradientUnits="userSpaceOnUse">
					<stop  offset="0.3765" style="stop-color:#FFFFFF"/>
					<stop  offset="1" style="stop-color:#999999"/>
				</radialGradient>
				<path class="st18" d="M-120.9-243.1l-0.1-1.2v-0.1L-120.9-243.1z"/>
			</g>
		</g>
		<g>
			<path id="pinkball_0_Layer0_0_1_STROKES" class="st2" d="M-119.7-270.8l12.4,3.8c0.1,0,0.1,0.1,0.2,0.1c0.1,0.1,0.3,0.2,0.4,0.3
				c0.4,0.2,0.8,0.5,1.2,0.8c0.2,0.2,0.4,0.3,0.7,0.5l0.1,0.1c0.8,0.6,1.6,1.3,2.3,1.9l6,9c0.8,2,1.4,4.2,1.6,6.6
				c0.9,7.2-0.9,13.7-5.4,19.5c-4.4,5.7-10.1,9-17.1,10c-0.1,0-0.2,0-0.3,0v-0.1c-0.7,0.1-1.3,0.2-1.9,0.2
				c-6.5,0.4-12.3-1.5-17.5-5.5c-5.8-4.5-9.1-10.4-10-17.6c-0.2-1.8-0.3-3.6-0.1-5.3l5.4-14.1l0.1-0.1l0.1-0.1
				c0.1-0.1,0.1-0.1,0.2-0.2l2.5-2.7c1-0.9,2-1.8,3-2.5l8.5-3.8c0,0,0.1-0.1,0.2-0.1s0.1,0,0.2,0s0.1-0.1,0.2-0.1s0.2,0,0.2,0
				c0.1,0,0.3-0.1,0.5-0.1c0.6-0.1,1.3-0.2,1.9-0.3C-122.7-270.8-121.2-270.8-119.7-270.8c-1.5,0-3,0-4.6,0.2l0,0 M-95-247.6
				L-95-247.6c-0.3-2.4-0.8-4.6-1.5-6.6 M-95-247.6c0.9,7.2-0.9,13.6-5.3,19.2c-4.4,5.7-10.3,9.1-17.5,10 M-147.1-241.1
				c1,7.2,4.3,13,10,17.4s12.1,6.2,19.3,5.3 M-139-263.6c0.2-0.2,0.4-0.4,0.6-0.5c0.8-0.7,1.6-1.4,2.5-2 M-147.1-241.1L-147.1-241.1
				c-0.2-1.9-0.3-3.7-0.2-5.3"/>
		</g>
		<g>
			<path id="pinkball_0_Layer0_0_2_STROKES" class="st19" d="M-121.2-245.6l-3.2-24.9 M-95-247.6l-26,3.3 M-117.8-219
				c-1-7.9-2-15.8-3-23.7c0-0.2,0-0.3,0-0.4 M-121-244.4l-26.1,3.2"/>
		</g>
		<g>
			<path id="pinkball_0_Layer0_0_3_STROKES" class="st14" d="M-121-244.3l-0.2-1.3 M-94.9-247.7L-94.9-247.7 M-120.9-243.1l-0.1-1.2
				v-0.1 M-147.1-241.1L-147.1-241.1"/>
		</g>
		<g>
			<path id="pinkball_0_Layer0_0_4_STROKES" class="st13" d="M-117.7-218.3v-0.1 M-120.9-243.1l-0.1-1.3 M-117.8-218.4v-0.6
				 M-121-244.4l-0.2-1.3"/>
		</g>
	</g>
</g>
<g id="golf_x5F_red" transform="matrix( 1, 0, 0, 1, 271.3,273.3) " class="st6">
	<g transform="matrix( 1, 0, 0, 1, 0,0) " class="st7">
		<g>
			<g id="pinkgb_0_Layer0_0_FILL">
				
					<radialGradient id="SVGID_7_" cx="-1559.1688" cy="-413.028" r="27.2063" gradientTransform="matrix(0.7898 0.6134 0.6134 -0.7898 1362.0341 384.1937)" gradientUnits="userSpaceOnUse">
					<stop  offset="0.3294" style="stop-color:#FFFF00"/>
					<stop  offset="1" style="stop-color:#C1C002"/>
				</radialGradient>
				<path class="st20" d="M-126-272L-126-272c1.6-0.2,3.1-0.2,4.6-0.2C-122.9-272.3-124.4-272.3-126-272z"/>
				
					<radialGradient id="SVGID_8_" cx="-1478.4594" cy="1142.9393" r="26.114" gradientTransform="matrix(1 0 0 -1 1356.3999 896.9785)" gradientUnits="userSpaceOnUse">
					<stop  offset="0" style="stop-color:#FF43BA"/>
					<stop  offset="1" style="stop-color:#FFFFFF"/>
				</radialGradient>
				<path class="st21" d="M-96.5-246c0-3.5-0.6-6.7-1.8-9.8c-1.3-3.2-3.2-6-5.8-8.6c-5-5.1-11-7.6-18-7.6c-3.4,0-6.6,0.6-9.5,1.8
					c-3.1,1.3-5.9,3.2-8.5,5.8c-5,5.1-7.5,11.2-7.5,18.4s2.5,13.3,7.5,18.4s11,7.6,18,7.6c3.3,0,6.4-0.5,9.2-1.6
					c3.2-1.3,6.2-3.3,8.8-6C-99-232.7-96.5-238.8-96.5-246z"/>
			</g>
		</g>
		<g>
			<path id="pinkgb_0_Layer0_0_1_STROKES" class="st2" d="M-98.3-255.8c0.9,2,1.5,4.2,1.8,6.6c0.9,7.2-0.9,13.7-5.4,19.5
				c-3.5,4.5-7.8,7.5-13,9.1 M-126-272c1.6-0.2,3.1-0.3,4.6-0.2 M-98.3-255.8c1.2,3,1.8,6.3,1.8,9.8c0,7.2-2.5,13.3-7.5,18.4
				c-2.6,2.7-5.6,4.7-8.8,6c-2.8,1.1-5.9,1.6-9.2,1.6c-7,0-13-2.5-18-7.6s-7.5-11.2-7.5-18.4s2.5-13.3,7.5-18.4
				c2.6-2.6,5.4-4.5,8.5-5.8c2.9-1.2,6.1-1.8,9.5-1.8c7,0,13,2.5,18,7.6C-101.4-261.8-99.5-258.9-98.3-255.8z"/>
		</g>
		<g>
			<path id="pinkgb_0_Layer0_0_2_STROKES" class="st14" d="M-122.7-218.4l-0.1-0.7"/>
		</g>
	</g>
	<g transform="matrix( 1, 0, 0, 1, 0.7,0.05) " class="st7">
		<g transform="matrix( 1, 0, 0, 1, 0,0) ">
			<g>
				<g id="dots_0_Layer0_0_FILL">
					<path class="st22" d="M-128.8-226.6c-0.2,0-0.3,0-0.5,0c-0.3,0-0.5,0-0.7,0s-0.3,0.1-0.5,0.2c-0.2,0.2-0.3,0.4-0.5,0.5
						c-0.1,0.2-0.2,0.4-0.2,0.7c0,0.2,0.1,0.5,0.2,0.8c0.1,0.2,0.2,0.4,0.4,0.5c0.4,0.3,0.9,0.5,1.3,0.7c0.4-0.2,0.8-0.3,1.2-0.5
						c0.1-0.1,0.1-0.2,0.2-0.4c0.1,0.1,0.1,0.1,0.2,0.1c0.4,0.3,0.8,0.5,1.3,0.7c0.4-0.2,0.8-0.3,1.2-0.5c0.2-0.3,0.3-0.5,0.4-0.8
						c0.1-0.2,0.1-0.5,0.1-0.7c0-0.1-0.1-0.3-0.2-0.5c-0.3-0.3-0.6-0.6-0.9-0.9c-0.2,0-0.3,0-0.5,0c-0.3,0-0.5,0-0.8,0
						c-0.2,0-0.3,0.1-0.5,0.2c-0.2,0.2-0.3,0.3-0.4,0.5C-128.2-226.2-128.5-226.5-128.8-226.6 M-136-228.9c-0.1,0.2-0.2,0.4-0.2,0.7
						c0,0.2,0.1,0.5,0.2,0.8c0.1,0.2,0.2,0.4,0.4,0.5c0.4,0.3,0.9,0.5,1.4,0.7c0.4-0.2,0.8-0.3,1.2-0.5c0.2-0.3,0.3-0.5,0.4-0.8
						c0.1-0.2,0.1-0.5,0.1-0.7c-0.1-0.3-0.2-0.5-0.4-0.6c-0.3-0.3-0.6-0.6-0.9-0.9c-0.2,0-0.3,0-0.5,0c-0.3,0-0.5,0-0.8,0.1
						c-0.2,0-0.3,0.1-0.5,0.2C-135.7-229.2-135.9-229-136-228.9 M-135.9-239.8c-0.3-0.3-0.6-0.6-0.9-0.8c-0.2,0-0.3,0-0.5,0
						c-0.3,0-0.5,0-0.8,0.1c-0.2,0-0.3,0.1-0.5,0.2c-0.2,0.2-0.3,0.3-0.5,0.6c-0.1,0.2-0.2,0.4-0.2,0.7c0,0.2,0,0.5,0.1,0.8
						c0.1,0.2,0.2,0.4,0.4,0.6c0.4,0.3,0.9,0.5,1.4,0.7c0.4-0.2,0.8-0.3,1.2-0.5c0.2-0.3,0.3-0.5,0.4-0.8c0.1-0.2,0.1-0.5,0.1-0.7
						C-135.7-239.4-135.8-239.6-135.9-239.8 M-127.3-234.6c-0.3,0-0.5,0-0.8,0.1c-0.2,0-0.3,0.1-0.5,0.2c-0.2,0.2-0.3,0.3-0.4,0.6
						c-0.1,0.2-0.2,0.4-0.2,0.7c0,0.2,0.1,0.5,0.2,0.8c0.1,0.2,0.2,0.4,0.4,0.6c0.4,0.3,0.8,0.5,1.3,0.7c0.4-0.2,0.8-0.3,1.2-0.5
						c0.2-0.3,0.3-0.5,0.4-0.8c0.1-0.2,0.1-0.5,0.1-0.7c-0.1-0.5-0.2-0.7-0.3-0.9c-0.3-0.3-0.6-0.6-0.9-0.9
						C-127-234.6-127.1-234.6-127.3-234.6 M-130.8-244.7c-0.2,0-0.3,0-0.5,0c-0.3,0-0.5,0-0.8,0.1c-0.2,0-0.3,0.1-0.5,0.2
						c-0.2,0.2-0.3,0.3-0.5,0.5s-0.2,0.4-0.2,0.7c0,0.2,0.1,0.5,0.2,0.8c0.1,0.2,0.2,0.4,0.4,0.5c0.4,0.3,0.9,0.5,1.4,0.7
						c0.4-0.1,0.8-0.3,1.3-0.5c0.1-0.2,0.3-0.5,0.3-0.8c0.1-0.2,0.1-0.5,0.1-0.7c-0.1-0.2-0.2-0.4-0.3-0.6
						C-130.2-244.1-130.5-244.4-130.8-244.7 M-128.3-249.6c-0.3,0-0.5,0-0.8,0.1c-0.2,0-0.3,0.1-0.5,0.2c-0.1,0.1-0.3,0.2-0.4,0.4
						c-0.1,0.2-0.2,0.5-0.2,0.7s0.1,0.5,0.2,0.8c0,0.2,0.1,0.4,0.3,0.5c0.4,0.3,0.8,0.5,1.3,0.7c0.5-0.1,0.9-0.3,1.3-0.5
						c0.2-0.2,0.4-0.5,0.4-0.8c0.1-0.2,0.1-0.5,0.1-0.7c-0.1-0.2-0.2-0.4-0.3-0.6c-0.3-0.3-0.6-0.6-0.9-0.8
						C-128-249.6-128.1-249.6-128.3-249.6 M-132.2-256.2c0,0.2,0.1,0.5,0.2,0.8c0.1,0.2,0.2,0.4,0.4,0.6c0.4,0.3,0.9,0.5,1.4,0.7
						c0.3-0.2,0.7-0.4,1.1-0.5c0.2-0.3,0.3-0.5,0.4-0.8c0.1-0.2,0.1-0.5,0.1-0.7c-0.1-0.3-0.2-0.5-0.3-0.7c-0.3-0.3-0.6-0.6-0.9-0.9
						c-0.2,0-0.3,0-0.5,0c-0.3,0-0.5,0-0.8,0.1c-0.2,0-0.3,0.1-0.5,0.2c-0.2,0.2-0.3,0.3-0.5,0.6
						C-132.1-256.6-132.2-256.4-132.2-256.2 M-135.8-265.6c-0.2,0-0.3,0-0.5,0c-0.3,0-0.5,0-0.8,0c-0.2,0-0.3,0.1-0.5,0.2
						c-0.2,0.2-0.3,0.4-0.5,0.5c-0.1,0.2-0.2,0.4-0.2,0.7c0,0.2,0,0.5,0.1,0.8c0.1,0.2,0.2,0.4,0.4,0.5c0.4,0.3,0.9,0.5,1.4,0.7
						c0.4-0.2,0.8-0.3,1.2-0.5c0.2-0.3,0.3-0.5,0.4-0.8c0.1-0.2,0.1-0.5,0.1-0.7c-0.1-0.3-0.2-0.5-0.4-0.6
						C-135.2-265.1-135.5-265.4-135.8-265.6 M-130.8-261.6c-0.2,0-0.3,0-0.5,0c-0.3,0-0.5,0-0.8,0c-0.2,0-0.3,0.1-0.5,0.2
						c-0.2,0.2-0.3,0.3-0.5,0.6c-0.1,0.2-0.2,0.4-0.2,0.7c0,0.2,0.1,0.5,0.2,0.8c0.1,0.2,0.2,0.4,0.4,0.6c0.4,0.3,0.9,0.5,1.4,0.7
						c0.4-0.2,0.8-0.3,1.2-0.5c0.2-0.3,0.3-0.5,0.4-0.8c0.1-0.2,0.1-0.5,0.1-0.7c-0.1-0.4-0.2-0.6-0.3-0.8
						C-130.2-261.1-130.5-261.4-130.8-261.6 M-129.8-267.6c-0.2,0-0.3,0-0.5,0c-0.3,0-0.5,0-0.8,0c-0.2,0-0.3,0.1-0.5,0.2
						c-0.2,0.2-0.3,0.4-0.5,0.5c-0.1,0.2-0.2,0.4-0.2,0.7c0,0.2,0.1,0.5,0.2,0.8c0.1,0.2,0.2,0.4,0.4,0.5c0.4,0.3,0.9,0.5,1.4,0.7
						c0.4-0.2,0.8-0.3,1.2-0.5c0.2-0.3,0.3-0.5,0.4-0.8c0.1-0.2,0.1-0.5,0.1-0.7c-0.1-0.2-0.2-0.4-0.3-0.6
						C-129.2-267.1-129.5-267.4-129.8-267.6 M-142.8-246.7c-0.2,0-0.3,0-0.5,0c-0.3,0-0.5,0-0.8,0c-0.2,0-0.3,0.1-0.5,0.2
						c-0.2,0.2-0.3,0.4-0.5,0.6c-0.1,0.2-0.2,0.4-0.2,0.7c0,0.2,0,0.5,0.1,0.8c0.1,0.2,0.2,0.4,0.4,0.5c0.4,0.3,0.9,0.5,1.4,0.7
						c0.4-0.2,0.8-0.3,1.2-0.5c0.2-0.3,0.3-0.5,0.4-0.8c0.1-0.2,0.1-0.5,0.1-0.7s-0.1-0.4-0.2-0.6
						C-142.2-246.1-142.5-246.4-142.8-246.7 M-142.8-256.6c-0.2,0-0.3,0-0.5,0c-0.3,0-0.5,0-0.8,0.1c-0.2,0-0.3,0.1-0.5,0.2
						c-0.2,0.2-0.3,0.3-0.5,0.6c-0.1,0.2-0.2,0.4-0.2,0.7c0,0.2,0,0.5,0.1,0.8c0.1,0.2,0.2,0.4,0.4,0.6c0.4,0.3,0.9,0.5,1.4,0.7
						c0.4-0.2,0.8-0.3,1.2-0.5c0.2-0.3,0.3-0.5,0.4-0.8c0.1-0.2,0.1-0.5,0.1-0.7c-0.1-0.3-0.2-0.5-0.4-0.6
						C-142.2-256.1-142.5-256.4-142.8-256.6 M-118.8-224.6c-0.2,0-0.3,0-0.5,0c-0.3,0-0.5,0-0.7,0s-0.3,0.1-0.5,0.2
						c-0.2,0.2-0.3,0.4-0.5,0.5c-0.1,0.2-0.2,0.4-0.2,0.7c0,0.2,0.1,0.5,0.2,0.8c0.1,0.2,0.2,0.4,0.4,0.5c0.4,0.3,0.9,0.5,1.3,0.7
						c0.4-0.2,0.8-0.3,1.2-0.5c0.2-0.2,0.4-0.5,0.4-0.7c0.1-0.2,0.1-0.5,0.1-0.7c-0.1-0.3-0.2-0.5-0.3-0.7
						C-118.2-224.1-118.5-224.4-118.8-224.6 M-112-228.9c-0.1,0.2-0.2,0.4-0.2,0.7c0,0.2,0.1,0.5,0.2,0.8c0.1,0.2,0.2,0.4,0.4,0.5
						c0.4,0.3,0.9,0.5,1.4,0.7c0.4-0.2,0.8-0.3,1.2-0.5c0,0.1,0,0.1,0.1,0.2c0.1,0.2,0.2,0.4,0.4,0.5c0.4,0.3,0.9,0.5,1.4,0.7
						c0.4-0.2,0.8-0.3,1.2-0.5c0.2-0.3,0.3-0.5,0.4-0.8c0.1-0.2,0.1-0.5,0.1-0.7c-0.1-0.3-0.2-0.5-0.4-0.6c-0.3-0.3-0.6-0.6-0.9-0.9
						c-0.2,0-0.3,0-0.5,0c-0.3,0-0.5,0-0.8,0c-0.2,0-0.3,0.1-0.5,0.2l-0.1,0.1c-0.1-0.2-0.2-0.4-0.3-0.5c-0.3-0.3-0.6-0.6-0.9-0.9
						c-0.2,0-0.3,0-0.5,0c-0.3,0-0.5,0-0.8,0.1c-0.2,0-0.3,0.1-0.5,0.2C-111.7-229.2-111.9-229-112-228.9 M-116.1-228.1
						c-0.2,0-0.3,0.1-0.5,0.2c-0.3,0.4-0.6,0.8-0.9,1.3s-0.5,1-0.6,1.5c-0.1,0.2,0,0.4,0,0.7c0.1,0.2,0.2,0.4,0.4,0.5
						c0.4,0.3,0.8,0.5,1.3,0.7c0.5-0.2,1-0.3,1.5-0.5c0.2-0.3,0.5-0.5,0.8-0.8c0.1-0.3,0.2-0.5,0.3-0.8c0.1-0.3,0.1-0.5,0.2-0.8
						c0-0.3,0.1-0.5,0.1-0.8c-0.1-0.3-0.2-0.5-0.4-0.6c-0.3-0.3-0.6-0.6-0.9-0.9c-0.2,0-0.3,0-0.5,0
						C-115.6-228.2-115.8-228.1-116.1-228.1 M-114.8-233.6c-0.2,0-0.3,0-0.5,0c-0.3,0-0.5,0-0.8,0.1c-0.2,0-0.3,0.1-0.5,0.2
						c-0.2,0.2-0.3,0.3-0.4,0.6c-0.1,0.2-0.2,0.4-0.2,0.7c0,0.2,0.1,0.5,0.2,0.8c0.1,0.2,0.2,0.4,0.4,0.6c0.4,0.3,0.8,0.5,1.3,0.7
						c0.4-0.2,0.8-0.3,1.2-0.5c0.2-0.3,0.3-0.5,0.4-0.8c0.1-0.2,0.1-0.5,0.1-0.7c-0.1-0.5-0.2-0.7-0.3-0.9
						C-114.2-233.1-114.5-233.4-114.8-233.6 M-121.1-239.6c0.2-0.3,0.3-0.6,0.4-0.9c0.1-0.2,0.1-0.5,0.1-0.7c0-0.1-0.1-0.2-0.1-0.3
						l0,0c0.1-0.2,0.1-0.5,0.1-0.7c-0.1-0.2-0.2-0.4-0.3-0.6c-0.3-0.3-0.6-0.6-0.9-0.9c-0.2,0-0.3,0-0.5,0c-0.3,0-0.5,0-0.8,0
						c-0.2,0-0.3,0.1-0.5,0.2c-0.1,0.3-0.3,0.4-0.4,0.6c-0.1,0.2-0.2,0.5-0.2,0.7s0,0.3,0.1,0.5c-0.1,0-0.1,0-0.2,0
						c-0.3,0-0.5,0-0.8,0c-0.2,0-0.3,0.1-0.5,0.2c-0.1,0.3-0.3,0.4-0.4,0.7c-0.1,0.2-0.2,0.4-0.2,0.6c0,0.2,0.1,0.5,0.2,0.8
						c0,0.2,0.1,0.4,0.3,0.6c0.4,0.3,0.8,0.5,1.3,0.7c0.5-0.2,0.9-0.4,1.3-0.5c0.2-0.3,0.3-0.5,0.4-0.7c0.1,0.1,0.3,0.1,0.4,0.2
						C-121.9-239.3-121.5-239.5-121.1-239.6 M-114.8-240.6c-0.2,0-0.3,0-0.5,0c-0.3,0-0.5,0-0.8,0.1c-0.1-0.1-0.3,0-0.5,0.1
						c-0.1,0.2-0.3,0.3-0.4,0.6c-0.1,0.2-0.2,0.4-0.2,0.6c0,0.2,0.1,0.5,0.2,0.8c0,0.2,0.1,0.4,0.3,0.6c0.4,0.3,0.8,0.5,1.3,0.7
						c0.5-0.2,0.9-0.4,1.3-0.5c0.2-0.3,0.4-0.6,0.4-0.9c0.1-0.2,0.1-0.5,0.1-0.7c-0.1-0.2-0.2-0.4-0.3-0.6
						C-114.2-240.1-114.5-240.4-114.8-240.6 M-113.8-244.7c-0.2,0-0.3,0-0.5,0c-0.3,0-0.5,0-0.8,0.1c-0.1,0-0.3,0.1-0.5,0.2
						c-0.1,0.2-0.3,0.3-0.4,0.5s-0.2,0.5-0.2,0.7s0.1,0.5,0.2,0.8c0,0.2,0.1,0.4,0.3,0.5c0.4,0.3,0.8,0.5,1.3,0.7
						c0.5-0.1,0.9-0.3,1.4-0.5c0.1-0.2,0.3-0.5,0.3-0.8c0.1-0.2,0.1-0.5,0.1-0.7c-0.1-0.2-0.2-0.4-0.3-0.6
						C-113.2-244.1-113.5-244.4-113.8-244.7 M-107.8-236.6c-0.2,0-0.3,0-0.5,0c-0.3,0-0.5,0-0.8,0.1c-0.2,0-0.3,0.1-0.5,0.2
						c-0.2,0.2-0.3,0.3-0.5,0.6c-0.1,0.2-0.2,0.4-0.2,0.7c0,0.2,0.1,0.5,0.2,0.8c0.1,0.2,0.2,0.4,0.4,0.6c0.4,0.3,0.9,0.5,1.4,0.7
						c0.4-0.2,0.8-0.3,1.2-0.5c0.2-0.3,0.3-0.5,0.4-0.8c0.1-0.2,0.1-0.5,0.1-0.7c-0.1-0.5-0.2-0.7-0.3-0.9
						C-107.2-236.1-107.5-236.4-107.8-236.6 M-106.3-241.4c0.2-0.3,0.3-0.5,0.4-0.8c0.1-0.2,0.2-0.5,0.2-0.7c0-0.3,0.1-0.5,0.1-0.8
						c-0.1-0.3-0.2-0.5-0.4-0.6c-0.3-0.3-0.6-0.6-0.9-0.9c-0.2,0-0.3,0-0.5,0.1c-0.4,0-0.9,0.1-1.2,0.2c-0.1,0.2-0.3,0.5-0.4,0.7
						s-0.2,0.5-0.2,0.8c0,0.2,0,0.5,0,0.8c0.1,0.2,0.2,0.5,0.3,0.7c0.3,0.3,0.6,0.6,0.9,0.9C-107.5-241.2-106.9-241.3-106.3-241.4
						 M-101-236.6c-0.2,0-0.3,0.1-0.5,0.2c-0.2,0.2-0.3,0.3-0.5,0.6c-0.1,0.2-0.2,0.4-0.2,0.7c0,0.2,0,0.5,0.1,0.8
						c0.1,0.2,0.2,0.4,0.4,0.6c0.4,0.3,0.9,0.5,1.4,0.7c0.4-0.2,0.8-0.3,1.2-0.5c0.2-0.3,0.3-0.5,0.4-0.8c0.1-0.2,0.1-0.5,0.1-0.7
						c-0.1-0.4-0.2-0.6-0.3-0.8c-0.3-0.3-0.6-0.6-0.9-0.9c-0.2,0-0.3,0-0.5,0C-100.6-236.6-100.8-236.6-101-236.6 M-98.7-242.5
						c0.1-0.2,0.1-0.5,0.1-0.7c-0.1-0.2-0.2-0.4-0.3-0.6c-0.3-0.3-0.6-0.6-0.9-0.8c-0.2,0-0.3,0-0.5,0c-0.3,0-0.5,0-0.8,0.1
						c-0.2,0-0.3,0.1-0.5,0.2c-0.2,0.2-0.3,0.3-0.5,0.5c-0.1,0.2-0.2,0.4-0.2,0.7c0,0.2,0,0.5,0.1,0.8c0.1,0.2,0.2,0.4,0.4,0.5
						c0.4,0.3,0.9,0.5,1.4,0.7c0.4-0.2,0.8-0.3,1.2-0.5C-98.9-241.9-98.8-242.2-98.7-242.5 M-102.2-251.2c0,0.2,0,0.5,0.1,0.8
						c0.1,0.2,0.2,0.4,0.4,0.6c0.4,0.3,0.9,0.5,1.4,0.7c0.4-0.2,0.8-0.3,1.2-0.5c0.2-0.3,0.3-0.5,0.4-0.8c0.1-0.2,0.1-0.5,0.1-0.7
						c-0.1-0.3-0.2-0.5-0.3-0.7c-0.3-0.3-0.6-0.6-0.9-0.8c-0.2,0-0.3,0-0.5,0c-0.3,0-0.5,0-0.8,0.1c-0.2,0-0.3,0.1-0.5,0.2
						c-0.2,0.2-0.3,0.3-0.5,0.6C-102.1-251.6-102.2-251.4-102.2-251.2 M-104.8-252.6c-0.2,0-0.3,0-0.5,0c-0.3,0-0.5,0-0.8,0.1
						c-0.2,0-0.3,0.1-0.5,0.2c-0.2,0.2-0.3,0.3-0.5,0.6c-0.1,0.2-0.2,0.4-0.2,0.7c0,0.2,0,0.3,0.1,0.5c-0.1,0-0.1,0-0.2,0
						c-0.3,0-0.5,0-0.8,0.1c-0.2,0-0.3,0.1-0.5,0.2c-0.2,0.2-0.3,0.3-0.5,0.6c-0.1,0.2-0.2,0.4-0.2,0.7c0,0.2,0.1,0.5,0.2,0.8
						c0.1,0.2,0.2,0.4,0.4,0.5c0.4,0.3,0.9,0.5,1.4,0.7c0.4-0.2,0.8-0.3,1.2-0.5c0.2-0.3,0.3-0.5,0.4-0.8c0.1-0.2,0.1-0.5,0.1-0.7
						c0,0,0-0.1-0.1-0.1c0.1,0,0.2,0.1,0.3,0.1c0.4-0.2,0.8-0.3,1.2-0.5c0.2-0.3,0.3-0.5,0.4-0.8c0.1-0.2,0.1-0.5,0.1-0.7
						c0.1-0.5,0-0.7-0.1-0.9C-104.2-252.1-104.5-252.4-104.8-252.6 M-119.8-249.6c-0.2,0-0.3,0-0.5,0c-0.3,0-0.5,0-0.8,0.1
						c-0.1-0.1-0.3,0-0.5,0.1c-0.1,0.2-0.3,0.3-0.4,0.5s-0.2,0.5-0.2,0.7s0.1,0.5,0.1,0.8c0.1,0.2,0.2,0.4,0.4,0.5
						c0.4,0.3,0.9,0.5,1.4,0.7c0.4-0.1,0.8-0.3,1.2-0.5c0.2-0.2,0.3-0.5,0.4-0.8c0.1-0.2,0.1-0.5,0.1-0.7c-0.1-0.2-0.2-0.4-0.3-0.6
						C-119.2-249.1-119.5-249.4-119.8-249.6 M-120-252.8c-0.1,0.2-0.2,0.4-0.2,0.6c0,0.2,0,0.5,0.1,0.8c0.1,0.2,0.2,0.4,0.4,0.6
						c0.4,0.3,0.8,0.5,1.3,0.7c0.5-0.2,0.9-0.4,1.3-0.5c0.2-0.3,0.4-0.6,0.4-0.9c0.1-0.2,0.1-0.5,0.1-0.7c-0.1-0.2-0.2-0.4-0.3-0.6
						c-0.3-0.3-0.6-0.6-0.9-0.8c-0.2,0-0.3,0-0.5,0c-0.3,0-0.5,0-0.8,0.1c-0.1-0.1-0.3,0-0.5,0.1
						C-119.7-253.2-119.9-253.1-120-252.8 M-120.7-255.5c0.1-0.2,0.1-0.5,0.1-0.7c-0.1-0.2-0.2-0.4-0.3-0.6
						c-0.3-0.3-0.6-0.6-0.9-0.9c-0.2,0-0.3,0-0.5,0c-0.3,0-0.5,0-0.8,0.1c-0.2,0-0.3,0.1-0.5,0.2c-0.2,0.2-0.3,0.3-0.4,0.6
						c-0.1,0.2-0.2,0.4-0.2,0.7c0,0.2,0,0.5,0.1,0.8c0.1,0.1,0.2,0.3,0.4,0.5c0.4,0.3,0.8,0.5,1.4,0.7c0.4-0.2,0.8-0.4,1.2-0.5
						C-120.9-254.9-120.8-255.2-120.7-255.5 M-120.1-258.4c0.1,0.2,0.2,0.4,0.4,0.6c0.4,0.3,0.8,0.5,1.3,0.7
						c0.4-0.2,0.8-0.3,1.3-0.5c0.2-0.3,0.3-0.5,0.4-0.8c0.1-0.2,0.1-0.5,0.1-0.7c-0.1-0.3-0.2-0.5-0.3-0.7c-0.3-0.3-0.6-0.6-0.9-0.9
						c-0.2,0-0.3,0-0.5,0c-0.3,0-0.5,0-0.8,0.1c-0.2,0-0.3,0.1-0.5,0.2c-0.2,0.2-0.3,0.3-0.4,0.6c-0.1,0.2-0.2,0.4-0.2,0.7
						C-120.2-258.9-120.2-258.7-120.1-258.4 M-118.8-268.6c-0.2,0-0.3,0-0.5,0s-0.3,0-0.4,0c-0.1-0.1-0.2-0.1-0.2-0.2
						c-0.3-0.3-0.6-0.6-0.9-0.9c-0.2,0-0.3,0-0.5,0c-0.3,0-0.5,0-0.8,0c-0.2,0-0.3,0.1-0.5,0.2c-0.2,0.2-0.3,0.4-0.5,0.5
						c-0.1,0.2-0.2,0.4-0.2,0.7c0,0.2,0,0.5,0.1,0.8c0.1,0.2,0.2,0.4,0.4,0.5c0.1,0.1,0.3,0.2,0.5,0.3c-0.1,0-0.2,0.1-0.3,0.1
						c-0.1-0.1-0.2-0.2-0.3-0.2c-0.2,0-0.3,0-0.5,0c-0.3,0-0.5,0-0.8,0c-0.2,0-0.3,0.1-0.5,0.2c-0.2,0.2-0.3,0.4-0.4,0.5
						c-0.1,0.2-0.2,0.4-0.2,0.7c0,0.2,0,0.5,0.1,0.8c0.1,0.2,0.2,0.4,0.4,0.5c0.4,0.3,0.8,0.5,1.4,0.7c0.3-0.1,0.7-0.3,1-0.4
						c0.3,0.2,0.6,0.3,0.9,0.4c0.4-0.2,0.8-0.3,1.2-0.5c0.4,0,0.5-0.3,0.6-0.5c0.1-0.2,0.1-0.5,0.1-0.7v-0.1c0.1,0,0.2,0.1,0.3,0.1
						c0.4-0.2,0.8-0.3,1.2-0.5c0.2-0.3,0.4-0.6,0.4-0.8c0.1-0.2,0.1-0.5,0.1-0.7c-0.1-0.3-0.2-0.5-0.3-0.7
						C-118.2-268.1-118.5-268.4-118.8-268.6 M-101.8-259.6c-0.2,0-0.3,0-0.5,0c-0.3,0-0.5,0-0.8,0.1c-0.2,0-0.3,0.1-0.5,0.2
						c-0.2,0.2-0.3,0.3-0.5,0.6c-0.1,0.2-0.2,0.4-0.2,0.7c0,0.2,0,0.5,0.1,0.8c0.1,0.2,0.2,0.4,0.4,0.6c0.1,0.1,0.2,0.1,0.3,0.2
						c-0.3,0-0.5,0-0.7,0.1c-0.2,0-0.3,0.1-0.5,0.2c-0.2,0.2-0.3,0.3-0.5,0.6c-0.1,0.2-0.2,0.4-0.2,0.7c0,0.2,0,0.5,0.1,0.8
						c0.1,0.2,0.2,0.4,0.4,0.6c0.4,0.3,0.9,0.5,1.4,0.7c0.4-0.2,0.8-0.3,1.2-0.5c0.2-0.3,0.3-0.5,0.4-0.8c0.1-0.2,0.1-0.5,0.1-0.7
						c-0.1-0.3-0.2-0.5-0.4-0.6c-0.1-0.1-0.2-0.3-0.3-0.4c0.4-0.2,0.7-0.3,1.1-0.5c0.2-0.3,0.3-0.5,0.4-0.8c0.1-0.2,0.1-0.5,0.1-0.7
						c-0.1-0.3-0.2-0.5-0.4-0.6C-101.2-259.1-101.5-259.4-101.8-259.6 M-109.5-261.2c-0.1-0.3-0.2-0.5-0.4-0.6
						c-0.3-0.3-0.6-0.6-0.9-0.9c-0.2,0-0.3,0-0.5,0c-0.3,0-0.5,0-0.8,0c-0.2,0-0.3,0.1-0.5,0.2c-0.2,0.2-0.3,0.4-0.5,0.5
						c-0.1,0.2-0.2,0.4-0.2,0.7c0,0.2,0.1,0.5,0.2,0.8c0.1,0.2,0.2,0.4,0.4,0.6c0.1,0.1,0.2,0.1,0.3,0.2c-0.3,0-0.5,0-0.7,0.1
						c-0.2,0-0.3,0.1-0.5,0.2c-0.2,0.2-0.3,0.3-0.5,0.6c-0.1,0.2-0.2,0.4-0.2,0.7c0,0.2,0.1,0.5,0.2,0.8c0.1,0.2,0.2,0.4,0.4,0.6
						c0.4,0.3,0.9,0.5,1.4,0.7c0.4-0.2,0.8-0.3,1.2-0.5c0.2-0.3,0.3-0.5,0.4-0.8c0.1-0.2,0.1-0.5,0.1-0.7c-0.1-0.3-0.2-0.5-0.4-0.6
						c-0.1-0.1-0.2-0.3-0.3-0.4c0.4-0.2,0.8-0.3,1.2-0.5c0.2-0.3,0.3-0.5,0.4-0.8C-109.6-260.7-109.5-260.9-109.5-261.2 M-108-261.9
						c-0.1,0.2-0.2,0.4-0.2,0.7c0,0.2,0.1,0.5,0.2,0.8c0.1,0.2,0.2,0.4,0.4,0.6c0.4,0.3,0.9,0.5,1.4,0.7c0.4-0.2,0.8-0.3,1.2-0.5
						c0.2-0.3,0.3-0.5,0.4-0.8c0.1-0.2,0.1-0.5,0.1-0.7c-0.1-0.3-0.2-0.5-0.4-0.6c-0.3-0.3-0.6-0.6-0.9-0.9c-0.2,0-0.3,0-0.5,0
						c-0.3,0-0.5,0-0.8,0c-0.2,0-0.3,0.1-0.5,0.2C-107.7-262.2-107.9-262-108-261.9 M-111-265.9c-0.1,0.2-0.2,0.4-0.2,0.7
						c0,0.2,0.1,0.5,0.2,0.8c0.1,0.2,0.2,0.4,0.4,0.5c0.4,0.3,0.9,0.5,1.4,0.7c0.4-0.2,0.8-0.3,1.2-0.5c0.2-0.3,0.3-0.5,0.4-0.8
						c0.1-0.2,0.1-0.5,0.1-0.7c-0.1-0.3-0.2-0.5-0.4-0.6c-0.3-0.3-0.6-0.6-0.9-0.9c-0.2,0-0.3,0-0.5,0c-0.3,0-0.5,0-0.8,0
						c-0.2,0-0.3,0.1-0.5,0.2C-110.7-266.2-110.9-266-111-265.9z"/>
				</g>
			</g>
		</g>
	</g>
</g>
<g id="golf_x5F_yel" transform="matrix( 1, 0, 0, 1, 271.3,273.4) " class="st6">
	<g transform="matrix( 1, 0, 0, 1, 0,0) " class="st7">
		<g>
			<g id="golfballpink2_0_Layer0_0_FILL">
				<path class="st23" d="M-109.3-240.5c0-0.3,0-0.5,0-0.8s0-0.5,0-0.8c-0.1-0.3-0.1-0.5-0.2-0.8s-0.2-0.5-0.3-0.8
					c-0.1-0.3-0.3-0.5-0.5-0.8c-0.3-0.3-0.7-0.5-1-0.8c-0.6,0.1-1.2-0.1-1.8-0.3c0,0.1,0,0.1,0,0.1c-0.4,0.1-0.8,0.2-1.2,0.2
					c-0.3,0.2-0.7,0.3-1,0.5s-0.5,0.5-0.7,0.7c-0.2,0.3-0.4,0.5-0.5,0.8c-0.1,0.2-0.2,0.5-0.3,0.7c-0.1,0.3-0.1,0.5-0.1,0.8
					c0,0.2,0,0.5,0.1,0.8c0,0.2,0.1,0.4,0.1,0.6c-0.1,0-0.2-0.1-0.3-0.1c0,0.1,0,0.1-0.1,0.1c-0.4,0.1-0.8,0.1-1.2,0.1
					c-0.3,0.2-0.7,0.3-1,0.5s-0.5,0.5-0.7,0.8c-0.2,0.2-0.4,0.4-0.5,0.7c-0.1,0.2-0.2,0.5-0.3,0.8c-0.1,0.2-0.2,0.4-0.2,0.7
					c0,0.2,0,0.5,0.1,0.8c0,0.2,0.1,0.5,0.1,0.8c0.1,0.1,0.1,0.4,0.2,0.7c0.2,0.2,0.5,0.5,0.8,0.7c0.3,0.3,0.7,0.5,1,0.8
					c0.6,0.2,1.1,0.3,1.8,0.5c0.4-0.1,0.8-0.2,1.2-0.2c0.2-0.2,0.5-0.3,0.8-0.5c0.3-0.3,0.7-0.5,1-0.8c0.1-0.3,0.2-0.5,0.3-0.8
					c0.1-0.3,0.3-0.5,0.4-0.8c0-0.3,0-0.5,0-0.8s0-0.5,0-0.8c-0.1-0.1-0.2-0.3-0.2-0.5c0.1,0,0.3,0.1,0.4,0.1
					c0.4-0.1,0.8-0.2,1.2-0.2c0.2-0.2,0.5-0.3,0.8-0.5c0.3-0.3,0.7-0.5,1-0.8c0.1-0.3,0.2-0.5,0.3-0.8
					C-109.6-240.1-109.5-240.3-109.3-240.5 M-102.1-247.6c0,0.1,0,0.1,0,0.1c-0.4,0.1-0.8,0.1-1.2,0.1c-0.3,0.2-0.7,0.3-1,0.5
					s-0.5,0.5-0.7,0.8c-0.2,0.2-0.4,0.5-0.5,0.8c-0.1,0.2-0.2,0.5-0.3,0.7s-0.1,0.5-0.1,0.8c0,0.2,0,0.5,0.1,0.8
					c0,0.2,0.1,0.5,0.1,0.8c0,0.2,0.1,0.5,0.2,0.8c0.2,0.2,0.5,0.5,0.8,0.7c0.3,0.3,0.7,0.5,1,0.8c0.6,0.2,1.2,0.3,1.8,0.5
					c0.4-0.1,0.8-0.2,1.2-0.2c0.2-0.2,0.5-0.3,0.8-0.5c0.3-0.3,0.7-0.5,1-0.8c0.1-0.3,0.2-0.5,0.3-0.8c0.1-0.3,0.3-0.5,0.4-0.8
					c0-0.3,0-0.5,0-0.8s0-0.5,0-0.8c-0.1-0.3-0.1-0.5-0.2-0.8s-0.2-0.5-0.3-0.7c-0.1-0.3-0.3-0.5-0.5-0.8c-0.3-0.3-0.7-0.5-1-0.8
					C-100.9-247.2-101.5-247.4-102.1-247.6 M-110.3-264.3c-0.3,0.2-0.7,0.3-1,0.5c-0.3,0.2-0.5,0.5-0.7,0.8
					c-0.2,0.2-0.4,0.5-0.5,0.8c0,0-0.1,0.1-0.1,0.2c-0.3,0.1-0.5,0.2-0.8,0.3c-0.3,0.2-0.5,0.5-0.7,0.8c-0.2,0.2-0.4,0.5-0.5,0.8
					c0,0-0.1,0.3-0.2,0.6c-0.1,0.2-0.2,0.5-0.2,0.8c0,0.2,0,0.5,0.1,0.8c0,0.2,0.1,0.5,0.1,0.8c0.1,0,0.1,0.3,0.3,0.6
					c0.2,0.2,0.5,0.5,0.8,0.7c0.2,0.2,0.5,0.3,0.7,0.6c-0.1,0-0.1,0-0.2,0c-0.4,0.1-0.8,0.2-1.1,0.4c-0.3,0.2-0.5,0.5-0.7,0.8
					c-0.2,0.2-0.4,0.4-0.5,0.7c-0.1,0.2-0.2,0.5-0.3,0.8c-0.1,0.2-0.1,0.4-0.1,0.7c0,0.2,0,0.5,0.1,0.8c0,0.2,0.1,0.5,0.1,0.8
					c0,0.1,0,0.4,0.2,0.6c0.2,0.3,0.4,0.5,0.7,0.7c0.3,0.3,0.7,0.5,1,0.8c0.6,0.2,1.2,0.3,1.7,0.5c0.4-0.1,0.8-0.2,1.2-0.2
					c0.2-0.2,0.5-0.3,0.8-0.5c0.3-0.3,0.7-0.5,1-0.8c0.1-0.3,0.2-0.5,0.3-0.8s0.3-0.5,0.4-0.7c0-0.3,0-0.5,0-0.8s0-0.5,0-0.8
					c-0.1-0.3-0.1-0.5-0.2-0.8s-0.2-0.5-0.3-0.8c-0.1-0.3-0.3-0.5-0.5-0.8c-0.2-0.2-0.4-0.3-0.6-0.4l0.1-0.1
					c0.2-0.2,0.5-0.3,0.8-0.5c0.3-0.3,0.7-0.5,1-0.8c0.1-0.3,0.2-0.5,0.3-0.8l0.1-0.1c0.2-0.2,0.4-0.3,0.6-0.4
					c0.3-0.3,0.7-0.5,1-0.8c0.1-0.3,0.2-0.5,0.3-0.8c0.1-0.3,0.3-0.5,0.4-0.8c0-0.3,0-0.5,0-0.8c0-0.3,0-0.5,0-0.8
					c-0.1-0.3-0.1-0.5-0.2-0.8c-0.1-0.3-0.2-0.5-0.3-0.8c-0.1-0.3-0.3-0.5-0.5-0.8c-0.3-0.3-0.7-0.5-1-0.8c-0.6-0.2-1.2-0.3-1.8-0.5
					c0,0.1,0,0.1,0,0.1C-109.5-264.3-109.9-264.3-110.3-264.3z"/>
			</g>
		</g>
	</g>
	<g transform="matrix( 1, 0, 0, 1, 0,0) " class="st7">
		<g transform="matrix( 1, 0, 0, 1, 0,0) ">
			<g>
				<g id="golfballpink_0_Layer0_0_FILL">
					
						<radialGradient id="SVGID_9_" cx="-1559.4009" cy="-412.4218" r="27.2063" gradientTransform="matrix(0.7898 0.6134 0.6134 -0.7898 1362.0952 384.1145)" gradientUnits="userSpaceOnUse">
						<stop  offset="0.3294" style="stop-color:#FFFF00"/>
						<stop  offset="1" style="stop-color:#C1C002"/>
					</radialGradient>
					<path class="st24" d="M-125.8-272.7L-125.8-272.7c1.6-0.2,3.1-0.2,4.6-0.2C-122.7-273-124.2-273-125.8-272.7z"/>
					
						<radialGradient id="SVGID_10_" cx="-1478.2594" cy="1143.5393" r="26.1391" gradientTransform="matrix(1 0 0 -1 1356.3999 896.8785)" gradientUnits="userSpaceOnUse">
						<stop  offset="0" style="stop-color:#FFF121"/>
						<stop  offset="1" style="stop-color:#FFFFFF"/>
					</radialGradient>
					<path class="st25" d="M-96.3-246.7c0-3.5-0.6-6.8-1.8-9.8c-1.3-3.2-3.2-6-5.8-8.6c-5-5.1-11-7.6-18-7.6c-3.4,0-6.6,0.6-9.5,1.8
						c-3.1,1.3-5.9,3.2-8.5,5.8c-5,5.1-7.5,11.2-7.5,18.4s2.5,13.3,7.5,18.4c5,5.1,11,7.6,18,7.6c3.3,0,6.4-0.5,9.2-1.6
						c3.2-1.3,6.2-3.3,8.8-6C-98.8-233.4-96.3-239.5-96.3-246.7z"/>
				</g>
			</g>
			<g>
				<path id="golfballpink_0_Layer0_0_1_STROKES" class="st2" d="M-98.1-256.5c1.2,3,1.8,6.3,1.8,9.8c0,7.2-2.5,13.3-7.5,18.4
					c-2.6,2.7-5.6,4.7-8.8,6c-2.8,1.1-5.9,1.6-9.2,1.6c-7,0-13-2.5-18-7.6s-7.5-11.2-7.5-18.4s2.5-13.3,7.5-18.4
					c2.6-2.6,5.4-4.5,8.5-5.8c2.9-1.2,6.1-1.8,9.5-1.8c7,0,13,2.5,18,7.6C-101.2-262.5-99.3-259.6-98.1-256.5c0.9,2,1.5,4.2,1.8,6.6
					c0.9,7.2-0.9,13.7-5.4,19.5c-3.5,4.5-7.8,7.5-13,9.1 M-125.8-272.7c1.6-0.2,3.1-0.3,4.6-0.2"/>
			</g>
			<g>
				<path id="golfballpink_0_Layer0_0_2_STROKES" class="st14" d="M-122.5-219.1l-0.1-0.7"/>
			</g>
		</g>
	</g>
	<g transform="matrix( 1, 0, 0, 1, 0.05,0.05) " class="st7">
		<g transform="matrix( 1, 0, 0, 1, 0,0) ">
			<g>
				<g>
					<path class="st22" d="M-128.6-227.3c-0.2,0-0.3,0-0.5,0c-0.3,0-0.5,0-0.7,0s-0.3,0.1-0.5,0.2c-0.2,0.2-0.3,0.4-0.5,0.5
						c-0.1,0.2-0.2,0.4-0.2,0.7c0,0.2,0.1,0.5,0.2,0.8c0.1,0.2,0.2,0.4,0.4,0.5c0.4,0.3,0.9,0.5,1.3,0.7c0.4-0.2,0.8-0.3,1.2-0.5
						c0.1-0.1,0.1-0.2,0.2-0.4c0.1,0.1,0.1,0.1,0.2,0.1c0.4,0.3,0.8,0.5,1.3,0.7c0.4-0.2,0.8-0.3,1.2-0.5c0.2-0.3,0.3-0.5,0.4-0.8
						c0.1-0.2,0.1-0.5,0.1-0.7c0-0.1-0.1-0.3-0.2-0.5c-0.3-0.3-0.6-0.6-0.9-0.9c-0.2,0-0.3,0-0.5,0c-0.3,0-0.5,0-0.8,0
						c-0.2,0-0.3,0.1-0.5,0.2c-0.2,0.2-0.3,0.3-0.4,0.5C-128-226.9-128.3-227.2-128.6-227.3 M-135.8-229.6c-0.1,0.2-0.2,0.4-0.2,0.7
						c0,0.2,0.1,0.5,0.2,0.8c0.1,0.2,0.2,0.4,0.4,0.5c0.4,0.3,0.9,0.5,1.4,0.7c0.4-0.2,0.8-0.3,1.2-0.5c0.2-0.3,0.3-0.5,0.4-0.8
						c0.1-0.2,0.1-0.5,0.1-0.7c-0.1-0.3-0.2-0.5-0.4-0.6c-0.3-0.3-0.6-0.6-0.9-0.9c-0.2,0-0.3,0-0.5,0c-0.3,0-0.5,0-0.8,0.1
						c-0.2,0-0.3,0.1-0.5,0.2C-135.5-229.9-135.7-229.7-135.8-229.6 M-135.7-240.5c-0.3-0.3-0.6-0.6-0.9-0.8c-0.2,0-0.3,0-0.5,0
						c-0.3,0-0.5,0-0.8,0.1c-0.2,0-0.3,0.1-0.5,0.2c-0.2,0.2-0.3,0.3-0.5,0.6c-0.1,0.2-0.2,0.4-0.2,0.7c0,0.2,0,0.5,0.1,0.8
						c0.1,0.2,0.2,0.4,0.4,0.6c0.4,0.3,0.9,0.5,1.4,0.7c0.4-0.2,0.8-0.3,1.2-0.5c0.2-0.3,0.3-0.5,0.4-0.8c0.1-0.2,0.1-0.5,0.1-0.7
						C-135.5-240.1-135.6-240.3-135.7-240.5 M-127.1-235.3c-0.3,0-0.5,0-0.8,0.1c-0.2,0-0.3,0.1-0.5,0.2c-0.2,0.2-0.3,0.3-0.4,0.6
						c-0.1,0.2-0.2,0.4-0.2,0.7c0,0.2,0.1,0.5,0.2,0.8c0.1,0.2,0.2,0.4,0.4,0.6c0.4,0.3,0.8,0.5,1.3,0.7c0.4-0.2,0.8-0.3,1.2-0.5
						c0.2-0.3,0.3-0.5,0.4-0.8c0.1-0.2,0.1-0.5,0.1-0.7c-0.1-0.5-0.2-0.7-0.3-0.9c-0.3-0.3-0.6-0.6-0.9-0.9
						C-126.8-235.3-126.9-235.3-127.1-235.3 M-130.6-245.4c-0.2,0-0.3,0-0.5,0c-0.3,0-0.5,0-0.8,0.1c-0.2,0-0.3,0.1-0.5,0.2
						c-0.2,0.2-0.3,0.4-0.5,0.5s-0.2,0.4-0.2,0.7c0,0.2,0.1,0.5,0.2,0.8c0.1,0.2,0.2,0.4,0.4,0.5c0.4,0.3,0.9,0.5,1.4,0.7
						c0.4-0.1,0.8-0.3,1.3-0.4c0.1-0.3,0.3-0.6,0.3-0.8c0.1-0.2,0.1-0.5,0.1-0.7c-0.1-0.3-0.2-0.5-0.3-0.7
						C-130-244.8-130.3-245.1-130.6-245.4 M-128.1-250.3c-0.3,0-0.5,0-0.8,0.1c-0.2,0-0.3,0.1-0.5,0.2c-0.1,0.1-0.3,0.3-0.4,0.4
						c-0.1,0.3-0.2,0.5-0.2,0.7s0.1,0.5,0.2,0.8c0,0.2,0.1,0.4,0.3,0.5c0.4,0.3,0.8,0.5,1.3,0.7c0.5-0.1,0.9-0.3,1.3-0.5
						c0.2-0.2,0.4-0.5,0.4-0.7c0.1-0.2,0.1-0.5,0.1-0.7c-0.1-0.3-0.2-0.5-0.3-0.7c-0.3-0.3-0.6-0.6-0.9-0.8
						C-127.8-250.3-127.9-250.3-128.1-250.3 M-132-256.9c0,0.2,0.1,0.5,0.2,0.8c0.1,0.2,0.2,0.4,0.4,0.6c0.4,0.3,0.9,0.5,1.4,0.7
						c0.3-0.2,0.7-0.4,1.1-0.5c0.2-0.3,0.3-0.5,0.4-0.8c0.1-0.2,0.1-0.5,0.1-0.7c-0.1-0.3-0.2-0.5-0.3-0.7c-0.3-0.3-0.6-0.6-0.9-0.9
						c-0.2,0-0.3,0-0.5,0c-0.3,0-0.5,0-0.8,0.1c-0.2,0-0.3,0.1-0.5,0.2c-0.2,0.2-0.3,0.3-0.5,0.6C-131.9-257.3-132-257.1-132-256.9
						 M-135.6-266.3c-0.2,0-0.3,0-0.5,0c-0.3,0-0.5,0-0.8,0c-0.2,0-0.3,0.1-0.5,0.2c-0.2,0.2-0.3,0.4-0.5,0.5
						c-0.1,0.2-0.2,0.4-0.2,0.7c0,0.2,0,0.5,0.1,0.8c0.1,0.2,0.2,0.4,0.4,0.5c0.4,0.3,0.9,0.5,1.4,0.7c0.4-0.2,0.8-0.3,1.2-0.5
						c0.2-0.3,0.3-0.5,0.4-0.8c0.1-0.2,0.1-0.5,0.1-0.7c-0.1-0.3-0.2-0.5-0.4-0.6C-135-265.8-135.3-266.1-135.6-266.3 M-130.6-262.3
						c-0.2,0-0.3,0-0.5,0c-0.3,0-0.5,0-0.8,0c-0.2,0-0.3,0.1-0.5,0.2c-0.2,0.2-0.3,0.3-0.5,0.6c-0.1,0.2-0.2,0.4-0.2,0.7
						c0,0.2,0.1,0.5,0.2,0.8c0.1,0.2,0.2,0.4,0.4,0.6c0.4,0.3,0.9,0.5,1.4,0.7c0.4-0.2,0.8-0.3,1.2-0.5c0.2-0.3,0.3-0.5,0.4-0.8
						c0.1-0.2,0.1-0.5,0.1-0.7c-0.1-0.4-0.2-0.6-0.3-0.8C-130-261.8-130.3-262.1-130.6-262.3 M-129.6-268.3c-0.2,0-0.3,0-0.5,0
						c-0.3,0-0.5,0-0.8,0c-0.2,0-0.3,0.1-0.5,0.2c-0.2,0.2-0.3,0.4-0.5,0.5c-0.1,0.2-0.2,0.4-0.2,0.7c0,0.2,0.1,0.5,0.2,0.8
						c0.1,0.2,0.2,0.4,0.4,0.5c0.4,0.3,0.9,0.5,1.4,0.7c0.4-0.2,0.8-0.3,1.2-0.5c0.2-0.3,0.3-0.5,0.4-0.8c0.1-0.2,0.1-0.5,0.1-0.7
						c-0.1-0.2-0.2-0.4-0.3-0.6C-129-267.8-129.3-268.1-129.6-268.3 M-142.6-247.4c-0.2,0-0.3,0-0.5,0c-0.3,0-0.5,0-0.8,0
						c-0.2,0-0.3,0.1-0.5,0.2c-0.2,0.2-0.3,0.3-0.5,0.6c-0.1,0.2-0.2,0.4-0.2,0.7c0,0.2,0,0.5,0.1,0.8c0.1,0.2,0.2,0.4,0.4,0.5
						c0.4,0.3,0.9,0.5,1.4,0.7c0.4-0.2,0.8-0.3,1.2-0.5c0.2-0.3,0.3-0.5,0.4-0.8c0.1-0.2,0.1-0.5,0.1-0.7s-0.1-0.4-0.2-0.6
						C-142-246.8-142.3-247.1-142.6-247.4 M-142.6-257.3c-0.2,0-0.3,0-0.5,0c-0.3,0-0.5,0-0.8,0.1c-0.2,0-0.3,0.1-0.5,0.2
						c-0.2,0.2-0.3,0.3-0.5,0.6c-0.1,0.2-0.2,0.4-0.2,0.7c0,0.2,0,0.5,0.1,0.8c0.1,0.2,0.2,0.4,0.4,0.6c0.4,0.3,0.9,0.5,1.4,0.7
						c0.4-0.2,0.8-0.3,1.2-0.5c0.2-0.3,0.3-0.5,0.4-0.8c0.1-0.2,0.1-0.5,0.1-0.7c-0.1-0.3-0.2-0.5-0.4-0.6
						C-142-256.8-142.3-257.1-142.6-257.3 M-118.6-225.3c-0.2,0-0.3,0-0.5,0c-0.3,0-0.5,0-0.7,0s-0.3,0.1-0.5,0.2
						c-0.2,0.2-0.3,0.4-0.4,0.5c-0.1,0.2-0.2,0.4-0.2,0.7c0,0.2,0.1,0.5,0.2,0.8c0.1,0.2,0.2,0.4,0.4,0.5c0.4,0.3,0.9,0.5,1.3,0.7
						c0.4-0.2,0.8-0.3,1.2-0.5c0.1-0.2,0.3-0.5,0.3-0.7c0.1-0.2,0.1-0.5,0.1-0.7c-0.1-0.3-0.2-0.5-0.3-0.7
						C-118-224.8-118.3-225.1-118.6-225.3 M-111.8-229.6c-0.1,0.2-0.2,0.4-0.2,0.7c0,0.2,0.1,0.5,0.2,0.8c0.1,0.2,0.2,0.4,0.4,0.5
						c0.4,0.3,0.9,0.5,1.4,0.7c0.4-0.2,0.8-0.3,1.2-0.5c0,0.1,0,0.1,0.1,0.2c0.1,0.2,0.2,0.4,0.4,0.5c0.4,0.3,0.9,0.5,1.4,0.7
						c0.4-0.2,0.8-0.3,1.2-0.5c0.2-0.3,0.3-0.5,0.4-0.8c0.1-0.2,0.1-0.5,0.1-0.7c-0.1-0.3-0.2-0.5-0.4-0.6c-0.3-0.3-0.6-0.6-0.9-0.9
						c-0.2,0-0.3,0-0.5,0c-0.3,0-0.5,0-0.8,0c-0.2,0-0.3,0.1-0.5,0.2l-0.1,0.1c-0.1-0.2-0.2-0.4-0.3-0.5c-0.3-0.3-0.6-0.6-0.9-0.9
						c-0.2,0-0.3,0-0.5,0c-0.3,0-0.5,0-0.8,0.1c-0.2,0-0.3,0.1-0.5,0.2C-111.5-229.9-111.7-229.7-111.8-229.6 M-115.9-228.8
						c-0.2,0-0.3,0.1-0.5,0.2c-0.3,0.4-0.6,0.8-0.9,1.3s-0.5,1-0.6,1.5c-0.1,0.2,0,0.4,0,0.7c0.1,0.2,0.2,0.4,0.4,0.5
						c0.4,0.3,0.8,0.5,1.3,0.7c0.5-0.2,1-0.3,1.5-0.5c0.2-0.3,0.5-0.5,0.8-0.8c0.1-0.3,0.2-0.5,0.3-0.8c0.1-0.3,0.1-0.5,0.2-0.8
						c0-0.3,0.1-0.5,0.1-0.8c-0.1-0.3-0.2-0.5-0.4-0.6c-0.3-0.3-0.6-0.6-0.9-0.9c-0.2,0-0.3,0-0.5,0
						C-115.4-228.9-115.6-228.8-115.9-228.8 M-114.6-234.3c-0.2,0-0.3,0-0.5,0c-0.3,0-0.5,0-0.8,0.1c-0.2,0-0.3,0.1-0.5,0.2
						c-0.2,0.2-0.3,0.3-0.4,0.6c-0.1,0.2-0.2,0.4-0.2,0.7c0,0.2,0.1,0.5,0.2,0.8c0.1,0.2,0.2,0.4,0.4,0.6c0.4,0.3,0.8,0.5,1.3,0.7
						c0.4-0.2,0.8-0.3,1.2-0.5c0.2-0.3,0.3-0.5,0.4-0.8c0.1-0.2,0.1-0.5,0.1-0.7c-0.1-0.5-0.2-0.7-0.3-0.9
						C-114-233.8-114.3-234.1-114.6-234.3 M-120.9-240.3c0.2-0.3,0.3-0.6,0.4-0.9c0.1-0.2,0.1-0.5,0.1-0.7c0-0.1-0.1-0.2-0.1-0.2
						l0,0c0.1-0.2,0.1-0.5,0.1-0.7c-0.1-0.3-0.2-0.5-0.3-0.7c-0.3-0.3-0.6-0.6-0.9-0.9c-0.2,0-0.3,0-0.5,0c-0.3,0-0.5,0-0.8,0
						c-0.2,0-0.3,0.1-0.5,0.2c-0.1,0.3-0.3,0.5-0.4,0.6c-0.1,0.3-0.2,0.5-0.2,0.7s0,0.3,0.1,0.5c-0.1,0-0.1,0-0.2,0
						c-0.3,0-0.5,0-0.8,0c-0.2,0-0.3,0.1-0.5,0.2c-0.1,0.3-0.3,0.4-0.4,0.7c-0.1,0.2-0.2,0.4-0.2,0.6c0,0.2,0.1,0.5,0.2,0.8
						c0,0.2,0.1,0.4,0.3,0.6c0.4,0.3,0.8,0.5,1.3,0.7c0.5-0.2,0.9-0.4,1.3-0.5c0.2-0.3,0.3-0.5,0.4-0.7c0.1,0.1,0.3,0.1,0.4,0.2
						C-121.7-240-121.3-240.2-120.9-240.3 M-114.6-241.3c-0.2,0-0.3,0-0.5,0c-0.3,0-0.5,0-0.8,0.1c-0.1-0.1-0.3,0-0.5,0.1
						c-0.1,0.2-0.3,0.3-0.4,0.6c-0.1,0.2-0.2,0.4-0.2,0.6s0.1,0.5,0.2,0.8c0,0.2,0.1,0.4,0.3,0.6c0.4,0.3,0.8,0.5,1.3,0.7
						c0.5-0.2,0.9-0.4,1.3-0.5c0.2-0.3,0.4-0.6,0.4-0.9c0.1-0.2,0.1-0.5,0.1-0.7c-0.1-0.2-0.2-0.4-0.3-0.6
						C-114-240.8-114.3-241.1-114.6-241.3 M-113.6-245.4c-0.2,0-0.3,0-0.5,0c-0.3,0-0.5,0-0.8,0.1c-0.1,0-0.3,0.1-0.5,0.2
						c-0.1,0.2-0.3,0.3-0.4,0.5s-0.2,0.5-0.2,0.7s0.1,0.5,0.2,0.8c0,0.2,0.1,0.4,0.3,0.5c0.4,0.3,0.8,0.5,1.3,0.7
						c0.5-0.1,0.9-0.3,1.4-0.4c0.1-0.3,0.3-0.6,0.3-0.8c0.1-0.2,0.1-0.5,0.1-0.7c-0.1-0.3-0.2-0.5-0.3-0.7
						C-113-244.8-113.3-245.1-113.6-245.4 M-107.6-237.3c-0.2,0-0.3,0-0.5,0c-0.3,0-0.5,0-0.8,0.1c-0.2,0-0.3,0.1-0.5,0.2
						c-0.2,0.2-0.3,0.3-0.5,0.6c-0.1,0.2-0.2,0.4-0.2,0.7c0,0.2,0.1,0.5,0.2,0.8c0.1,0.2,0.2,0.4,0.4,0.6c0.4,0.3,0.9,0.5,1.4,0.7
						c0.4-0.2,0.8-0.3,1.2-0.5c0.2-0.3,0.3-0.5,0.4-0.8c0.1-0.2,0.1-0.5,0.1-0.7c-0.1-0.5-0.2-0.7-0.3-0.9
						C-107-236.8-107.3-237.1-107.6-237.3 M-106.1-242.1c0.2-0.3,0.3-0.5,0.4-0.8c0.1-0.2,0.2-0.5,0.2-0.7c0-0.3,0.1-0.5,0.1-0.8
						c-0.1-0.3-0.2-0.5-0.4-0.6c-0.3-0.3-0.6-0.6-0.9-0.9c-0.2,0-0.3,0-0.5,0.1c-0.4,0-0.9,0.1-1.2,0.2c-0.1,0.2-0.3,0.5-0.4,0.7
						s-0.2,0.5-0.2,0.8c0,0.2,0,0.5,0,0.8c0.1,0.2,0.2,0.5,0.3,0.7c0.3,0.3,0.6,0.6,0.9,0.8C-107.3-241.9-106.7-242-106.1-242.1
						 M-100.8-237.3c-0.2,0-0.3,0.1-0.5,0.2c-0.2,0.2-0.3,0.3-0.5,0.6c-0.1,0.2-0.2,0.4-0.2,0.7c0,0.2,0,0.5,0.1,0.8
						c0.1,0.2,0.2,0.4,0.4,0.6c0.4,0.3,0.9,0.5,1.4,0.7c0.4-0.2,0.8-0.3,1.2-0.5c0.2-0.3,0.3-0.5,0.4-0.8c0.1-0.2,0.1-0.5,0.1-0.7
						c-0.1-0.4-0.2-0.6-0.3-0.8c-0.3-0.3-0.6-0.6-0.9-0.9c-0.2,0-0.3,0-0.5,0C-100.4-237.3-100.6-237.3-100.8-237.3 M-98.5-243.1
						c0.1-0.2,0.1-0.5,0.1-0.7c-0.1-0.3-0.2-0.5-0.3-0.7c-0.3-0.3-0.6-0.6-0.9-0.9c-0.2,0-0.3,0-0.5,0c-0.3,0-0.5,0-0.8,0.1
						c-0.2,0-0.3,0.1-0.5,0.2c-0.2,0.2-0.3,0.4-0.5,0.5c-0.1,0.2-0.2,0.4-0.2,0.7c0,0.2,0,0.5,0.1,0.8c0.1,0.2,0.2,0.4,0.4,0.5
						c0.4,0.3,0.9,0.5,1.4,0.7c0.4-0.2,0.8-0.3,1.2-0.5C-98.7-242.6-98.6-242.9-98.5-243.1 M-102-251.9c0,0.2,0,0.5,0.1,0.8
						c0.1,0.2,0.2,0.4,0.4,0.6c0.4,0.3,0.9,0.5,1.4,0.7c0.4-0.2,0.8-0.3,1.2-0.5c0.2-0.3,0.3-0.5,0.4-0.8c0.1-0.2,0.1-0.5,0.1-0.7
						c-0.1-0.3-0.2-0.5-0.3-0.7c-0.3-0.3-0.6-0.6-0.9-0.8c-0.2,0-0.3,0-0.5,0c-0.3,0-0.5,0-0.8,0.1c-0.2,0-0.3,0.1-0.5,0.2
						c-0.2,0.2-0.3,0.3-0.5,0.6C-101.9-252.3-102-252.1-102-251.9 M-104.6-253.3c-0.2,0-0.3,0-0.5,0c-0.3,0-0.5,0-0.8,0.1
						c-0.2,0-0.3,0.1-0.5,0.2c-0.2,0.2-0.3,0.3-0.5,0.6c-0.1,0.2-0.2,0.4-0.2,0.7c0,0.2,0,0.3,0.1,0.5c-0.1,0-0.1,0-0.2,0
						c-0.3,0-0.5,0-0.8,0.1c-0.2,0-0.3,0.1-0.5,0.2c-0.2,0.2-0.3,0.3-0.5,0.6c-0.1,0.2-0.2,0.4-0.2,0.7c0,0.2,0.1,0.5,0.2,0.8
						c0.1,0.2,0.2,0.4,0.4,0.5c0.4,0.3,0.9,0.5,1.4,0.7c0.4-0.2,0.8-0.3,1.2-0.5c0.3-0.5,0.4-0.8,0.5-1s0.1-0.5,0.1-0.7
						c0,0,0-0.1-0.1-0.1c0.1,0,0.2,0.1,0.3,0.1c0.4-0.2,0.8-0.3,1.2-0.5c0.2-0.3,0.3-0.5,0.4-0.8c0.1-0.2,0.1-0.5,0.1-0.7
						c0-0.3-0.1-0.5-0.2-0.7C-104-252.8-104.3-253.1-104.6-253.3 M-119.6-250.3c-0.2,0-0.3,0-0.5,0c-0.3,0-0.5,0-0.7,0.1
						c-0.2-0.1-0.4,0-0.6,0.1c-0.1,0.2-0.3,0.4-0.4,0.5c-0.1,0.3-0.2,0.5-0.2,0.7s0.1,0.5,0.2,0.8c0,0.2,0.1,0.4,0.3,0.5
						c0.4,0.3,0.9,0.5,1.4,0.7c0.4-0.1,0.8-0.3,1.2-0.5c0.2-0.2,0.3-0.5,0.4-0.7s0.1-0.5,0.1-0.7c-0.1-0.3-0.2-0.5-0.3-0.7
						C-119-249.8-119.3-250.1-119.6-250.3 M-119.8-253.5c-0.1,0.2-0.2,0.4-0.2,0.6s0,0.5,0.1,0.8c0.1,0.2,0.2,0.4,0.4,0.6
						c0.4,0.3,0.8,0.5,1.3,0.7c0.5-0.2,0.9-0.4,1.3-0.5c0.2-0.3,0.4-0.6,0.4-0.9c0.1-0.2,0.1-0.5,0.1-0.7c-0.1-0.2-0.2-0.4-0.3-0.6
						c-0.3-0.3-0.6-0.6-0.9-0.8c-0.2,0-0.3,0-0.5,0c-0.3,0-0.5,0-0.8,0.1c-0.1-0.1-0.3,0-0.5,0.1
						C-119.5-253.9-119.7-253.8-119.8-253.5 M-120.5-256.2c0.1-0.2,0.1-0.5,0.1-0.7c-0.1-0.2-0.2-0.4-0.3-0.6
						c-0.3-0.3-0.6-0.6-0.9-0.9c-0.2,0-0.3,0-0.5,0c-0.3,0-0.5,0-0.8,0.1c-0.2,0-0.3,0.1-0.5,0.2c-0.2,0.2-0.3,0.3-0.4,0.6
						c-0.1,0.2-0.2,0.4-0.2,0.7c0,0.2,0,0.5,0.1,0.8c0.1,0.1,0.2,0.3,0.4,0.5c0.4,0.3,0.9,0.5,1.4,0.7c0.4-0.2,0.8-0.4,1.2-0.5
						C-120.7-255.6-120.6-255.9-120.5-256.2 M-119.9-259.1c0.1,0.2,0.2,0.4,0.4,0.6c0.4,0.3,0.8,0.5,1.3,0.7
						c0.4-0.2,0.8-0.3,1.3-0.5c0.2-0.3,0.3-0.5,0.4-0.8c0.1-0.2,0.1-0.5,0.1-0.7c-0.1-0.3-0.2-0.5-0.3-0.7c-0.3-0.3-0.6-0.6-0.9-0.9
						c-0.2,0-0.3,0-0.5,0c-0.3,0-0.5,0-0.8,0.1c-0.2,0-0.3,0.1-0.5,0.2c-0.2,0.2-0.3,0.3-0.4,0.6c-0.1,0.2-0.2,0.4-0.2,0.7
						C-120-259.6-120-259.4-119.9-259.1 M-118.6-269.3c-0.2,0-0.3,0-0.5,0s-0.3,0-0.4,0c-0.1-0.1-0.2-0.1-0.2-0.2
						c-0.3-0.3-0.6-0.6-0.9-0.9c-0.2,0-0.3,0-0.5,0c-0.3,0-0.5,0-0.8,0c-0.2,0-0.3,0.1-0.5,0.2c-0.2,0.2-0.3,0.4-0.5,0.5
						c-0.1,0.2-0.2,0.4-0.2,0.7c0,0.2,0,0.5,0.1,0.8c0.1,0.2,0.2,0.4,0.4,0.5c0.1,0.1,0.3,0.2,0.4,0.3c-0.1,0-0.2,0.1-0.3,0.1
						c-0.1-0.1-0.2-0.2-0.3-0.2c-0.2,0-0.3,0-0.5,0c-0.3,0-0.5,0-0.8,0c-0.2,0-0.3,0.1-0.5,0.2c-0.2,0.2-0.3,0.4-0.4,0.5
						c-0.1,0.2-0.2,0.4-0.2,0.7c0,0.2,0,0.5,0.1,0.8c0.1,0.2,0.2,0.4,0.4,0.5c0.4,0.3,0.8,0.5,1.4,0.7c0.3-0.1,0.7-0.3,1-0.4
						c0.3,0.2,0.6,0.3,1,0.4c0.4-0.2,0.8-0.3,1.2-0.5c0.4,0,0.5-0.3,0.6-0.5c0.1-0.2,0.1-0.5,0.1-0.7v-0.1c0.1,0,0.2,0.1,0.3,0.1
						c0.4-0.2,0.8-0.3,1.2-0.5c0.2-0.3,0.4-0.6,0.4-0.8c0.1-0.2,0.1-0.5,0.1-0.7c-0.1-0.3-0.2-0.5-0.3-0.7
						C-118-268.8-118.3-269.1-118.6-269.3 M-101.6-260.3c-0.2,0-0.3,0-0.5,0c-0.3,0-0.5,0-0.8,0.1c-0.2,0-0.3,0.1-0.5,0.2
						c-0.2,0.2-0.3,0.3-0.5,0.6c-0.1,0.2-0.2,0.4-0.2,0.7c0,0.2,0,0.5,0.1,0.8c0.1,0.2,0.2,0.4,0.4,0.6c0.1,0.1,0.2,0.1,0.3,0.2
						c-0.3,0-0.5,0-0.7,0.1c-0.2,0-0.3,0.1-0.5,0.2c-0.2,0.2-0.3,0.3-0.5,0.6c-0.1,0.2-0.2,0.4-0.2,0.7c0,0.2,0,0.5,0.1,0.8
						c0.1,0.2,0.2,0.4,0.4,0.6c0.4,0.3,0.9,0.5,1.4,0.7c0.4-0.2,0.8-0.3,1.2-0.5c0.2-0.3,0.3-0.5,0.4-0.8c0.1-0.2,0.1-0.5,0.1-0.7
						c-0.1-0.3-0.2-0.5-0.4-0.6c-0.1-0.1-0.2-0.3-0.3-0.4c0.4-0.2,0.7-0.3,1.1-0.5c0.2-0.3,0.3-0.5,0.4-0.8c0.1-0.2,0.1-0.5,0.1-0.7
						c-0.1-0.3-0.2-0.5-0.4-0.6C-101-259.8-101.3-260.1-101.6-260.3 M-109.3-261.9c-0.1-0.3-0.2-0.5-0.4-0.6
						c-0.3-0.3-0.6-0.6-0.9-0.9c-0.2,0-0.3,0-0.5,0c-0.3,0-0.5,0-0.8,0c-0.2,0-0.3,0.1-0.5,0.2c-0.2,0.2-0.3,0.4-0.5,0.5
						c-0.1,0.2-0.2,0.4-0.2,0.7c0,0.2,0.1,0.5,0.2,0.8c0.1,0.2,0.2,0.4,0.4,0.6c0.1,0.1,0.2,0.1,0.3,0.2c-0.3,0-0.5,0-0.7,0.1
						c-0.2,0-0.3,0.1-0.5,0.2c-0.2,0.2-0.3,0.3-0.5,0.6c-0.1,0.2-0.2,0.4-0.2,0.7c0,0.2,0.1,0.5,0.2,0.8c0.1,0.2,0.2,0.4,0.4,0.6
						c0.4,0.3,0.9,0.5,1.4,0.7c0.4-0.2,0.8-0.3,1.2-0.5c0.2-0.3,0.3-0.5,0.4-0.8c0.1-0.2,0.1-0.5,0.1-0.7c-0.1-0.3-0.2-0.5-0.4-0.6
						c-0.1-0.1-0.2-0.3-0.3-0.4c0.4-0.2,0.8-0.3,1.2-0.5c0.2-0.3,0.3-0.5,0.4-0.8C-109.4-261.4-109.3-261.6-109.3-261.9
						 M-107.8-262.6c-0.1,0.2-0.2,0.4-0.2,0.7c0,0.2,0.1,0.5,0.2,0.8c0.1,0.2,0.2,0.4,0.4,0.6c0.4,0.3,0.9,0.5,1.4,0.7
						c0.4-0.2,0.8-0.3,1.2-0.5c0.2-0.3,0.3-0.5,0.4-0.8c0.1-0.2,0.1-0.5,0.1-0.7c-0.1-0.3-0.2-0.5-0.4-0.6c-0.3-0.3-0.6-0.6-0.9-0.9
						c-0.2,0-0.3,0-0.5,0c-0.3,0-0.5,0-0.8,0c-0.2,0-0.3,0.1-0.5,0.2C-107.5-262.9-107.7-262.7-107.8-262.6 M-110.8-266.6
						c-0.1,0.2-0.2,0.4-0.2,0.7c0,0.2,0.1,0.5,0.2,0.8c0.1,0.2,0.2,0.4,0.4,0.5c0.4,0.3,0.9,0.5,1.4,0.7c0.4-0.2,0.8-0.3,1.2-0.5
						c0.2-0.3,0.3-0.5,0.4-0.8c0.1-0.2,0.1-0.5,0.1-0.7c-0.1-0.3-0.2-0.5-0.4-0.6c-0.3-0.3-0.6-0.6-0.9-0.9c-0.2,0-0.3,0-0.5,0
						c-0.3,0-0.5,0-0.8,0c-0.2,0-0.3,0.1-0.5,0.2C-110.5-266.9-110.7-266.7-110.8-266.6z"/>
				</g>
			</g>
		</g>
	</g>
</g>
<g id="gate" transform="matrix( 1.346923828125, 0.8635406494140625, -0.690826416015625, 1.0775299072265625, 249.45,311.6) ">
	<g transform="matrix( 1, 0, 0, 1, 158.35,-16) ">
		<g>
			<g id="Ramp_RampSim_Assets_CGate_Assets_CdoorSolid_0_Layer0_0_FILL">
				<path class="st26" d="M-282.1-143.1h-6c-1.3,0-2,0.7-2,2l0,46c0,1.3,0.7,2,2,2h6c1.3,0,2-0.7,2-2l0-46
					C-280.1-142.5-280.8-143.1-282.1-143.1z"/>
			</g>
		</g>
		<g>
			<path id="Ramp_RampSim_Assets_CGate_Assets_CdoorSolid_0_Layer0_0_1_STROKES" class="st27" d="M-288.1-143.1h6c1.3,0,2,0.7,2,2
				l0,46c0,1.3-0.7,2-2,2h-6c-1.3,0-2-0.7-2-2l0-46C-290.1-142.5-289.4-143.1-288.1-143.1z"/>
		</g>
	</g>
</g>
<g id="gear1" transform="matrix( 1.2857666015625, 0.83013916015625, -0.83013916015625, 1.2857666015625, 202.35,268.6) ">
	<path class="st28" d="M-137-75.3h-8c-4.5,0-8.1-3.7-8.2-8.1l-0.1-16.3c0-4.5,3.6-8.1,8.1-8.1l8,0c4.5,0,8.1,3.7,8.2,8.1l0.1,16.3
		C-128.9-79-132.5-75.3-137-75.3z"/>
	<g transform="matrix( 0.30126953125, 0, 0, 0.30126953125, 0,-6.35) ">
		<g transform="matrix( 1, 0, 0, 1, 0,0) ">
			<g>
				<g>
					<path class="st29" d="M-495.4-294l54.4,0.1l-27.3-24.9L-495.4-294z"/>
				</g>
			</g>
			<g>
				<path class="st30" d="M-495.4-294l27.1-24.7l27.1,24.8L-495.4-294z"/>
			</g>
		</g>
	</g>
	<g transform="matrix( 0.30126953125, 0, 0, -0.30126953125, 0,6.4) ">
		<g transform="matrix( 1, 0, 0, 1, 0,0) ">
			<g>
				<g>
					<path class="st29" d="M-496.1,314.2l54.4-0.1l-27.2-24.7L-496.1,314.2z"/>
				</g>
			</g>
			<g>
				<path class="st30" d="M-496.1,314.2l27.2-24.9l27.1,24.7L-496.1,314.2z"/>
			</g>
		</g>
	</g>
</g>
<g id="gear4" transform="matrix( 1.2857666015625, 0.83013916015625, -0.83013916015625, 1.2857666015625, 202.35,268.6) ">
	<path class="st28" d="M-109.7-76.9l0.3-8c0.2-4.5,4-8,8.5-7.8l16.3,0.6c4.5,0.2,8,3.9,7.8,8.4l-0.3,8c-0.2,4.5-4,8-8.5,7.8
		l-16.3-0.6C-106.4-68.7-109.9-72.4-109.7-76.9z"/>
	<g transform="matrix( 0.30126953125, 0, 0, 0.30126953125, 0,-6.35) ">
		<g transform="matrix( 1, 0, 0, 1, 0,0) ">
			<g>
				<g>
					<path class="st29" d="M-297.6-272.4l-2.3,54.3l25.9-26.3L-297.6-272.4z"/>
				</g>
			</g>
			<g>
				<path class="st30" d="M-297.6-272.4l23.6,28.1l-25.9,26.2L-297.6-272.4z"/>
			</g>
		</g>
	</g>
	<g transform="matrix( 0.30126953125, 0, 0, -0.30126953125, 0,6.4) ">
		<g transform="matrix( 1, 0, 0, 1, 0,0) ">
			<g>
				<g>
					<path class="st29" d="M-319.7,316.2l-2.3-54.3l-23.6,28.2L-319.7,316.2z"/>
				</g>
			</g>
			<g>
				<path class="st30" d="M-319.7,316.2l-25.9-26.1L-322,262L-319.7,316.2z"/>
			</g>
		</g>
	</g>
</g>
<ellipse id="gear3" class="st31" cx="492.5" cy="290.1" rx="9.9" ry="8.5"/>
</svg>
